%TF.GenerationSoftware,KiCad,Pcbnew,9.0.1*%
%TF.CreationDate,2026-03-23T11:15:52+01:00*%
%TF.ProjectId,PCB_Casque,5043425f-4361-4737-9175-652e6b696361,rev?*%
%TF.SameCoordinates,Original*%
%TF.FileFunction,Copper,L3,Inr*%
%TF.FilePolarity,Positive*%
%FSLAX46Y46*%
G04 Gerber Fmt 4.6, Leading zero omitted, Abs format (unit mm)*
G04 Created by KiCad (PCBNEW 9.0.1) date 2026-03-23 11:15:52*
%MOMM*%
%LPD*%
G01*
G04 APERTURE LIST*
G04 Aperture macros list*
%AMRoundRect*
0 Rectangle with rounded corners*
0 $1 Rounding radius*
0 $2 $3 $4 $5 $6 $7 $8 $9 X,Y pos of 4 corners*
0 Add a 4 corners polygon primitive as box body*
4,1,4,$2,$3,$4,$5,$6,$7,$8,$9,$2,$3,0*
0 Add four circle primitives for the rounded corners*
1,1,$1+$1,$2,$3*
1,1,$1+$1,$4,$5*
1,1,$1+$1,$6,$7*
1,1,$1+$1,$8,$9*
0 Add four rect primitives between the rounded corners*
20,1,$1+$1,$2,$3,$4,$5,0*
20,1,$1+$1,$4,$5,$6,$7,0*
20,1,$1+$1,$6,$7,$8,$9,0*
20,1,$1+$1,$8,$9,$2,$3,0*%
%AMHorizOval*
0 Thick line with rounded ends*
0 $1 width*
0 $2 $3 position (X,Y) of the first rounded end (center of the circle)*
0 $4 $5 position (X,Y) of the second rounded end (center of the circle)*
0 Add line between two ends*
20,1,$1,$2,$3,$4,$5,0*
0 Add two circle primitives to create the rounded ends*
1,1,$1,$2,$3*
1,1,$1,$4,$5*%
G04 Aperture macros list end*
%TA.AperFunction,ComponentPad*%
%ADD10C,2.100000*%
%TD*%
%TA.AperFunction,ComponentPad*%
%ADD11C,1.750000*%
%TD*%
%TA.AperFunction,HeatsinkPad*%
%ADD12HorizOval,1.000000X-0.346410X-0.200000X0.346410X0.200000X0*%
%TD*%
%TA.AperFunction,HeatsinkPad*%
%ADD13HorizOval,1.000000X-0.476314X-0.275000X0.476314X0.275000X0*%
%TD*%
%TA.AperFunction,ComponentPad*%
%ADD14RoundRect,0.250000X0.625000X-0.350000X0.625000X0.350000X-0.625000X0.350000X-0.625000X-0.350000X0*%
%TD*%
%TA.AperFunction,ComponentPad*%
%ADD15O,1.750000X1.200000*%
%TD*%
%TA.AperFunction,ViaPad*%
%ADD16C,0.800000*%
%TD*%
G04 APERTURE END LIST*
D10*
%TO.N,*%
%TO.C,SW1*%
X105972310Y-79056246D03*
X108369871Y-72469001D03*
D11*
%TO.N,/ESP23_s3_mini_1_N8/IO0*%
X104060000Y-77030000D03*
%TO.N,GND*%
X105599091Y-72801383D03*
%TD*%
D12*
%TO.N,GND*%
%TO.C,J1*%
X103810013Y-104747537D03*
D13*
X107429999Y-102657538D03*
D12*
X108130012Y-112229998D03*
D13*
X111750000Y-110140000D03*
%TD*%
D10*
%TO.N,*%
%TO.C,SW2*%
X104559379Y-89055137D03*
X105170341Y-82071812D03*
D11*
%TO.N,/ESP23_s3_mini_1_N8/IO2*%
X102187799Y-87592876D03*
%TO.N,GND*%
X102580000Y-83110000D03*
%TD*%
D14*
%TO.N,GND*%
%TO.C,J2*%
X145390000Y-105050000D03*
D15*
%TO.N,/Abaisseur/Vbat(3.7V)*%
X145390000Y-103050000D03*
%TD*%
D10*
%TO.N,*%
%TO.C,SW4*%
X105399231Y-98958626D03*
X104181958Y-92055123D03*
D11*
%TO.N,/ESP23_s3_mini_1_N8/IO1*%
X102730000Y-98160000D03*
%TO.N,GND*%
X101948583Y-93728365D03*
%TD*%
D16*
%TO.N,/Abaisseur/Vbat(3.7V)*%
X130720000Y-100380000D03*
X133150000Y-77020000D03*
X141440000Y-75640000D03*
X124150000Y-113610000D03*
X139240000Y-92170000D03*
X136050000Y-87310000D03*
X136200000Y-79730000D03*
X131570000Y-87710000D03*
X145380000Y-99420000D03*
X125800000Y-108330000D03*
X126280000Y-105010000D03*
%TO.N,GND*%
X126540000Y-74070000D03*
X141540000Y-88130000D03*
X117500000Y-117060000D03*
X135452500Y-74527500D03*
X136030000Y-82740000D03*
X113960000Y-115810000D03*
X113570000Y-110950000D03*
X128600000Y-101470000D03*
X106750000Y-101360000D03*
%TO.N,/ESP23_s3_mini_1_N8/Valim(3.3V)*%
X125970000Y-95610000D03*
X121200000Y-69560000D03*
X116350000Y-75920000D03*
X124600000Y-61380000D03*
X147430000Y-58912500D03*
X122060000Y-75910000D03*
X111510000Y-91670000D03*
X114560000Y-75900000D03*
%TO.N,/Abaisseur/V_USB(5V)*%
X115760000Y-114020000D03*
X112850000Y-107650000D03*
X119240000Y-118040000D03*
X108010000Y-105080000D03*
X119080000Y-114680000D03*
%TO.N,/ESP23_s3_mini_1_N8/IO2*%
X109820000Y-83350000D03*
X117040000Y-72610000D03*
%TO.N,/DAC ampli droit/SD_Mode_droit*%
X133151000Y-78050002D03*
X127240000Y-66890000D03*
%TO.N,Net-(U3-IO0)*%
X122780000Y-61970000D03*
X124580000Y-68220000D03*
%TO.N,/DAC ampli droit/BCLK*%
X138070000Y-85840000D03*
X134190000Y-74450000D03*
X128019056Y-67563778D03*
%TO.N,/DAC ampli droit/DIN*%
X133006166Y-76000090D03*
X130284293Y-74985707D03*
X136610000Y-86190000D03*
%TO.N,/DAC ampli droit/LRCLK*%
X128800222Y-68319778D03*
X136570000Y-74220000D03*
X139120000Y-85830000D03*
%TD*%
%TA.AperFunction,Conductor*%
%TO.N,GND*%
G36*
X150452271Y-57856828D02*
G01*
X150498162Y-57909514D01*
X150509500Y-57961315D01*
X150509500Y-110232074D01*
X150489815Y-110299113D01*
X150437011Y-110344868D01*
X150435331Y-110345621D01*
X119626688Y-123866210D01*
X119557389Y-123875125D01*
X119514676Y-123859946D01*
X118704358Y-123390287D01*
X118701004Y-123388271D01*
X117645356Y-122731064D01*
X117642066Y-122728943D01*
X116607665Y-122038736D01*
X116604445Y-122036513D01*
X115592345Y-121314012D01*
X115589196Y-121311688D01*
X114600401Y-120557610D01*
X114597327Y-120555188D01*
X113632815Y-119770276D01*
X113629845Y-119767781D01*
X112690512Y-118952761D01*
X112687666Y-118950212D01*
X111774592Y-118106022D01*
X111771768Y-118103329D01*
X111700932Y-118033564D01*
X111617409Y-117951304D01*
X118339500Y-117951304D01*
X118339500Y-118128695D01*
X118374103Y-118302658D01*
X118374106Y-118302667D01*
X118441983Y-118466540D01*
X118441990Y-118466553D01*
X118540535Y-118614034D01*
X118540538Y-118614038D01*
X118665961Y-118739461D01*
X118665965Y-118739464D01*
X118813446Y-118838009D01*
X118813459Y-118838016D01*
X118936363Y-118888923D01*
X118977334Y-118905894D01*
X118977336Y-118905894D01*
X118977341Y-118905896D01*
X119151304Y-118940499D01*
X119151307Y-118940500D01*
X119151309Y-118940500D01*
X119328693Y-118940500D01*
X119328694Y-118940499D01*
X119386682Y-118928964D01*
X119502658Y-118905896D01*
X119502661Y-118905894D01*
X119502666Y-118905894D01*
X119666547Y-118838013D01*
X119814035Y-118739464D01*
X119939464Y-118614035D01*
X120038013Y-118466547D01*
X120105894Y-118302666D01*
X120140500Y-118128691D01*
X120140500Y-117951309D01*
X120140500Y-117951306D01*
X120140499Y-117951304D01*
X120105896Y-117777341D01*
X120105893Y-117777332D01*
X120038016Y-117613459D01*
X120038009Y-117613446D01*
X119939464Y-117465965D01*
X119939461Y-117465961D01*
X119814038Y-117340538D01*
X119814034Y-117340535D01*
X119666553Y-117241990D01*
X119666540Y-117241983D01*
X119502667Y-117174106D01*
X119502658Y-117174103D01*
X119328694Y-117139500D01*
X119328691Y-117139500D01*
X119151309Y-117139500D01*
X119151306Y-117139500D01*
X118977341Y-117174103D01*
X118977332Y-117174106D01*
X118813459Y-117241983D01*
X118813446Y-117241990D01*
X118665965Y-117340535D01*
X118665961Y-117340538D01*
X118540538Y-117465961D01*
X118540535Y-117465965D01*
X118441990Y-117613446D01*
X118441983Y-117613459D01*
X118374106Y-117777332D01*
X118374103Y-117777341D01*
X118339500Y-117951304D01*
X111617409Y-117951304D01*
X110885752Y-117230711D01*
X110883008Y-117227921D01*
X110025032Y-116327842D01*
X110022376Y-116324967D01*
X109264586Y-115478013D01*
X109193190Y-115398216D01*
X109190633Y-115395266D01*
X109072081Y-115254038D01*
X108391088Y-114442789D01*
X108388655Y-114439796D01*
X107988470Y-113931304D01*
X114859500Y-113931304D01*
X114859500Y-114108695D01*
X114894103Y-114282658D01*
X114894106Y-114282667D01*
X114961983Y-114446540D01*
X114961990Y-114446553D01*
X115060535Y-114594034D01*
X115060538Y-114594038D01*
X115185961Y-114719461D01*
X115185965Y-114719464D01*
X115333446Y-114818009D01*
X115333459Y-114818016D01*
X115456363Y-114868923D01*
X115497334Y-114885894D01*
X115497336Y-114885894D01*
X115497341Y-114885896D01*
X115671304Y-114920499D01*
X115671307Y-114920500D01*
X115671309Y-114920500D01*
X115848693Y-114920500D01*
X115848694Y-114920499D01*
X115906682Y-114908964D01*
X116022658Y-114885896D01*
X116022661Y-114885894D01*
X116022666Y-114885894D01*
X116186547Y-114818013D01*
X116334035Y-114719464D01*
X116459464Y-114594035D01*
X116461289Y-114591304D01*
X118179500Y-114591304D01*
X118179500Y-114768695D01*
X118214103Y-114942658D01*
X118214106Y-114942667D01*
X118281983Y-115106540D01*
X118281990Y-115106553D01*
X118380535Y-115254034D01*
X118380538Y-115254038D01*
X118505961Y-115379461D01*
X118505965Y-115379464D01*
X118653446Y-115478009D01*
X118653459Y-115478016D01*
X118776363Y-115528923D01*
X118817334Y-115545894D01*
X118817336Y-115545894D01*
X118817341Y-115545896D01*
X118991304Y-115580499D01*
X118991307Y-115580500D01*
X118991309Y-115580500D01*
X119168693Y-115580500D01*
X119168694Y-115580499D01*
X119226682Y-115568964D01*
X119342658Y-115545896D01*
X119342661Y-115545894D01*
X119342666Y-115545894D01*
X119506547Y-115478013D01*
X119654035Y-115379464D01*
X119779464Y-115254035D01*
X119878013Y-115106547D01*
X119945894Y-114942666D01*
X119950304Y-114920499D01*
X119980499Y-114768695D01*
X119980500Y-114768693D01*
X119980500Y-114591306D01*
X119980499Y-114591304D01*
X119945896Y-114417341D01*
X119945893Y-114417332D01*
X119942031Y-114408009D01*
X119901764Y-114310793D01*
X119878016Y-114253459D01*
X119878009Y-114253446D01*
X119779464Y-114105965D01*
X119779461Y-114105961D01*
X119654038Y-113980538D01*
X119654034Y-113980535D01*
X119506553Y-113881990D01*
X119506540Y-113881983D01*
X119342667Y-113814106D01*
X119342658Y-113814103D01*
X119168694Y-113779500D01*
X119168691Y-113779500D01*
X118991309Y-113779500D01*
X118991306Y-113779500D01*
X118817341Y-113814103D01*
X118817332Y-113814106D01*
X118653459Y-113881983D01*
X118653446Y-113881990D01*
X118505965Y-113980535D01*
X118505961Y-113980538D01*
X118380538Y-114105961D01*
X118380535Y-114105965D01*
X118281990Y-114253446D01*
X118281983Y-114253459D01*
X118214106Y-114417332D01*
X118214103Y-114417341D01*
X118179500Y-114591304D01*
X116461289Y-114591304D01*
X116558013Y-114446547D01*
X116559561Y-114442811D01*
X116614243Y-114310794D01*
X116625894Y-114282666D01*
X116631707Y-114253446D01*
X116660499Y-114108695D01*
X116660500Y-114108693D01*
X116660500Y-113931306D01*
X116660499Y-113931304D01*
X116625896Y-113757341D01*
X116625893Y-113757332D01*
X116558016Y-113593459D01*
X116558007Y-113593443D01*
X116551771Y-113584110D01*
X116551769Y-113584108D01*
X116509804Y-113521304D01*
X123249500Y-113521304D01*
X123249500Y-113698695D01*
X123284103Y-113872658D01*
X123284106Y-113872667D01*
X123351983Y-114036540D01*
X123351990Y-114036553D01*
X123450535Y-114184034D01*
X123450538Y-114184038D01*
X123575961Y-114309461D01*
X123575965Y-114309464D01*
X123723446Y-114408009D01*
X123723459Y-114408016D01*
X123846227Y-114458867D01*
X123887334Y-114475894D01*
X123887336Y-114475894D01*
X123887341Y-114475896D01*
X124061304Y-114510499D01*
X124061307Y-114510500D01*
X124061309Y-114510500D01*
X124238693Y-114510500D01*
X124238694Y-114510499D01*
X124296682Y-114498964D01*
X124412658Y-114475896D01*
X124412661Y-114475894D01*
X124412666Y-114475894D01*
X124576547Y-114408013D01*
X124724035Y-114309464D01*
X124849464Y-114184035D01*
X124948013Y-114036547D01*
X125015894Y-113872666D01*
X125027543Y-113814106D01*
X125049368Y-113704383D01*
X125050500Y-113698691D01*
X125050500Y-113521309D01*
X125050500Y-113521306D01*
X125050499Y-113521304D01*
X125015896Y-113347341D01*
X125015893Y-113347332D01*
X124948016Y-113183459D01*
X124948009Y-113183446D01*
X124849463Y-113035963D01*
X124777538Y-112964038D01*
X135019500Y-112964038D01*
X135019500Y-113215962D01*
X135040309Y-113347341D01*
X135058910Y-113464785D01*
X135136760Y-113704383D01*
X135251132Y-113928848D01*
X135399201Y-114132649D01*
X135399205Y-114132654D01*
X135577345Y-114310794D01*
X135577350Y-114310798D01*
X135711156Y-114408013D01*
X135781155Y-114458870D01*
X135882483Y-114510499D01*
X136005616Y-114573239D01*
X136005618Y-114573239D01*
X136005621Y-114573241D01*
X136245215Y-114651090D01*
X136494038Y-114690500D01*
X136494039Y-114690500D01*
X136745961Y-114690500D01*
X136745962Y-114690500D01*
X136994785Y-114651090D01*
X137234379Y-114573241D01*
X137458845Y-114458870D01*
X137662656Y-114310793D01*
X137840793Y-114132656D01*
X137988870Y-113928845D01*
X138103241Y-113704379D01*
X138181090Y-113464785D01*
X138220500Y-113215962D01*
X138220500Y-112964038D01*
X138181090Y-112715215D01*
X138103241Y-112475621D01*
X138103239Y-112475618D01*
X138103239Y-112475616D01*
X138041781Y-112354999D01*
X137988870Y-112251155D01*
X137944393Y-112189938D01*
X137840798Y-112047350D01*
X137840794Y-112047345D01*
X137662654Y-111869205D01*
X137662649Y-111869201D01*
X137458848Y-111721132D01*
X137458847Y-111721131D01*
X137458845Y-111721130D01*
X137388747Y-111685413D01*
X137234383Y-111606760D01*
X136994785Y-111528910D01*
X136745962Y-111489500D01*
X136494038Y-111489500D01*
X136369626Y-111509205D01*
X136245214Y-111528910D01*
X136005616Y-111606760D01*
X135781151Y-111721132D01*
X135577350Y-111869201D01*
X135577345Y-111869205D01*
X135399205Y-112047345D01*
X135399201Y-112047350D01*
X135251132Y-112251151D01*
X135136760Y-112475616D01*
X135058910Y-112715214D01*
X135054334Y-112744106D01*
X135019500Y-112964038D01*
X124777538Y-112964038D01*
X124724038Y-112910538D01*
X124724034Y-112910535D01*
X124576553Y-112811990D01*
X124576540Y-112811983D01*
X124412667Y-112744106D01*
X124412658Y-112744103D01*
X124238694Y-112709500D01*
X124238691Y-112709500D01*
X124061309Y-112709500D01*
X124061306Y-112709500D01*
X123887341Y-112744103D01*
X123887332Y-112744106D01*
X123723459Y-112811983D01*
X123723446Y-112811990D01*
X123575965Y-112910535D01*
X123575961Y-112910538D01*
X123450538Y-113035961D01*
X123450535Y-113035965D01*
X123351990Y-113183446D01*
X123351983Y-113183459D01*
X123284106Y-113347332D01*
X123284103Y-113347341D01*
X123249500Y-113521304D01*
X116509804Y-113521304D01*
X116459464Y-113445965D01*
X116459461Y-113445961D01*
X116334038Y-113320538D01*
X116334034Y-113320535D01*
X116186553Y-113221990D01*
X116186540Y-113221983D01*
X116022667Y-113154106D01*
X116022658Y-113154103D01*
X115848694Y-113119500D01*
X115848691Y-113119500D01*
X115671309Y-113119500D01*
X115671306Y-113119500D01*
X115497341Y-113154103D01*
X115497332Y-113154106D01*
X115333459Y-113221983D01*
X115333446Y-113221990D01*
X115185965Y-113320535D01*
X115185961Y-113320538D01*
X115060538Y-113445961D01*
X115060535Y-113445965D01*
X114961990Y-113593446D01*
X114961983Y-113593459D01*
X114894106Y-113757332D01*
X114894103Y-113757341D01*
X114859500Y-113931304D01*
X107988470Y-113931304D01*
X107752628Y-113631634D01*
X107726636Y-113566778D01*
X107739833Y-113498166D01*
X107788030Y-113447582D01*
X107833885Y-113432007D01*
X108011770Y-113408588D01*
X108011783Y-113408585D01*
X108198301Y-113345270D01*
X108198311Y-113345266D01*
X108413504Y-113221023D01*
X108413504Y-113221022D01*
X108063506Y-112614805D01*
X108496517Y-112364805D01*
X108846517Y-112971022D01*
X108846518Y-112971022D01*
X109061721Y-112846775D01*
X109209815Y-112716900D01*
X109209816Y-112716899D01*
X109329731Y-112560624D01*
X109329734Y-112560620D01*
X109416855Y-112383955D01*
X109416856Y-112383953D01*
X109467839Y-112193680D01*
X109480722Y-111997118D01*
X109455012Y-111801825D01*
X109455010Y-111801815D01*
X109441348Y-111761572D01*
X109441347Y-111761571D01*
X108746039Y-112163007D01*
X108755978Y-112145793D01*
X108776423Y-112069494D01*
X108776423Y-111990502D01*
X108755978Y-111914202D01*
X108716482Y-111845793D01*
X108660627Y-111789938D01*
X108592218Y-111750442D01*
X108515918Y-111729997D01*
X108496038Y-111729997D01*
X109191349Y-111328559D01*
X109163321Y-111296600D01*
X109105819Y-111252478D01*
X109007045Y-111176686D01*
X109007040Y-111176683D01*
X108830380Y-111089564D01*
X108830378Y-111089563D01*
X108640105Y-111038580D01*
X108443543Y-111025697D01*
X108248253Y-111051406D01*
X108248244Y-111051409D01*
X108061719Y-111114726D01*
X108061716Y-111114727D01*
X107846518Y-111238971D01*
X107846518Y-111238972D01*
X108196517Y-111845190D01*
X107763505Y-112095189D01*
X107413505Y-111488972D01*
X107413504Y-111488972D01*
X107198308Y-111613216D01*
X107198301Y-111613221D01*
X107050208Y-111743095D01*
X107050207Y-111743096D01*
X106930292Y-111899371D01*
X106930289Y-111899376D01*
X106841685Y-112079046D01*
X106794379Y-112130466D01*
X106726784Y-112148147D01*
X106660360Y-112126477D01*
X106628390Y-112094593D01*
X106171224Y-111431551D01*
X106169057Y-111428300D01*
X106122137Y-111355433D01*
X105495829Y-110382768D01*
X105493767Y-110379452D01*
X105397449Y-110218958D01*
X104853848Y-109313163D01*
X104851900Y-109309796D01*
X104796710Y-109210888D01*
X104730524Y-109092273D01*
X110151485Y-109092273D01*
X110151485Y-109210891D01*
X110182186Y-109325468D01*
X110241496Y-109428195D01*
X110325372Y-109512071D01*
X110428099Y-109571381D01*
X110441646Y-109575011D01*
X110501305Y-109611372D01*
X110531836Y-109674218D01*
X110523544Y-109743593D01*
X110507930Y-109770271D01*
X110420375Y-109884374D01*
X110420373Y-109884378D01*
X110333252Y-110061041D01*
X110333251Y-110061043D01*
X110282268Y-110251316D01*
X110269385Y-110447878D01*
X110295095Y-110643167D01*
X110295096Y-110643171D01*
X110308760Y-110683424D01*
X111004070Y-110281986D01*
X110994130Y-110299204D01*
X110973685Y-110375504D01*
X110973685Y-110454496D01*
X110994130Y-110530795D01*
X111033626Y-110599205D01*
X111089481Y-110655060D01*
X111157890Y-110694556D01*
X111234190Y-110715001D01*
X111254066Y-110715001D01*
X110558759Y-111116437D01*
X110586783Y-111148393D01*
X110743065Y-111268313D01*
X110919727Y-111355433D01*
X110919729Y-111355434D01*
X111110002Y-111406417D01*
X111306564Y-111419300D01*
X111501853Y-111393590D01*
X111501866Y-111393587D01*
X111688385Y-111330272D01*
X111688395Y-111330268D01*
X112033492Y-111131025D01*
X112033492Y-111131024D01*
X111683493Y-110524807D01*
X112116505Y-110274808D01*
X112466505Y-110881024D01*
X112466506Y-110881024D01*
X112811613Y-110681777D01*
X112959707Y-110551902D01*
X112959708Y-110551901D01*
X113079623Y-110395626D01*
X113079626Y-110395621D01*
X113166747Y-110218958D01*
X113166748Y-110218956D01*
X113217731Y-110028683D01*
X113230614Y-109832121D01*
X113204904Y-109636831D01*
X113204902Y-109636822D01*
X113191239Y-109596573D01*
X113191238Y-109596573D01*
X112495932Y-109998008D01*
X112505870Y-109980796D01*
X112526315Y-109904496D01*
X112526315Y-109825504D01*
X112505870Y-109749205D01*
X112466374Y-109680795D01*
X112410519Y-109624940D01*
X112342110Y-109585444D01*
X112265810Y-109564999D01*
X112245929Y-109564999D01*
X112941239Y-109163561D01*
X112913214Y-109131604D01*
X112756934Y-109011686D01*
X112580272Y-108924566D01*
X112580270Y-108924565D01*
X112389997Y-108873582D01*
X112193435Y-108860699D01*
X111998146Y-108886409D01*
X111998133Y-108886412D01*
X111811614Y-108949727D01*
X111811608Y-108949729D01*
X111466506Y-109148973D01*
X111466506Y-109148974D01*
X111816505Y-109755192D01*
X111383493Y-110005191D01*
X111037724Y-109406302D01*
X111031716Y-109381538D01*
X111021873Y-109358032D01*
X111022856Y-109345019D01*
X111021251Y-109338402D01*
X111022997Y-109322755D01*
X111023934Y-109317443D01*
X111052485Y-109210891D01*
X111052485Y-109092273D01*
X111021784Y-108977696D01*
X110962474Y-108874969D01*
X110878598Y-108791093D01*
X110775871Y-108731783D01*
X110661294Y-108701082D01*
X110542676Y-108701082D01*
X110428099Y-108731783D01*
X110428097Y-108731783D01*
X110428097Y-108731784D01*
X110325372Y-108791093D01*
X110325369Y-108791095D01*
X110241498Y-108874966D01*
X110241496Y-108874969D01*
X110182186Y-108977696D01*
X110151485Y-109092273D01*
X104730524Y-109092273D01*
X104245969Y-108223880D01*
X104244144Y-108220485D01*
X103903146Y-107561304D01*
X111949500Y-107561304D01*
X111949500Y-107738695D01*
X111984103Y-107912658D01*
X111984106Y-107912667D01*
X112051983Y-108076540D01*
X112051990Y-108076553D01*
X112150535Y-108224034D01*
X112150538Y-108224038D01*
X112275961Y-108349461D01*
X112275965Y-108349464D01*
X112423446Y-108448009D01*
X112423459Y-108448016D01*
X112546363Y-108498923D01*
X112587334Y-108515894D01*
X112587336Y-108515894D01*
X112587341Y-108515896D01*
X112761304Y-108550499D01*
X112761307Y-108550500D01*
X112761309Y-108550500D01*
X112938693Y-108550500D01*
X112938694Y-108550499D01*
X112996682Y-108538964D01*
X113112658Y-108515896D01*
X113112661Y-108515894D01*
X113112666Y-108515894D01*
X113276547Y-108448013D01*
X113424035Y-108349464D01*
X113532195Y-108241304D01*
X124899500Y-108241304D01*
X124899500Y-108418695D01*
X124934103Y-108592658D01*
X124934106Y-108592667D01*
X125001983Y-108756540D01*
X125001990Y-108756553D01*
X125100535Y-108904034D01*
X125100538Y-108904038D01*
X125225961Y-109029461D01*
X125225965Y-109029464D01*
X125373446Y-109128009D01*
X125373459Y-109128016D01*
X125459274Y-109163561D01*
X125537334Y-109195894D01*
X125537336Y-109195894D01*
X125537341Y-109195896D01*
X125711304Y-109230499D01*
X125711307Y-109230500D01*
X125711309Y-109230500D01*
X125888693Y-109230500D01*
X125888694Y-109230499D01*
X125946682Y-109218964D01*
X126062658Y-109195896D01*
X126062661Y-109195894D01*
X126062666Y-109195894D01*
X126202535Y-109137958D01*
X126226540Y-109128016D01*
X126226540Y-109128015D01*
X126226547Y-109128013D01*
X126374035Y-109029464D01*
X126499464Y-108904035D01*
X126598013Y-108756547D01*
X126665894Y-108592666D01*
X126674282Y-108550500D01*
X126700499Y-108418695D01*
X126700500Y-108418693D01*
X126700500Y-108241306D01*
X126700499Y-108241304D01*
X126665896Y-108067341D01*
X126665893Y-108067332D01*
X126598016Y-107903459D01*
X126598009Y-107903446D01*
X126499464Y-107755965D01*
X126499461Y-107755961D01*
X126374038Y-107630538D01*
X126374034Y-107630535D01*
X126226553Y-107531990D01*
X126226540Y-107531983D01*
X126062667Y-107464106D01*
X126062658Y-107464103D01*
X125888694Y-107429500D01*
X125888691Y-107429500D01*
X125711309Y-107429500D01*
X125711306Y-107429500D01*
X125537341Y-107464103D01*
X125537332Y-107464106D01*
X125373459Y-107531983D01*
X125373446Y-107531990D01*
X125225965Y-107630535D01*
X125225961Y-107630538D01*
X125100538Y-107755961D01*
X125100535Y-107755965D01*
X125001990Y-107903446D01*
X125001983Y-107903459D01*
X124934106Y-108067332D01*
X124934103Y-108067341D01*
X124899500Y-108241304D01*
X113532195Y-108241304D01*
X113549464Y-108224035D01*
X113648013Y-108076547D01*
X113715894Y-107912666D01*
X113717726Y-107903459D01*
X113750499Y-107738695D01*
X113750500Y-107738693D01*
X113750500Y-107561306D01*
X113750499Y-107561304D01*
X113715896Y-107387341D01*
X113715893Y-107387332D01*
X113648016Y-107223459D01*
X113648009Y-107223446D01*
X113549464Y-107075965D01*
X113549461Y-107075961D01*
X113424038Y-106950538D01*
X113424034Y-106950535D01*
X113276553Y-106851990D01*
X113276540Y-106851983D01*
X113112667Y-106784106D01*
X113112658Y-106784103D01*
X112938694Y-106749500D01*
X112938691Y-106749500D01*
X112761309Y-106749500D01*
X112761306Y-106749500D01*
X112587341Y-106784103D01*
X112587332Y-106784106D01*
X112423459Y-106851983D01*
X112423446Y-106851990D01*
X112275965Y-106950535D01*
X112275961Y-106950538D01*
X112150538Y-107075961D01*
X112150535Y-107075965D01*
X112051990Y-107223446D01*
X112051983Y-107223459D01*
X111984106Y-107387332D01*
X111984103Y-107387341D01*
X111949500Y-107561304D01*
X103903146Y-107561304D01*
X103672751Y-107115929D01*
X103671035Y-107112480D01*
X103195350Y-106117169D01*
X103184203Y-106048195D01*
X103212116Y-105984143D01*
X103270226Y-105945350D01*
X103315340Y-105939965D01*
X103496482Y-105951837D01*
X103691771Y-105926127D01*
X103691784Y-105926124D01*
X103878302Y-105862809D01*
X103878312Y-105862805D01*
X104093505Y-105738562D01*
X104093505Y-105738561D01*
X103743507Y-105132344D01*
X104176518Y-104882344D01*
X104526518Y-105488561D01*
X104526519Y-105488561D01*
X104741722Y-105364314D01*
X104889816Y-105234439D01*
X104889817Y-105234438D01*
X105009732Y-105078163D01*
X105009735Y-105078159D01*
X105096856Y-104901494D01*
X105096857Y-104901492D01*
X105147840Y-104711219D01*
X105160723Y-104514657D01*
X105135013Y-104319364D01*
X105135011Y-104319354D01*
X105121349Y-104279111D01*
X105121348Y-104279110D01*
X104426040Y-104680546D01*
X104435979Y-104663332D01*
X104456424Y-104587033D01*
X104456424Y-104508041D01*
X104435979Y-104431741D01*
X104396483Y-104363332D01*
X104340628Y-104307477D01*
X104272219Y-104267981D01*
X104195919Y-104247536D01*
X104176039Y-104247536D01*
X104871350Y-103846098D01*
X104843322Y-103814139D01*
X104785819Y-103770016D01*
X104687046Y-103694225D01*
X104687041Y-103694222D01*
X104510381Y-103607103D01*
X104510379Y-103607102D01*
X104320106Y-103556119D01*
X104123544Y-103543236D01*
X103928254Y-103568945D01*
X103928245Y-103568948D01*
X103741720Y-103632265D01*
X103741717Y-103632266D01*
X103526519Y-103756510D01*
X103526519Y-103756511D01*
X103876518Y-104362729D01*
X103443506Y-104612728D01*
X103093506Y-104006511D01*
X103093505Y-104006511D01*
X102878309Y-104130755D01*
X102878302Y-104130760D01*
X102730209Y-104260634D01*
X102730208Y-104260635D01*
X102643184Y-104374046D01*
X102586756Y-104415249D01*
X102517010Y-104419403D01*
X102456090Y-104385190D01*
X102429780Y-104344865D01*
X102218627Y-103820336D01*
X102166729Y-103691416D01*
X102165325Y-103687763D01*
X102144994Y-103632265D01*
X102112381Y-103543236D01*
X101915589Y-103006037D01*
X101900708Y-102965416D01*
X105949384Y-102965416D01*
X105975094Y-103160705D01*
X105975095Y-103160709D01*
X105988759Y-103200962D01*
X106684069Y-102799524D01*
X106674129Y-102816742D01*
X106653684Y-102893042D01*
X106653684Y-102972034D01*
X106674129Y-103048333D01*
X106713625Y-103116743D01*
X106769480Y-103172598D01*
X106837889Y-103212094D01*
X106914189Y-103232539D01*
X106934065Y-103232539D01*
X106238758Y-103633975D01*
X106266782Y-103665931D01*
X106423064Y-103785851D01*
X106599726Y-103872971D01*
X106599728Y-103872972D01*
X106790001Y-103923955D01*
X106986563Y-103936838D01*
X107129154Y-103918065D01*
X107198189Y-103928830D01*
X107250445Y-103975210D01*
X107269331Y-104042479D01*
X107265116Y-104073092D01*
X107261485Y-104086642D01*
X107261485Y-104086647D01*
X107261485Y-104205265D01*
X107289693Y-104310538D01*
X107292187Y-104319845D01*
X107319933Y-104367902D01*
X107336406Y-104435802D01*
X107313883Y-104500875D01*
X107313920Y-104500900D01*
X107313827Y-104501038D01*
X107313554Y-104501829D01*
X107311538Y-104504464D01*
X107211990Y-104653446D01*
X107211983Y-104653459D01*
X107144106Y-104817332D01*
X107144103Y-104817341D01*
X107109500Y-104991304D01*
X107109500Y-105168695D01*
X107144103Y-105342658D01*
X107144106Y-105342667D01*
X107211983Y-105506540D01*
X107211990Y-105506553D01*
X107310535Y-105654034D01*
X107310538Y-105654038D01*
X107435961Y-105779461D01*
X107435965Y-105779464D01*
X107583446Y-105878009D01*
X107583459Y-105878016D01*
X107661882Y-105910499D01*
X107747334Y-105945894D01*
X107747336Y-105945894D01*
X107747341Y-105945896D01*
X107921304Y-105980499D01*
X107921307Y-105980500D01*
X107921309Y-105980500D01*
X108098693Y-105980500D01*
X108098694Y-105980499D01*
X108156682Y-105968964D01*
X108272658Y-105945896D01*
X108272661Y-105945894D01*
X108272666Y-105945894D01*
X108436547Y-105878013D01*
X108584035Y-105779464D01*
X108709464Y-105654035D01*
X108808013Y-105506547D01*
X108875894Y-105342666D01*
X108888309Y-105280255D01*
X108899410Y-105224445D01*
X108910500Y-105168691D01*
X108910500Y-104991309D01*
X108910500Y-104991306D01*
X108910499Y-104991304D01*
X108900177Y-104939408D01*
X108896576Y-104921304D01*
X125379500Y-104921304D01*
X125379500Y-105098695D01*
X125414103Y-105272658D01*
X125414106Y-105272667D01*
X125481983Y-105436540D01*
X125481990Y-105436553D01*
X125580535Y-105584034D01*
X125580538Y-105584038D01*
X125705961Y-105709461D01*
X125705965Y-105709464D01*
X125853446Y-105808009D01*
X125853459Y-105808016D01*
X125976363Y-105858923D01*
X126017334Y-105875894D01*
X126017336Y-105875894D01*
X126017341Y-105875896D01*
X126191304Y-105910499D01*
X126191307Y-105910500D01*
X126191309Y-105910500D01*
X126368693Y-105910500D01*
X126368694Y-105910499D01*
X126426682Y-105898964D01*
X126542658Y-105875896D01*
X126542661Y-105875894D01*
X126542666Y-105875894D01*
X126706547Y-105808013D01*
X126854035Y-105709464D01*
X126979464Y-105584035D01*
X127078013Y-105436547D01*
X127145894Y-105272666D01*
X127180500Y-105098691D01*
X127180500Y-104921309D01*
X127180500Y-104921306D01*
X127180499Y-104921304D01*
X127145896Y-104747341D01*
X127145893Y-104747332D01*
X127078016Y-104583459D01*
X127078009Y-104583446D01*
X126979464Y-104435965D01*
X126979461Y-104435961D01*
X126854038Y-104310538D01*
X126854034Y-104310535D01*
X126706553Y-104211990D01*
X126706540Y-104211983D01*
X126542667Y-104144106D01*
X126542658Y-104144103D01*
X126368694Y-104109500D01*
X126368691Y-104109500D01*
X126191309Y-104109500D01*
X126191306Y-104109500D01*
X126017341Y-104144103D01*
X126017332Y-104144106D01*
X125853459Y-104211983D01*
X125853446Y-104211990D01*
X125705965Y-104310535D01*
X125705961Y-104310538D01*
X125580538Y-104435961D01*
X125580535Y-104435965D01*
X125481990Y-104583446D01*
X125481983Y-104583459D01*
X125414106Y-104747332D01*
X125414103Y-104747341D01*
X125379500Y-104921304D01*
X108896576Y-104921304D01*
X108878760Y-104831741D01*
X108875894Y-104817334D01*
X108831940Y-104711219D01*
X108808016Y-104653459D01*
X108808009Y-104653446D01*
X108709464Y-104505965D01*
X108709461Y-104505961D01*
X108584038Y-104380538D01*
X108584034Y-104380535D01*
X108436553Y-104281990D01*
X108436540Y-104281983D01*
X108272670Y-104214107D01*
X108272663Y-104214105D01*
X108262291Y-104212042D01*
X108200381Y-104179655D01*
X108165808Y-104118939D01*
X108162485Y-104090425D01*
X108162485Y-104086649D01*
X108162485Y-104086647D01*
X108131784Y-103972070D01*
X108072474Y-103869343D01*
X107988598Y-103785467D01*
X107885871Y-103726157D01*
X107784552Y-103699008D01*
X107724893Y-103662643D01*
X107709260Y-103641234D01*
X107363492Y-103042345D01*
X107796504Y-102792346D01*
X108146504Y-103398562D01*
X108146505Y-103398562D01*
X108491612Y-103199315D01*
X108639706Y-103069440D01*
X108639707Y-103069439D01*
X108721083Y-102963389D01*
X144014500Y-102963389D01*
X144014500Y-103136610D01*
X144041597Y-103307697D01*
X144095128Y-103472447D01*
X144137761Y-103556119D01*
X144173768Y-103626788D01*
X144275586Y-103766928D01*
X144275588Y-103766930D01*
X144383491Y-103874833D01*
X144416976Y-103936156D01*
X144411992Y-104005848D01*
X144370120Y-104061781D01*
X144360907Y-104068053D01*
X144296654Y-104107684D01*
X144172684Y-104231654D01*
X144080643Y-104380875D01*
X144080641Y-104380880D01*
X144025494Y-104547302D01*
X144025493Y-104547309D01*
X144015000Y-104650013D01*
X144015000Y-104800000D01*
X145109670Y-104800000D01*
X145089925Y-104819745D01*
X145040556Y-104905255D01*
X145015000Y-105000630D01*
X145015000Y-105099370D01*
X145040556Y-105194745D01*
X145089925Y-105280255D01*
X145109670Y-105300000D01*
X144015001Y-105300000D01*
X144015001Y-105449986D01*
X144025494Y-105552697D01*
X144080641Y-105719119D01*
X144080643Y-105719124D01*
X144172684Y-105868345D01*
X144296654Y-105992315D01*
X144445875Y-106084356D01*
X144445880Y-106084358D01*
X144612302Y-106139505D01*
X144612309Y-106139506D01*
X144715019Y-106149999D01*
X145139999Y-106149999D01*
X145140000Y-106149998D01*
X145140000Y-105330330D01*
X145159745Y-105350075D01*
X145245255Y-105399444D01*
X145340630Y-105425000D01*
X145439370Y-105425000D01*
X145534745Y-105399444D01*
X145620255Y-105350075D01*
X145640000Y-105330330D01*
X145640000Y-106149999D01*
X146064972Y-106149999D01*
X146064986Y-106149998D01*
X146167697Y-106139505D01*
X146334119Y-106084358D01*
X146334124Y-106084356D01*
X146483345Y-105992315D01*
X146607315Y-105868345D01*
X146699356Y-105719124D01*
X146699358Y-105719119D01*
X146754505Y-105552697D01*
X146754506Y-105552690D01*
X146764999Y-105449986D01*
X146765000Y-105449973D01*
X146765000Y-105300000D01*
X145670330Y-105300000D01*
X145690075Y-105280255D01*
X145739444Y-105194745D01*
X145765000Y-105099370D01*
X145765000Y-105000630D01*
X145739444Y-104905255D01*
X145690075Y-104819745D01*
X145670330Y-104800000D01*
X146764999Y-104800000D01*
X146764999Y-104650028D01*
X146764998Y-104650013D01*
X146754505Y-104547302D01*
X146699358Y-104380880D01*
X146699356Y-104380875D01*
X146607315Y-104231654D01*
X146483343Y-104107682D01*
X146419093Y-104068053D01*
X146372368Y-104016105D01*
X146361145Y-103947143D01*
X146388988Y-103883061D01*
X146396486Y-103874855D01*
X146504414Y-103766928D01*
X146606232Y-103626788D01*
X146684873Y-103472445D01*
X146738402Y-103307701D01*
X146765500Y-103136611D01*
X146765500Y-102963389D01*
X146738402Y-102792299D01*
X146684873Y-102627555D01*
X146606232Y-102473212D01*
X146504414Y-102333072D01*
X146381928Y-102210586D01*
X146241788Y-102108768D01*
X146087445Y-102030127D01*
X145922701Y-101976598D01*
X145922699Y-101976597D01*
X145922698Y-101976597D01*
X145791271Y-101955781D01*
X145751611Y-101949500D01*
X145028389Y-101949500D01*
X144988728Y-101955781D01*
X144857302Y-101976597D01*
X144692552Y-102030128D01*
X144538211Y-102108768D01*
X144491814Y-102142478D01*
X144398072Y-102210586D01*
X144398070Y-102210588D01*
X144398069Y-102210588D01*
X144275588Y-102333069D01*
X144275588Y-102333070D01*
X144275586Y-102333072D01*
X144263535Y-102349659D01*
X144173768Y-102473211D01*
X144095128Y-102627552D01*
X144041597Y-102792302D01*
X144014500Y-102963389D01*
X108721083Y-102963389D01*
X108759622Y-102913164D01*
X108759625Y-102913160D01*
X108764304Y-102903673D01*
X108846746Y-102736496D01*
X108846747Y-102736494D01*
X108897730Y-102546221D01*
X108910613Y-102349659D01*
X108884903Y-102154369D01*
X108884901Y-102154360D01*
X108871238Y-102114111D01*
X108871237Y-102114111D01*
X108175931Y-102515546D01*
X108185869Y-102498334D01*
X108206314Y-102422034D01*
X108206314Y-102343042D01*
X108185869Y-102266743D01*
X108146373Y-102198333D01*
X108090518Y-102142478D01*
X108022109Y-102102982D01*
X107945809Y-102082537D01*
X107925928Y-102082537D01*
X108621238Y-101681099D01*
X108593213Y-101649142D01*
X108436933Y-101529224D01*
X108260271Y-101442104D01*
X108260269Y-101442103D01*
X108069996Y-101391120D01*
X107873434Y-101378237D01*
X107678145Y-101403947D01*
X107678132Y-101403950D01*
X107491613Y-101467265D01*
X107491607Y-101467267D01*
X107146505Y-101666511D01*
X107146505Y-101666512D01*
X107496504Y-102272730D01*
X107063492Y-102522729D01*
X106713492Y-101916512D01*
X106713491Y-101916512D01*
X106368391Y-102115756D01*
X106368384Y-102115761D01*
X106220291Y-102245635D01*
X106220290Y-102245636D01*
X106100375Y-102401911D01*
X106100372Y-102401916D01*
X106013251Y-102578579D01*
X106013250Y-102578581D01*
X105962267Y-102768854D01*
X105949384Y-102965416D01*
X101900708Y-102965416D01*
X101737580Y-102520112D01*
X101736292Y-102516417D01*
X101730308Y-102498334D01*
X101345611Y-101335860D01*
X101344444Y-101332137D01*
X101188732Y-100806547D01*
X100991206Y-100139817D01*
X100990155Y-100136049D01*
X100674725Y-98933202D01*
X100673792Y-98929401D01*
X100478224Y-98074527D01*
X100473012Y-98051746D01*
X101354500Y-98051746D01*
X101354500Y-98268253D01*
X101388370Y-98482098D01*
X101455272Y-98688006D01*
X101455273Y-98688009D01*
X101535755Y-98845961D01*
X101553567Y-98880919D01*
X101680828Y-99056078D01*
X101833922Y-99209172D01*
X102009081Y-99336433D01*
X102103697Y-99384642D01*
X102201990Y-99434726D01*
X102201993Y-99434727D01*
X102304947Y-99468178D01*
X102407903Y-99501630D01*
X102621746Y-99535500D01*
X102621747Y-99535500D01*
X102838253Y-99535500D01*
X102838254Y-99535500D01*
X103052097Y-99501630D01*
X103258009Y-99434726D01*
X103450919Y-99336433D01*
X103626078Y-99209172D01*
X103663777Y-99171472D01*
X103725097Y-99137988D01*
X103794789Y-99142972D01*
X103850723Y-99184842D01*
X103873930Y-99239755D01*
X103886909Y-99321699D01*
X103886910Y-99321702D01*
X103962327Y-99553811D01*
X104026897Y-99680538D01*
X104073127Y-99771268D01*
X104216570Y-99968702D01*
X104216574Y-99968707D01*
X104389149Y-100141282D01*
X104389154Y-100141286D01*
X104449183Y-100184899D01*
X104586592Y-100284732D01*
X104804046Y-100395530D01*
X105036155Y-100470947D01*
X105277204Y-100509126D01*
X105277205Y-100509126D01*
X105521257Y-100509126D01*
X105521258Y-100509126D01*
X105762307Y-100470947D01*
X105994416Y-100395530D01*
X106198972Y-100291304D01*
X129819500Y-100291304D01*
X129819500Y-100468695D01*
X129854103Y-100642658D01*
X129854106Y-100642667D01*
X129921983Y-100806540D01*
X129921990Y-100806553D01*
X130020535Y-100954034D01*
X130020538Y-100954038D01*
X130145961Y-101079461D01*
X130145965Y-101079464D01*
X130293446Y-101178009D01*
X130293459Y-101178016D01*
X130416363Y-101228923D01*
X130457334Y-101245894D01*
X130457336Y-101245894D01*
X130457341Y-101245896D01*
X130631304Y-101280499D01*
X130631307Y-101280500D01*
X130631309Y-101280500D01*
X130808693Y-101280500D01*
X130808694Y-101280499D01*
X130866682Y-101268964D01*
X130982658Y-101245896D01*
X130982661Y-101245894D01*
X130982666Y-101245894D01*
X131146547Y-101178013D01*
X131294035Y-101079464D01*
X131419464Y-100954035D01*
X131518013Y-100806547D01*
X131585894Y-100642666D01*
X131620500Y-100468691D01*
X131620500Y-100291309D01*
X131620500Y-100291306D01*
X131620499Y-100291304D01*
X131585896Y-100117341D01*
X131585893Y-100117332D01*
X131518016Y-99953459D01*
X131518009Y-99953446D01*
X131419464Y-99805965D01*
X131419461Y-99805961D01*
X131294038Y-99680538D01*
X131294034Y-99680535D01*
X131146553Y-99581990D01*
X131146540Y-99581983D01*
X130982667Y-99514106D01*
X130982658Y-99514103D01*
X130808694Y-99479500D01*
X130808691Y-99479500D01*
X130631309Y-99479500D01*
X130631306Y-99479500D01*
X130457341Y-99514103D01*
X130457332Y-99514106D01*
X130293459Y-99581983D01*
X130293446Y-99581990D01*
X130145965Y-99680535D01*
X130145961Y-99680538D01*
X130020538Y-99805961D01*
X130020535Y-99805965D01*
X129921990Y-99953446D01*
X129921983Y-99953459D01*
X129854106Y-100117332D01*
X129854103Y-100117341D01*
X129819500Y-100291304D01*
X106198972Y-100291304D01*
X106211870Y-100284732D01*
X106303697Y-100218016D01*
X106349280Y-100184899D01*
X106409307Y-100141286D01*
X106409305Y-100141286D01*
X106409314Y-100141281D01*
X106581886Y-99968709D01*
X106725337Y-99771265D01*
X106836135Y-99553811D01*
X106908432Y-99331304D01*
X144479500Y-99331304D01*
X144479500Y-99508695D01*
X144514103Y-99682658D01*
X144514106Y-99682667D01*
X144581983Y-99846540D01*
X144581990Y-99846553D01*
X144680535Y-99994034D01*
X144680538Y-99994038D01*
X144805961Y-100119461D01*
X144805965Y-100119464D01*
X144953446Y-100218009D01*
X144953459Y-100218016D01*
X145076363Y-100268923D01*
X145117334Y-100285894D01*
X145117336Y-100285894D01*
X145117341Y-100285896D01*
X145291304Y-100320499D01*
X145291307Y-100320500D01*
X145291309Y-100320500D01*
X145468693Y-100320500D01*
X145468694Y-100320499D01*
X145526682Y-100308964D01*
X145642658Y-100285896D01*
X145642661Y-100285894D01*
X145642666Y-100285894D01*
X145806547Y-100218013D01*
X145954035Y-100119464D01*
X146079464Y-99994035D01*
X146178013Y-99846547D01*
X146245894Y-99682666D01*
X146246318Y-99680538D01*
X146280499Y-99508695D01*
X146280500Y-99508693D01*
X146280500Y-99331306D01*
X146280499Y-99331304D01*
X146245896Y-99157341D01*
X146245893Y-99157332D01*
X146178016Y-98993459D01*
X146178009Y-98993446D01*
X146079464Y-98845965D01*
X146079461Y-98845961D01*
X145954038Y-98720538D01*
X145954034Y-98720535D01*
X145806553Y-98621990D01*
X145806540Y-98621983D01*
X145642667Y-98554106D01*
X145642658Y-98554103D01*
X145468694Y-98519500D01*
X145468691Y-98519500D01*
X145291309Y-98519500D01*
X145291306Y-98519500D01*
X145117341Y-98554103D01*
X145117332Y-98554106D01*
X144953459Y-98621983D01*
X144953446Y-98621990D01*
X144805965Y-98720535D01*
X144805961Y-98720538D01*
X144680538Y-98845961D01*
X144680535Y-98845965D01*
X144581990Y-98993446D01*
X144581983Y-98993459D01*
X144514106Y-99157332D01*
X144514103Y-99157341D01*
X144479500Y-99331304D01*
X106908432Y-99331304D01*
X106911552Y-99321702D01*
X106949731Y-99080653D01*
X106949731Y-98836599D01*
X106911552Y-98595550D01*
X106836135Y-98363441D01*
X106725337Y-98145987D01*
X106692962Y-98101426D01*
X106581891Y-97948549D01*
X106581887Y-97948544D01*
X106409312Y-97775969D01*
X106409307Y-97775965D01*
X106211873Y-97632522D01*
X106211872Y-97632521D01*
X106211870Y-97632520D01*
X105994416Y-97521722D01*
X105762307Y-97446305D01*
X105762305Y-97446304D01*
X105762303Y-97446304D01*
X105594000Y-97419647D01*
X105521258Y-97408126D01*
X105277204Y-97408126D01*
X105221324Y-97416976D01*
X105036158Y-97446304D01*
X104804043Y-97521723D01*
X104586588Y-97632522D01*
X104389155Y-97775964D01*
X104277392Y-97887727D01*
X104216069Y-97921211D01*
X104146377Y-97916227D01*
X104090444Y-97874355D01*
X104071780Y-97838363D01*
X104004727Y-97631993D01*
X104004726Y-97631990D01*
X103948541Y-97521722D01*
X103906433Y-97439081D01*
X103779172Y-97263922D01*
X103626078Y-97110828D01*
X103450919Y-96983567D01*
X103258009Y-96885273D01*
X103258006Y-96885272D01*
X103052098Y-96818370D01*
X102945175Y-96801435D01*
X102838254Y-96784500D01*
X102621746Y-96784500D01*
X102550465Y-96795790D01*
X102407901Y-96818370D01*
X102201993Y-96885272D01*
X102201990Y-96885273D01*
X102009080Y-96983567D01*
X101968241Y-97013239D01*
X101833922Y-97110828D01*
X101833920Y-97110830D01*
X101833919Y-97110830D01*
X101680830Y-97263919D01*
X101680830Y-97263920D01*
X101680828Y-97263922D01*
X101626174Y-97339145D01*
X101553567Y-97439080D01*
X101455273Y-97631990D01*
X101455272Y-97631993D01*
X101388370Y-97837901D01*
X101354500Y-98051746D01*
X100473012Y-98051746D01*
X100424092Y-97837903D01*
X100396472Y-97717169D01*
X100395674Y-97713416D01*
X100156731Y-96492962D01*
X100156052Y-96489177D01*
X99978956Y-95404038D01*
X118879500Y-95404038D01*
X118879500Y-95655961D01*
X118918910Y-95904785D01*
X118996760Y-96144383D01*
X119111132Y-96368848D01*
X119259201Y-96572649D01*
X119259205Y-96572654D01*
X119437345Y-96750794D01*
X119437350Y-96750798D01*
X119530356Y-96818370D01*
X119641155Y-96898870D01*
X119784184Y-96971747D01*
X119865616Y-97013239D01*
X119865618Y-97013239D01*
X119865621Y-97013241D01*
X120105215Y-97091090D01*
X120354038Y-97130500D01*
X120354039Y-97130500D01*
X120605961Y-97130500D01*
X120605962Y-97130500D01*
X120854785Y-97091090D01*
X121094379Y-97013241D01*
X121318845Y-96898870D01*
X121522656Y-96750793D01*
X121700793Y-96572656D01*
X121848870Y-96368845D01*
X121963241Y-96144379D01*
X122041090Y-95904785D01*
X122080500Y-95655962D01*
X122080500Y-95521304D01*
X125069500Y-95521304D01*
X125069500Y-95698695D01*
X125104103Y-95872658D01*
X125104106Y-95872667D01*
X125171983Y-96036540D01*
X125171990Y-96036553D01*
X125270535Y-96184034D01*
X125270538Y-96184038D01*
X125395961Y-96309461D01*
X125395965Y-96309464D01*
X125543446Y-96408009D01*
X125543459Y-96408016D01*
X125666363Y-96458923D01*
X125707334Y-96475894D01*
X125707336Y-96475894D01*
X125707341Y-96475896D01*
X125881304Y-96510499D01*
X125881307Y-96510500D01*
X125881309Y-96510500D01*
X126058693Y-96510500D01*
X126058694Y-96510499D01*
X126116682Y-96498964D01*
X126232658Y-96475896D01*
X126232661Y-96475894D01*
X126232666Y-96475894D01*
X126396547Y-96408013D01*
X126544035Y-96309464D01*
X126669464Y-96184035D01*
X126768013Y-96036547D01*
X126835894Y-95872666D01*
X126870500Y-95698691D01*
X126870500Y-95521309D01*
X126870500Y-95521306D01*
X126870499Y-95521304D01*
X126835896Y-95347341D01*
X126835893Y-95347332D01*
X126768016Y-95183459D01*
X126768009Y-95183446D01*
X126669464Y-95035965D01*
X126669461Y-95035961D01*
X126544038Y-94910538D01*
X126544034Y-94910535D01*
X126396553Y-94811990D01*
X126396540Y-94811983D01*
X126232667Y-94744106D01*
X126232658Y-94744103D01*
X126058694Y-94709500D01*
X126058691Y-94709500D01*
X125881309Y-94709500D01*
X125881306Y-94709500D01*
X125707341Y-94744103D01*
X125707332Y-94744106D01*
X125543459Y-94811983D01*
X125543446Y-94811990D01*
X125395965Y-94910535D01*
X125395961Y-94910538D01*
X125270538Y-95035961D01*
X125270535Y-95035965D01*
X125171990Y-95183446D01*
X125171983Y-95183459D01*
X125104106Y-95347332D01*
X125104103Y-95347341D01*
X125069500Y-95521304D01*
X122080500Y-95521304D01*
X122080500Y-95404038D01*
X122041090Y-95155215D01*
X121963241Y-94915621D01*
X121963239Y-94915618D01*
X121963239Y-94915616D01*
X121892687Y-94777151D01*
X121848870Y-94691155D01*
X121829952Y-94665117D01*
X121700798Y-94487350D01*
X121700794Y-94487345D01*
X121522654Y-94309205D01*
X121522649Y-94309201D01*
X121318848Y-94161132D01*
X121318847Y-94161131D01*
X121318845Y-94161130D01*
X121246882Y-94124463D01*
X121094383Y-94046760D01*
X120854785Y-93968910D01*
X120605962Y-93929500D01*
X120354038Y-93929500D01*
X120229626Y-93949205D01*
X120105214Y-93968910D01*
X119865616Y-94046760D01*
X119641151Y-94161132D01*
X119437350Y-94309201D01*
X119437345Y-94309205D01*
X119259205Y-94487345D01*
X119259201Y-94487350D01*
X119111132Y-94691151D01*
X118996760Y-94915616D01*
X118918910Y-95155214D01*
X118879500Y-95404038D01*
X99978956Y-95404038D01*
X99955746Y-95261818D01*
X99955186Y-95258009D01*
X99793713Y-94024957D01*
X99793275Y-94021142D01*
X99753588Y-93620144D01*
X100573583Y-93620144D01*
X100573583Y-93836585D01*
X100607440Y-94050346D01*
X100674318Y-94256179D01*
X100674319Y-94256182D01*
X100772577Y-94449022D01*
X100899791Y-94624116D01*
X100968245Y-94692570D01*
X101497389Y-93936873D01*
X101552485Y-94032302D01*
X101644646Y-94124463D01*
X101757520Y-94189631D01*
X101883415Y-94223365D01*
X101907171Y-94223365D01*
X101377103Y-94980380D01*
X101377103Y-94980381D01*
X101420765Y-95002628D01*
X101420768Y-95002629D01*
X101626601Y-95069507D01*
X101840363Y-95103365D01*
X102056803Y-95103365D01*
X102270564Y-95069507D01*
X102476397Y-95002629D01*
X102476400Y-95002628D01*
X102669240Y-94904370D01*
X102844341Y-94777151D01*
X102912789Y-94708702D01*
X102912788Y-94708701D01*
X102157093Y-94179557D01*
X102252520Y-94124463D01*
X102344681Y-94032302D01*
X102409849Y-93919428D01*
X102443583Y-93793533D01*
X102443583Y-93769774D01*
X103200598Y-94299842D01*
X103200599Y-94299842D01*
X103222843Y-94256187D01*
X103222846Y-94256180D01*
X103289726Y-94050345D01*
X103323583Y-93836585D01*
X103323583Y-93620144D01*
X103316476Y-93575273D01*
X103325431Y-93505980D01*
X103370427Y-93452528D01*
X103437178Y-93431888D01*
X103495243Y-93445390D01*
X103509252Y-93452528D01*
X103586767Y-93492025D01*
X103586772Y-93492026D01*
X103586773Y-93492027D01*
X103818882Y-93567444D01*
X104059931Y-93605623D01*
X104059932Y-93605623D01*
X104303984Y-93605623D01*
X104303985Y-93605623D01*
X104545034Y-93567444D01*
X104777143Y-93492027D01*
X104994597Y-93381229D01*
X105192041Y-93237778D01*
X105364613Y-93065206D01*
X105508064Y-92867762D01*
X105618862Y-92650308D01*
X105694279Y-92418199D01*
X105732458Y-92177150D01*
X105732458Y-91933096D01*
X105694279Y-91692047D01*
X105658296Y-91581304D01*
X110609500Y-91581304D01*
X110609500Y-91758695D01*
X110644103Y-91932658D01*
X110644106Y-91932667D01*
X110711983Y-92096540D01*
X110711990Y-92096553D01*
X110810535Y-92244034D01*
X110810538Y-92244038D01*
X110935961Y-92369461D01*
X110935965Y-92369464D01*
X111083446Y-92468009D01*
X111083459Y-92468016D01*
X111206363Y-92518923D01*
X111247334Y-92535894D01*
X111247336Y-92535894D01*
X111247341Y-92535896D01*
X111421304Y-92570499D01*
X111421307Y-92570500D01*
X111421309Y-92570500D01*
X111598693Y-92570500D01*
X111598694Y-92570499D01*
X111656682Y-92558964D01*
X111772658Y-92535896D01*
X111772661Y-92535894D01*
X111772666Y-92535894D01*
X111936547Y-92468013D01*
X112084035Y-92369464D01*
X112209464Y-92244035D01*
X112308013Y-92096547D01*
X112314327Y-92081304D01*
X138339500Y-92081304D01*
X138339500Y-92258695D01*
X138374103Y-92432658D01*
X138374106Y-92432667D01*
X138441983Y-92596540D01*
X138441990Y-92596553D01*
X138540535Y-92744034D01*
X138540538Y-92744038D01*
X138665961Y-92869461D01*
X138665965Y-92869464D01*
X138813446Y-92968009D01*
X138813459Y-92968016D01*
X138936363Y-93018923D01*
X138977334Y-93035894D01*
X138977336Y-93035894D01*
X138977341Y-93035896D01*
X139151304Y-93070499D01*
X139151307Y-93070500D01*
X139151309Y-93070500D01*
X139328693Y-93070500D01*
X139328694Y-93070499D01*
X139386682Y-93058964D01*
X139502658Y-93035896D01*
X139502661Y-93035894D01*
X139502666Y-93035894D01*
X139666547Y-92968013D01*
X139814035Y-92869464D01*
X139939464Y-92744035D01*
X140038013Y-92596547D01*
X140105894Y-92432666D01*
X140108773Y-92418195D01*
X140140499Y-92258695D01*
X140140500Y-92258693D01*
X140140500Y-92081306D01*
X140140499Y-92081304D01*
X140105896Y-91907341D01*
X140105893Y-91907332D01*
X140038016Y-91743459D01*
X140038009Y-91743446D01*
X139939464Y-91595965D01*
X139939461Y-91595961D01*
X139814038Y-91470538D01*
X139814034Y-91470535D01*
X139666553Y-91371990D01*
X139666540Y-91371983D01*
X139502667Y-91304106D01*
X139502658Y-91304103D01*
X139328694Y-91269500D01*
X139328691Y-91269500D01*
X139151309Y-91269500D01*
X139151306Y-91269500D01*
X138977341Y-91304103D01*
X138977332Y-91304106D01*
X138813459Y-91371983D01*
X138813446Y-91371990D01*
X138665965Y-91470535D01*
X138665961Y-91470538D01*
X138540538Y-91595961D01*
X138540535Y-91595965D01*
X138441990Y-91743446D01*
X138441983Y-91743459D01*
X138374106Y-91907332D01*
X138374103Y-91907341D01*
X138339500Y-92081304D01*
X112314327Y-92081304D01*
X112375894Y-91932666D01*
X112380932Y-91907341D01*
X112410499Y-91758695D01*
X112410500Y-91758693D01*
X112410500Y-91581306D01*
X112410499Y-91581304D01*
X112375896Y-91407341D01*
X112375893Y-91407332D01*
X112308016Y-91243459D01*
X112308009Y-91243446D01*
X112209464Y-91095965D01*
X112209461Y-91095961D01*
X112084038Y-90970538D01*
X112084034Y-90970535D01*
X111936553Y-90871990D01*
X111936540Y-90871983D01*
X111772667Y-90804106D01*
X111772658Y-90804103D01*
X111598694Y-90769500D01*
X111598691Y-90769500D01*
X111421309Y-90769500D01*
X111421306Y-90769500D01*
X111247341Y-90804103D01*
X111247332Y-90804106D01*
X111083459Y-90871983D01*
X111083446Y-90871990D01*
X110935965Y-90970535D01*
X110935961Y-90970538D01*
X110810538Y-91095961D01*
X110810535Y-91095965D01*
X110711990Y-91243446D01*
X110711983Y-91243459D01*
X110644106Y-91407332D01*
X110644103Y-91407341D01*
X110609500Y-91581304D01*
X105658296Y-91581304D01*
X105618862Y-91459938D01*
X105508064Y-91242484D01*
X105489737Y-91217259D01*
X105364618Y-91045046D01*
X105364614Y-91045041D01*
X105192039Y-90872466D01*
X105192034Y-90872462D01*
X105015537Y-90744230D01*
X104972871Y-90688900D01*
X104966892Y-90619287D01*
X104999497Y-90557492D01*
X105050102Y-90525982D01*
X105154564Y-90492041D01*
X105372018Y-90381243D01*
X105569462Y-90237792D01*
X105742034Y-90065220D01*
X105885485Y-89867776D01*
X105996283Y-89650322D01*
X106071700Y-89418213D01*
X106109879Y-89177164D01*
X106109879Y-88933110D01*
X106071700Y-88692061D01*
X105996283Y-88459952D01*
X105885485Y-88242498D01*
X105808512Y-88136553D01*
X105742039Y-88045060D01*
X105742035Y-88045055D01*
X105569460Y-87872480D01*
X105569455Y-87872476D01*
X105372019Y-87729031D01*
X105365485Y-87725702D01*
X105365484Y-87725702D01*
X105160591Y-87621304D01*
X130669500Y-87621304D01*
X130669500Y-87798695D01*
X130704103Y-87972658D01*
X130704106Y-87972667D01*
X130771983Y-88136540D01*
X130771990Y-88136553D01*
X130870535Y-88284034D01*
X130870538Y-88284038D01*
X130995961Y-88409461D01*
X130995965Y-88409464D01*
X131143446Y-88508009D01*
X131143459Y-88508016D01*
X131266363Y-88558923D01*
X131307334Y-88575894D01*
X131307336Y-88575894D01*
X131307341Y-88575896D01*
X131481304Y-88610499D01*
X131481307Y-88610500D01*
X131481309Y-88610500D01*
X131658693Y-88610500D01*
X131658694Y-88610499D01*
X131716682Y-88598964D01*
X131832658Y-88575896D01*
X131832661Y-88575894D01*
X131832666Y-88575894D01*
X131996547Y-88508013D01*
X132144035Y-88409464D01*
X132269464Y-88284035D01*
X132368013Y-88136547D01*
X132435894Y-87972666D01*
X132470500Y-87798691D01*
X132470500Y-87621309D01*
X132470500Y-87621306D01*
X132470499Y-87621304D01*
X132435896Y-87447341D01*
X132435893Y-87447332D01*
X132368016Y-87283459D01*
X132368014Y-87283456D01*
X132368013Y-87283453D01*
X132326486Y-87221304D01*
X135149500Y-87221304D01*
X135149500Y-87398695D01*
X135184103Y-87572658D01*
X135184106Y-87572667D01*
X135251983Y-87736540D01*
X135251990Y-87736553D01*
X135350535Y-87884034D01*
X135350538Y-87884038D01*
X135475961Y-88009461D01*
X135475965Y-88009464D01*
X135623446Y-88108009D01*
X135623459Y-88108016D01*
X135692355Y-88136553D01*
X135787334Y-88175894D01*
X135787336Y-88175894D01*
X135787341Y-88175896D01*
X135961304Y-88210499D01*
X135961307Y-88210500D01*
X135961309Y-88210500D01*
X136138693Y-88210500D01*
X136138694Y-88210499D01*
X136196682Y-88198964D01*
X136312658Y-88175896D01*
X136312661Y-88175894D01*
X136312666Y-88175894D01*
X136476547Y-88108013D01*
X136624035Y-88009464D01*
X136749464Y-87884035D01*
X136848013Y-87736547D01*
X136915894Y-87572666D01*
X136950500Y-87398691D01*
X136950500Y-87221309D01*
X136950500Y-87221306D01*
X136934030Y-87138509D01*
X136940257Y-87068917D01*
X136983120Y-87013740D01*
X137008192Y-86999757D01*
X137036547Y-86988013D01*
X137184035Y-86889464D01*
X137309464Y-86764035D01*
X137401877Y-86625729D01*
X137455489Y-86580925D01*
X137524814Y-86572218D01*
X137573870Y-86591519D01*
X137643447Y-86638009D01*
X137643453Y-86638013D01*
X137643455Y-86638014D01*
X137643459Y-86638016D01*
X137766363Y-86688923D01*
X137807334Y-86705894D01*
X137807336Y-86705894D01*
X137807341Y-86705896D01*
X137981304Y-86740499D01*
X137981307Y-86740500D01*
X137981309Y-86740500D01*
X138158693Y-86740500D01*
X138158694Y-86740499D01*
X138216682Y-86728964D01*
X138332658Y-86705896D01*
X138332661Y-86705894D01*
X138332666Y-86705894D01*
X138496547Y-86638013D01*
X138533590Y-86613260D01*
X138600267Y-86592382D01*
X138667648Y-86610866D01*
X138671373Y-86613260D01*
X138690036Y-86625730D01*
X138693453Y-86628013D01*
X138857334Y-86695894D01*
X138857336Y-86695894D01*
X138857341Y-86695896D01*
X139031304Y-86730499D01*
X139031307Y-86730500D01*
X139031309Y-86730500D01*
X139208693Y-86730500D01*
X139208694Y-86730499D01*
X139266682Y-86718964D01*
X139382658Y-86695896D01*
X139382661Y-86695894D01*
X139382666Y-86695894D01*
X139546547Y-86628013D01*
X139694035Y-86529464D01*
X139819464Y-86404035D01*
X139918013Y-86256547D01*
X139985894Y-86092666D01*
X140020500Y-85918691D01*
X140020500Y-85741309D01*
X140020500Y-85741306D01*
X140020499Y-85741304D01*
X139985896Y-85567341D01*
X139985893Y-85567332D01*
X139918016Y-85403459D01*
X139918009Y-85403446D01*
X139819464Y-85255965D01*
X139819461Y-85255961D01*
X139694038Y-85130538D01*
X139694034Y-85130535D01*
X139546553Y-85031990D01*
X139546540Y-85031983D01*
X139382667Y-84964106D01*
X139382658Y-84964103D01*
X139208694Y-84929500D01*
X139208691Y-84929500D01*
X139031309Y-84929500D01*
X139031306Y-84929500D01*
X138857341Y-84964103D01*
X138857332Y-84964106D01*
X138693460Y-85031983D01*
X138693446Y-85031991D01*
X138656404Y-85056741D01*
X138589727Y-85077617D01*
X138522347Y-85059131D01*
X138518625Y-85056739D01*
X138496552Y-85041990D01*
X138496549Y-85041988D01*
X138496547Y-85041987D01*
X138496544Y-85041985D01*
X138496539Y-85041983D01*
X138332667Y-84974106D01*
X138332658Y-84974103D01*
X138158694Y-84939500D01*
X138158691Y-84939500D01*
X137981309Y-84939500D01*
X137981306Y-84939500D01*
X137807341Y-84974103D01*
X137807332Y-84974106D01*
X137643459Y-85041983D01*
X137643446Y-85041990D01*
X137495965Y-85140535D01*
X137495961Y-85140538D01*
X137370538Y-85265961D01*
X137370535Y-85265965D01*
X137278123Y-85404269D01*
X137224510Y-85449074D01*
X137155185Y-85457781D01*
X137106130Y-85438480D01*
X137036553Y-85391990D01*
X137036540Y-85391983D01*
X136872667Y-85324106D01*
X136872658Y-85324103D01*
X136698694Y-85289500D01*
X136698691Y-85289500D01*
X136521309Y-85289500D01*
X136521306Y-85289500D01*
X136347341Y-85324103D01*
X136347332Y-85324106D01*
X136183459Y-85391983D01*
X136183446Y-85391990D01*
X136035965Y-85490535D01*
X136035961Y-85490538D01*
X135910538Y-85615961D01*
X135910535Y-85615965D01*
X135811990Y-85763446D01*
X135811983Y-85763459D01*
X135744106Y-85927332D01*
X135744103Y-85927341D01*
X135709500Y-86101304D01*
X135709500Y-86278695D01*
X135725969Y-86361490D01*
X135719742Y-86431081D01*
X135676879Y-86486259D01*
X135651808Y-86500241D01*
X135623454Y-86511986D01*
X135475965Y-86610535D01*
X135475961Y-86610538D01*
X135350538Y-86735961D01*
X135350535Y-86735965D01*
X135251990Y-86883446D01*
X135251983Y-86883459D01*
X135184106Y-87047332D01*
X135184103Y-87047341D01*
X135149500Y-87221304D01*
X132326486Y-87221304D01*
X132269464Y-87135965D01*
X132269461Y-87135961D01*
X132144038Y-87010538D01*
X132144034Y-87010535D01*
X131996553Y-86911990D01*
X131996540Y-86911983D01*
X131832667Y-86844106D01*
X131832658Y-86844103D01*
X131658694Y-86809500D01*
X131658691Y-86809500D01*
X131481309Y-86809500D01*
X131481306Y-86809500D01*
X131307341Y-86844103D01*
X131307332Y-86844106D01*
X131143459Y-86911983D01*
X131143446Y-86911990D01*
X130995965Y-87010535D01*
X130995961Y-87010538D01*
X130870538Y-87135961D01*
X130870535Y-87135965D01*
X130771990Y-87283446D01*
X130771983Y-87283459D01*
X130704106Y-87447332D01*
X130704103Y-87447341D01*
X130669500Y-87621304D01*
X105160591Y-87621304D01*
X105154566Y-87618234D01*
X105154565Y-87618233D01*
X105154564Y-87618233D01*
X104922455Y-87542816D01*
X104922453Y-87542815D01*
X104922451Y-87542815D01*
X104754148Y-87516158D01*
X104681406Y-87504637D01*
X104437352Y-87504637D01*
X104381472Y-87513487D01*
X104196306Y-87542815D01*
X103964191Y-87618234D01*
X103743594Y-87730634D01*
X103674925Y-87743530D01*
X103610184Y-87717254D01*
X103569927Y-87660147D01*
X103563299Y-87620149D01*
X103563299Y-87484622D01*
X103549689Y-87398693D01*
X103529429Y-87270779D01*
X103495977Y-87167823D01*
X103462526Y-87064869D01*
X103462525Y-87064866D01*
X103373152Y-86889464D01*
X103364232Y-86871957D01*
X103236971Y-86696798D01*
X103083877Y-86543704D01*
X102908718Y-86416443D01*
X102884364Y-86404034D01*
X102715808Y-86318149D01*
X102715805Y-86318148D01*
X102509897Y-86251246D01*
X102402974Y-86234311D01*
X102296053Y-86217376D01*
X102079545Y-86217376D01*
X102008264Y-86228666D01*
X101865700Y-86251246D01*
X101659792Y-86318148D01*
X101659789Y-86318149D01*
X101466879Y-86416443D01*
X101370787Y-86486259D01*
X101291721Y-86543704D01*
X101291719Y-86543706D01*
X101291718Y-86543706D01*
X101138629Y-86696795D01*
X101138629Y-86696796D01*
X101138627Y-86696798D01*
X101106876Y-86740499D01*
X101011366Y-86871956D01*
X100913072Y-87064866D01*
X100913071Y-87064869D01*
X100846169Y-87270777D01*
X100825909Y-87398691D01*
X100812299Y-87484622D01*
X100812299Y-87701130D01*
X100817909Y-87736547D01*
X100846169Y-87914974D01*
X100913071Y-88120882D01*
X100913072Y-88120885D01*
X100958734Y-88210500D01*
X101011366Y-88313795D01*
X101138627Y-88488954D01*
X101291721Y-88642048D01*
X101466880Y-88769309D01*
X101546391Y-88809822D01*
X101659789Y-88867602D01*
X101659792Y-88867603D01*
X101698892Y-88880307D01*
X101865702Y-88934506D01*
X102079545Y-88968376D01*
X102079546Y-88968376D01*
X102296052Y-88968376D01*
X102296053Y-88968376D01*
X102509896Y-88934506D01*
X102715808Y-88867602D01*
X102715808Y-88867601D01*
X102715813Y-88867600D01*
X102829207Y-88809822D01*
X102897877Y-88796925D01*
X102962617Y-88823201D01*
X103002875Y-88880307D01*
X103009121Y-88930031D01*
X103008879Y-88933107D01*
X103008879Y-89177163D01*
X103047057Y-89418209D01*
X103122476Y-89650324D01*
X103233275Y-89867779D01*
X103376718Y-90065213D01*
X103376722Y-90065218D01*
X103549297Y-90237793D01*
X103549302Y-90237797D01*
X103725799Y-90366029D01*
X103768465Y-90421358D01*
X103774444Y-90490972D01*
X103741839Y-90552767D01*
X103691233Y-90584277D01*
X103665146Y-90592753D01*
X103586768Y-90618220D01*
X103369315Y-90729019D01*
X103171881Y-90872462D01*
X103171876Y-90872466D01*
X102999301Y-91045041D01*
X102999297Y-91045046D01*
X102855854Y-91242480D01*
X102745055Y-91459935D01*
X102745054Y-91459937D01*
X102745054Y-91459938D01*
X102741610Y-91470538D01*
X102669636Y-91692050D01*
X102631458Y-91933096D01*
X102631458Y-92177149D01*
X102654715Y-92323988D01*
X102645760Y-92393282D01*
X102600764Y-92446734D01*
X102534013Y-92467373D01*
X102481259Y-92455106D01*
X102480903Y-92455967D01*
X102476397Y-92454100D01*
X102270564Y-92387222D01*
X102056803Y-92353365D01*
X101840363Y-92353365D01*
X101626601Y-92387222D01*
X101420768Y-92454100D01*
X101420765Y-92454101D01*
X101227925Y-92552359D01*
X101052824Y-92679578D01*
X101052823Y-92679579D01*
X100984375Y-92748026D01*
X101740073Y-93277171D01*
X101644646Y-93332267D01*
X101552485Y-93424428D01*
X101487317Y-93537302D01*
X101453583Y-93663197D01*
X101453583Y-93686954D01*
X100696566Y-93156886D01*
X100674317Y-93200553D01*
X100607440Y-93406383D01*
X100573583Y-93620144D01*
X99753588Y-93620144D01*
X99670790Y-92783566D01*
X99670475Y-92779780D01*
X99587105Y-91538952D01*
X99586909Y-91535140D01*
X99542737Y-90292321D01*
X99542661Y-90288422D01*
X99540131Y-89650322D01*
X99537730Y-89044870D01*
X99537775Y-89041057D01*
X99572092Y-87797922D01*
X99572262Y-87794028D01*
X99577765Y-87701129D01*
X99592797Y-87447334D01*
X99615449Y-87064869D01*
X99645786Y-86552665D01*
X99646078Y-86548783D01*
X99646926Y-86539464D01*
X99758743Y-85310320D01*
X99759148Y-85306528D01*
X99910845Y-84072185D01*
X99911379Y-84068353D01*
X99914309Y-84049464D01*
X100076775Y-83001779D01*
X101205000Y-83001779D01*
X101205000Y-83218220D01*
X101238857Y-83431981D01*
X101305735Y-83637814D01*
X101305736Y-83637817D01*
X101382499Y-83788470D01*
X102090213Y-83194625D01*
X102118734Y-83301063D01*
X102183902Y-83413937D01*
X102276063Y-83506098D01*
X102388937Y-83571266D01*
X102411883Y-83577414D01*
X101702887Y-84172335D01*
X101859339Y-84286003D01*
X102052182Y-84384263D01*
X102052185Y-84384264D01*
X102258018Y-84451142D01*
X102471780Y-84485000D01*
X102688220Y-84485000D01*
X102901981Y-84451142D01*
X103107808Y-84384266D01*
X103258470Y-84307499D01*
X102664627Y-83599785D01*
X102771063Y-83571266D01*
X102883937Y-83506098D01*
X102976098Y-83413937D01*
X103041266Y-83301063D01*
X103047415Y-83278113D01*
X103642334Y-83987110D01*
X103756005Y-83830657D01*
X103854263Y-83637817D01*
X103854264Y-83637814D01*
X103921142Y-83431981D01*
X103940038Y-83312684D01*
X103969967Y-83249549D01*
X104029279Y-83212618D01*
X104099141Y-83213616D01*
X104150192Y-83244401D01*
X104160259Y-83254468D01*
X104160264Y-83254472D01*
X104224392Y-83301063D01*
X104357702Y-83397918D01*
X104575156Y-83508716D01*
X104807265Y-83584133D01*
X105048314Y-83622312D01*
X105048315Y-83622312D01*
X105292367Y-83622312D01*
X105292368Y-83622312D01*
X105533417Y-83584133D01*
X105765526Y-83508716D01*
X105982980Y-83397918D01*
X106171014Y-83261304D01*
X108919500Y-83261304D01*
X108919500Y-83438695D01*
X108954103Y-83612658D01*
X108954106Y-83612667D01*
X109021983Y-83776540D01*
X109021990Y-83776553D01*
X109120535Y-83924034D01*
X109120538Y-83924038D01*
X109245961Y-84049461D01*
X109245965Y-84049464D01*
X109393446Y-84148009D01*
X109393459Y-84148016D01*
X109516363Y-84198923D01*
X109557334Y-84215894D01*
X109557336Y-84215894D01*
X109557341Y-84215896D01*
X109731304Y-84250499D01*
X109731307Y-84250500D01*
X109731309Y-84250500D01*
X109908693Y-84250500D01*
X109908694Y-84250499D01*
X109966682Y-84238964D01*
X110082658Y-84215896D01*
X110082661Y-84215894D01*
X110082666Y-84215894D01*
X110246547Y-84148013D01*
X110394035Y-84049464D01*
X110519464Y-83924035D01*
X110618013Y-83776547D01*
X110685894Y-83612666D01*
X110706572Y-83508714D01*
X110708964Y-83496682D01*
X110720500Y-83438691D01*
X110720500Y-83261309D01*
X110720500Y-83261306D01*
X110720499Y-83261304D01*
X110685896Y-83087341D01*
X110685893Y-83087332D01*
X110618016Y-82923459D01*
X110618009Y-82923446D01*
X110519464Y-82775965D01*
X110519461Y-82775961D01*
X110394038Y-82650538D01*
X110394034Y-82650535D01*
X110246553Y-82551990D01*
X110246540Y-82551983D01*
X110082667Y-82484106D01*
X110082658Y-82484103D01*
X109908694Y-82449500D01*
X109908691Y-82449500D01*
X109731309Y-82449500D01*
X109731306Y-82449500D01*
X109557341Y-82484103D01*
X109557332Y-82484106D01*
X109393459Y-82551983D01*
X109393446Y-82551990D01*
X109245965Y-82650535D01*
X109245961Y-82650538D01*
X109120538Y-82775961D01*
X109120535Y-82775965D01*
X109021990Y-82923446D01*
X109021983Y-82923459D01*
X108954106Y-83087332D01*
X108954103Y-83087341D01*
X108919500Y-83261304D01*
X106171014Y-83261304D01*
X106180424Y-83254467D01*
X106352996Y-83081895D01*
X106496447Y-82884451D01*
X106607245Y-82666997D01*
X106682662Y-82434888D01*
X106720841Y-82193839D01*
X106720841Y-81949785D01*
X106682662Y-81708736D01*
X106607245Y-81476627D01*
X106496447Y-81259173D01*
X106478120Y-81233948D01*
X106353001Y-81061735D01*
X106352997Y-81061730D01*
X106180422Y-80889155D01*
X106180417Y-80889151D01*
X106088070Y-80822057D01*
X106045404Y-80766727D01*
X106039425Y-80697114D01*
X106072031Y-80635319D01*
X106132869Y-80600962D01*
X106141535Y-80599270D01*
X106295883Y-80574823D01*
X106335381Y-80568568D01*
X106335381Y-80568567D01*
X106335386Y-80568567D01*
X106567495Y-80493150D01*
X106784949Y-80382352D01*
X106982393Y-80238901D01*
X107154965Y-80066329D01*
X107298416Y-79868885D01*
X107409214Y-79651431D01*
X107412504Y-79641304D01*
X135299500Y-79641304D01*
X135299500Y-79818695D01*
X135334103Y-79992658D01*
X135334106Y-79992667D01*
X135401983Y-80156540D01*
X135401990Y-80156553D01*
X135500535Y-80304034D01*
X135500538Y-80304038D01*
X135625961Y-80429461D01*
X135625965Y-80429464D01*
X135773446Y-80528009D01*
X135773459Y-80528016D01*
X135849446Y-80559490D01*
X135937334Y-80595894D01*
X135937336Y-80595894D01*
X135937341Y-80595896D01*
X136111304Y-80630499D01*
X136111307Y-80630500D01*
X136111309Y-80630500D01*
X136288693Y-80630500D01*
X136288694Y-80630499D01*
X136346682Y-80618964D01*
X136462658Y-80595896D01*
X136462661Y-80595894D01*
X136462666Y-80595894D01*
X136626547Y-80528013D01*
X136774035Y-80429464D01*
X136899464Y-80304035D01*
X136998013Y-80156547D01*
X137065894Y-79992666D01*
X137100500Y-79818691D01*
X137100500Y-79641309D01*
X137100500Y-79641306D01*
X137100499Y-79641304D01*
X137065896Y-79467341D01*
X137065893Y-79467332D01*
X136998016Y-79303459D01*
X136998009Y-79303446D01*
X136899464Y-79155965D01*
X136899461Y-79155961D01*
X136774038Y-79030538D01*
X136774034Y-79030535D01*
X136626553Y-78931990D01*
X136626540Y-78931983D01*
X136462667Y-78864106D01*
X136462658Y-78864103D01*
X136288694Y-78829500D01*
X136288691Y-78829500D01*
X136111309Y-78829500D01*
X136111306Y-78829500D01*
X135937341Y-78864103D01*
X135937332Y-78864106D01*
X135773459Y-78931983D01*
X135773446Y-78931990D01*
X135625965Y-79030535D01*
X135625961Y-79030538D01*
X135500538Y-79155961D01*
X135500535Y-79155965D01*
X135401990Y-79303446D01*
X135401983Y-79303459D01*
X135334106Y-79467332D01*
X135334103Y-79467341D01*
X135299500Y-79641304D01*
X107412504Y-79641304D01*
X107484631Y-79419322D01*
X107522810Y-79178273D01*
X107522810Y-78934219D01*
X107484631Y-78693170D01*
X107409214Y-78461061D01*
X107298416Y-78243607D01*
X107222195Y-78138697D01*
X107154970Y-78046169D01*
X107154966Y-78046164D01*
X106982391Y-77873589D01*
X106982386Y-77873585D01*
X106784952Y-77730142D01*
X106784951Y-77730141D01*
X106784949Y-77730140D01*
X106567495Y-77619342D01*
X106335386Y-77543925D01*
X106335384Y-77543924D01*
X106335382Y-77543924D01*
X106167079Y-77517267D01*
X106094337Y-77505746D01*
X105850283Y-77505746D01*
X105794403Y-77514596D01*
X105609237Y-77543924D01*
X105609232Y-77543925D01*
X105538892Y-77566780D01*
X105469051Y-77568775D01*
X105409219Y-77532694D01*
X105378391Y-77469993D01*
X105382644Y-77410531D01*
X105385349Y-77402203D01*
X105401630Y-77352097D01*
X105435500Y-77138254D01*
X105435500Y-76921746D01*
X105401630Y-76707903D01*
X105368178Y-76604947D01*
X105334727Y-76501993D01*
X105334726Y-76501990D01*
X105251912Y-76339461D01*
X105236433Y-76309081D01*
X105109172Y-76133922D01*
X104956078Y-75980828D01*
X104780919Y-75853567D01*
X104777059Y-75851600D01*
X104697975Y-75811304D01*
X113659500Y-75811304D01*
X113659500Y-75988695D01*
X113694103Y-76162658D01*
X113694106Y-76162667D01*
X113761983Y-76326540D01*
X113761990Y-76326553D01*
X113860535Y-76474034D01*
X113860538Y-76474038D01*
X113985961Y-76599461D01*
X113985965Y-76599464D01*
X114133446Y-76698009D01*
X114133459Y-76698016D01*
X114256363Y-76748923D01*
X114297334Y-76765894D01*
X114297336Y-76765894D01*
X114297341Y-76765896D01*
X114471304Y-76800499D01*
X114471307Y-76800500D01*
X114471309Y-76800500D01*
X114648693Y-76800500D01*
X114648694Y-76800499D01*
X114722125Y-76785893D01*
X114822658Y-76765896D01*
X114822661Y-76765894D01*
X114822666Y-76765894D01*
X114986547Y-76698013D01*
X115134035Y-76599464D01*
X115259464Y-76474035D01*
X115345216Y-76345699D01*
X115398828Y-76300894D01*
X115468153Y-76292187D01*
X115531181Y-76322341D01*
X115551420Y-76345699D01*
X115650535Y-76494034D01*
X115650538Y-76494038D01*
X115775961Y-76619461D01*
X115775965Y-76619464D01*
X115923446Y-76718009D01*
X115923459Y-76718016D01*
X116018400Y-76757341D01*
X116087334Y-76785894D01*
X116087336Y-76785894D01*
X116087341Y-76785896D01*
X116261304Y-76820499D01*
X116261307Y-76820500D01*
X116261309Y-76820500D01*
X116438693Y-76820500D01*
X116438694Y-76820499D01*
X116496682Y-76808964D01*
X116612658Y-76785896D01*
X116612661Y-76785894D01*
X116612666Y-76785894D01*
X116776547Y-76718013D01*
X116924035Y-76619464D01*
X117049464Y-76494035D01*
X117148013Y-76346547D01*
X117215894Y-76182666D01*
X117217884Y-76172666D01*
X117250499Y-76008695D01*
X117250500Y-76008693D01*
X117250500Y-75831311D01*
X117250498Y-75831300D01*
X117248510Y-75821304D01*
X121159500Y-75821304D01*
X121159500Y-75998695D01*
X121194103Y-76172658D01*
X121194106Y-76172667D01*
X121261983Y-76336540D01*
X121261990Y-76336553D01*
X121360535Y-76484034D01*
X121360538Y-76484038D01*
X121485961Y-76609461D01*
X121485965Y-76609464D01*
X121633446Y-76708009D01*
X121633459Y-76708016D01*
X121752521Y-76757332D01*
X121797334Y-76775894D01*
X121797336Y-76775894D01*
X121797341Y-76775896D01*
X121971304Y-76810499D01*
X121971307Y-76810500D01*
X121971309Y-76810500D01*
X122148693Y-76810500D01*
X122148694Y-76810499D01*
X122220632Y-76796190D01*
X122322658Y-76775896D01*
X122322661Y-76775894D01*
X122322666Y-76775894D01*
X122486547Y-76708013D01*
X122634035Y-76609464D01*
X122759464Y-76484035D01*
X122858013Y-76336547D01*
X122925894Y-76172666D01*
X122927884Y-76162666D01*
X122960499Y-75998695D01*
X122960500Y-75998693D01*
X122960500Y-75911394D01*
X132105666Y-75911394D01*
X132105666Y-76088785D01*
X132140269Y-76262748D01*
X132140272Y-76262757D01*
X132208149Y-76426630D01*
X132208156Y-76426643D01*
X132302776Y-76568250D01*
X132323654Y-76634927D01*
X132314236Y-76684592D01*
X132284105Y-76757337D01*
X132284103Y-76757341D01*
X132249500Y-76931304D01*
X132249500Y-77108695D01*
X132284103Y-77282658D01*
X132284106Y-77282667D01*
X132351986Y-77446546D01*
X132351987Y-77446547D01*
X132364555Y-77465357D01*
X132365558Y-77466857D01*
X132386436Y-77533535D01*
X132367952Y-77600915D01*
X132365560Y-77604637D01*
X132352991Y-77623448D01*
X132352983Y-77623462D01*
X132285106Y-77787334D01*
X132285103Y-77787343D01*
X132250500Y-77961306D01*
X132250500Y-78138697D01*
X132285103Y-78312660D01*
X132285106Y-78312669D01*
X132352983Y-78476542D01*
X132352990Y-78476555D01*
X132451535Y-78624036D01*
X132451538Y-78624040D01*
X132576961Y-78749463D01*
X132576965Y-78749466D01*
X132724446Y-78848011D01*
X132724459Y-78848018D01*
X132847363Y-78898925D01*
X132888334Y-78915896D01*
X132888336Y-78915896D01*
X132888341Y-78915898D01*
X133062304Y-78950501D01*
X133062307Y-78950502D01*
X133062309Y-78950502D01*
X133239693Y-78950502D01*
X133239694Y-78950501D01*
X133332792Y-78931983D01*
X133413658Y-78915898D01*
X133413661Y-78915896D01*
X133413666Y-78915896D01*
X133577547Y-78848015D01*
X133725035Y-78749466D01*
X133850464Y-78624037D01*
X133949013Y-78476549D01*
X134016894Y-78312668D01*
X134022178Y-78286107D01*
X134051499Y-78138697D01*
X134051500Y-78138695D01*
X134051500Y-77961308D01*
X134051499Y-77961306D01*
X134016896Y-77787343D01*
X134016893Y-77787334D01*
X133949016Y-77623461D01*
X133949009Y-77623448D01*
X133935441Y-77603142D01*
X133914563Y-77536464D01*
X133933048Y-77469084D01*
X133935411Y-77465406D01*
X133948013Y-77446547D01*
X134015894Y-77282666D01*
X134050500Y-77108691D01*
X134050500Y-76931309D01*
X134050500Y-76931306D01*
X134050499Y-76931304D01*
X134015896Y-76757341D01*
X134015893Y-76757332D01*
X133948016Y-76593459D01*
X133948014Y-76593455D01*
X133948013Y-76593453D01*
X133853389Y-76451839D01*
X133832511Y-76385162D01*
X133841930Y-76335495D01*
X133845634Y-76326553D01*
X133872060Y-76262756D01*
X133906666Y-76088781D01*
X133906666Y-75911399D01*
X133906666Y-75911396D01*
X133906665Y-75911394D01*
X133872062Y-75737431D01*
X133872060Y-75737428D01*
X133872060Y-75737424D01*
X133804179Y-75573543D01*
X133789319Y-75551304D01*
X140539500Y-75551304D01*
X140539500Y-75728695D01*
X140574103Y-75902658D01*
X140574106Y-75902667D01*
X140641983Y-76066540D01*
X140641990Y-76066553D01*
X140740535Y-76214034D01*
X140740538Y-76214038D01*
X140865961Y-76339461D01*
X140865965Y-76339464D01*
X141013446Y-76438009D01*
X141013459Y-76438016D01*
X141100426Y-76474038D01*
X141177334Y-76505894D01*
X141177336Y-76505894D01*
X141177341Y-76505896D01*
X141351304Y-76540499D01*
X141351307Y-76540500D01*
X141351309Y-76540500D01*
X141528693Y-76540500D01*
X141528694Y-76540499D01*
X141586682Y-76528964D01*
X141702658Y-76505896D01*
X141702661Y-76505894D01*
X141702666Y-76505894D01*
X141866547Y-76438013D01*
X142014035Y-76339464D01*
X142139464Y-76214035D01*
X142238013Y-76066547D01*
X142305894Y-75902666D01*
X142315661Y-75853567D01*
X142340499Y-75728695D01*
X142340500Y-75728693D01*
X142340500Y-75551306D01*
X142340499Y-75551304D01*
X142305896Y-75377341D01*
X142305893Y-75377332D01*
X142295643Y-75352587D01*
X142285266Y-75327534D01*
X142238016Y-75213459D01*
X142238009Y-75213446D01*
X142139464Y-75065965D01*
X142139461Y-75065961D01*
X142014038Y-74940538D01*
X142014034Y-74940535D01*
X141866553Y-74841990D01*
X141866540Y-74841983D01*
X141702667Y-74774106D01*
X141702658Y-74774103D01*
X141528694Y-74739500D01*
X141528691Y-74739500D01*
X141351309Y-74739500D01*
X141351306Y-74739500D01*
X141177341Y-74774103D01*
X141177332Y-74774106D01*
X141013459Y-74841983D01*
X141013446Y-74841990D01*
X140865965Y-74940535D01*
X140865961Y-74940538D01*
X140740538Y-75065961D01*
X140740535Y-75065965D01*
X140641990Y-75213446D01*
X140641983Y-75213459D01*
X140574106Y-75377332D01*
X140574103Y-75377341D01*
X140539500Y-75551304D01*
X133789319Y-75551304D01*
X133744630Y-75484423D01*
X133743244Y-75482141D01*
X133734906Y-75450847D01*
X133725237Y-75419967D01*
X133725968Y-75417300D01*
X133725256Y-75414627D01*
X133735157Y-75383802D01*
X133743721Y-75352587D01*
X133745779Y-75350738D01*
X133746625Y-75348105D01*
X133771611Y-75327534D01*
X133795700Y-75305896D01*
X133798431Y-75305453D01*
X133800566Y-75303696D01*
X133832713Y-75299898D01*
X133864670Y-75294720D01*
X133868334Y-75295690D01*
X133869953Y-75295499D01*
X133872734Y-75296855D01*
X133896665Y-75303190D01*
X133927334Y-75315894D01*
X133927337Y-75315894D01*
X133927341Y-75315896D01*
X134101304Y-75350499D01*
X134101307Y-75350500D01*
X134101309Y-75350500D01*
X134278693Y-75350500D01*
X134278694Y-75350499D01*
X134351783Y-75335961D01*
X134452658Y-75315896D01*
X134452661Y-75315894D01*
X134452666Y-75315894D01*
X134609758Y-75250825D01*
X134616540Y-75248016D01*
X134616540Y-75248015D01*
X134616547Y-75248013D01*
X134764035Y-75149464D01*
X134889464Y-75024035D01*
X134988013Y-74876547D01*
X135055894Y-74712666D01*
X135069048Y-74646540D01*
X135090499Y-74538695D01*
X135090500Y-74538693D01*
X135090500Y-74361306D01*
X135090499Y-74361304D01*
X135055896Y-74187341D01*
X135055893Y-74187332D01*
X135049819Y-74172667D01*
X135049818Y-74172666D01*
X135032686Y-74131304D01*
X135669500Y-74131304D01*
X135669500Y-74308695D01*
X135704103Y-74482658D01*
X135704106Y-74482667D01*
X135771983Y-74646540D01*
X135771990Y-74646553D01*
X135870535Y-74794034D01*
X135870538Y-74794038D01*
X135995961Y-74919461D01*
X135995965Y-74919464D01*
X136143446Y-75018009D01*
X136143459Y-75018016D01*
X136230583Y-75054103D01*
X136307334Y-75085894D01*
X136307336Y-75085894D01*
X136307341Y-75085896D01*
X136481304Y-75120499D01*
X136481307Y-75120500D01*
X136481309Y-75120500D01*
X136658693Y-75120500D01*
X136658694Y-75120499D01*
X136716682Y-75108964D01*
X136832658Y-75085896D01*
X136832661Y-75085894D01*
X136832666Y-75085894D01*
X136982001Y-75024038D01*
X136996540Y-75018016D01*
X136996540Y-75018015D01*
X136996547Y-75018013D01*
X137144035Y-74919464D01*
X137269464Y-74794035D01*
X137368013Y-74646547D01*
X137435894Y-74482666D01*
X137450017Y-74411668D01*
X137470499Y-74308695D01*
X137470500Y-74308693D01*
X137470500Y-74131306D01*
X137470499Y-74131304D01*
X137435896Y-73957341D01*
X137435893Y-73957332D01*
X137368016Y-73793459D01*
X137368009Y-73793446D01*
X137269464Y-73645965D01*
X137269461Y-73645961D01*
X137144038Y-73520538D01*
X137144034Y-73520535D01*
X136996553Y-73421990D01*
X136996540Y-73421983D01*
X136832667Y-73354106D01*
X136832658Y-73354103D01*
X136658694Y-73319500D01*
X136658691Y-73319500D01*
X136481309Y-73319500D01*
X136481306Y-73319500D01*
X136307341Y-73354103D01*
X136307332Y-73354106D01*
X136143459Y-73421983D01*
X136143446Y-73421990D01*
X135995965Y-73520535D01*
X135995961Y-73520538D01*
X135870538Y-73645961D01*
X135870535Y-73645965D01*
X135771990Y-73793446D01*
X135771983Y-73793459D01*
X135704106Y-73957332D01*
X135704103Y-73957341D01*
X135669500Y-74131304D01*
X135032686Y-74131304D01*
X134988016Y-74023459D01*
X134988009Y-74023446D01*
X134889464Y-73875965D01*
X134889461Y-73875961D01*
X134764038Y-73750538D01*
X134764034Y-73750535D01*
X134616553Y-73651990D01*
X134616540Y-73651983D01*
X134452667Y-73584106D01*
X134452658Y-73584103D01*
X134278694Y-73549500D01*
X134278691Y-73549500D01*
X134101309Y-73549500D01*
X134101306Y-73549500D01*
X133927341Y-73584103D01*
X133927332Y-73584106D01*
X133763459Y-73651983D01*
X133763446Y-73651990D01*
X133615965Y-73750535D01*
X133615961Y-73750538D01*
X133490538Y-73875961D01*
X133490535Y-73875965D01*
X133391990Y-74023446D01*
X133391983Y-74023459D01*
X133324106Y-74187332D01*
X133324103Y-74187341D01*
X133289500Y-74361304D01*
X133289500Y-74538695D01*
X133324103Y-74712658D01*
X133324106Y-74712667D01*
X133391983Y-74876540D01*
X133391990Y-74876553D01*
X133450050Y-74963445D01*
X133470928Y-75030122D01*
X133452444Y-75097503D01*
X133400465Y-75144193D01*
X133331495Y-75155369D01*
X133299498Y-75146898D01*
X133268832Y-75134196D01*
X133268828Y-75134195D01*
X133268824Y-75134193D01*
X133094860Y-75099590D01*
X133094857Y-75099590D01*
X132917475Y-75099590D01*
X132917472Y-75099590D01*
X132743507Y-75134193D01*
X132743498Y-75134196D01*
X132579625Y-75202073D01*
X132579612Y-75202080D01*
X132432131Y-75300625D01*
X132432127Y-75300628D01*
X132306704Y-75426051D01*
X132306701Y-75426055D01*
X132208156Y-75573536D01*
X132208149Y-75573549D01*
X132140272Y-75737422D01*
X132140269Y-75737431D01*
X132105666Y-75911394D01*
X122960500Y-75911394D01*
X122960500Y-75821306D01*
X122960499Y-75821304D01*
X122925896Y-75647341D01*
X122925893Y-75647332D01*
X122916727Y-75625204D01*
X122886120Y-75551309D01*
X122858016Y-75483459D01*
X122858009Y-75483446D01*
X122759464Y-75335965D01*
X122759461Y-75335961D01*
X122634038Y-75210538D01*
X122634034Y-75210535D01*
X122486553Y-75111990D01*
X122486540Y-75111983D01*
X122322667Y-75044106D01*
X122322658Y-75044103D01*
X122163982Y-75012541D01*
X122163981Y-75012541D01*
X122148693Y-75009500D01*
X122148691Y-75009500D01*
X121971309Y-75009500D01*
X121971306Y-75009500D01*
X121797341Y-75044103D01*
X121797332Y-75044106D01*
X121633459Y-75111983D01*
X121633446Y-75111990D01*
X121485965Y-75210535D01*
X121485961Y-75210538D01*
X121360538Y-75335961D01*
X121360535Y-75335965D01*
X121261990Y-75483446D01*
X121261983Y-75483459D01*
X121194106Y-75647332D01*
X121194103Y-75647341D01*
X121159500Y-75821304D01*
X117248510Y-75821304D01*
X117215896Y-75657341D01*
X117215893Y-75657332D01*
X117148016Y-75493459D01*
X117148009Y-75493446D01*
X117049464Y-75345965D01*
X117049461Y-75345961D01*
X116924038Y-75220538D01*
X116924034Y-75220535D01*
X116776553Y-75121990D01*
X116776540Y-75121983D01*
X116612667Y-75054106D01*
X116612658Y-75054103D01*
X116438694Y-75019500D01*
X116438691Y-75019500D01*
X116261309Y-75019500D01*
X116261306Y-75019500D01*
X116087341Y-75054103D01*
X116087332Y-75054106D01*
X115923459Y-75121983D01*
X115923446Y-75121990D01*
X115775965Y-75220535D01*
X115775961Y-75220538D01*
X115650538Y-75345961D01*
X115564783Y-75474301D01*
X115511170Y-75519105D01*
X115441845Y-75527812D01*
X115378818Y-75497657D01*
X115358579Y-75474300D01*
X115259464Y-75325965D01*
X115259461Y-75325961D01*
X115134038Y-75200538D01*
X115134034Y-75200535D01*
X114986553Y-75101990D01*
X114986540Y-75101983D01*
X114822667Y-75034106D01*
X114822658Y-75034103D01*
X114648694Y-74999500D01*
X114648691Y-74999500D01*
X114471309Y-74999500D01*
X114471306Y-74999500D01*
X114297341Y-75034103D01*
X114297332Y-75034106D01*
X114133459Y-75101983D01*
X114133446Y-75101990D01*
X113985965Y-75200535D01*
X113985961Y-75200538D01*
X113860538Y-75325961D01*
X113860535Y-75325965D01*
X113761990Y-75473446D01*
X113761983Y-75473459D01*
X113694106Y-75637332D01*
X113694103Y-75637341D01*
X113659500Y-75811304D01*
X104697975Y-75811304D01*
X104588009Y-75755273D01*
X104588006Y-75755272D01*
X104382098Y-75688370D01*
X104275175Y-75671435D01*
X104168254Y-75654500D01*
X103951746Y-75654500D01*
X103880465Y-75665790D01*
X103737901Y-75688370D01*
X103531993Y-75755272D01*
X103531990Y-75755273D01*
X103339080Y-75853567D01*
X103259482Y-75911399D01*
X103163922Y-75980828D01*
X103163920Y-75980830D01*
X103163919Y-75980830D01*
X103010830Y-76133919D01*
X103010830Y-76133920D01*
X103010828Y-76133922D01*
X102982685Y-76172658D01*
X102883567Y-76309080D01*
X102785273Y-76501990D01*
X102785272Y-76501993D01*
X102718370Y-76707901D01*
X102684500Y-76921746D01*
X102684500Y-77138253D01*
X102718370Y-77352098D01*
X102785272Y-77558006D01*
X102785273Y-77558009D01*
X102883567Y-77750919D01*
X103010828Y-77926078D01*
X103163922Y-78079172D01*
X103339081Y-78206433D01*
X103412031Y-78243603D01*
X103531990Y-78304726D01*
X103531993Y-78304727D01*
X103556437Y-78312669D01*
X103737903Y-78371630D01*
X103951746Y-78405500D01*
X103951747Y-78405500D01*
X104168253Y-78405500D01*
X104168254Y-78405500D01*
X104374500Y-78372833D01*
X104443792Y-78381787D01*
X104497244Y-78426783D01*
X104517884Y-78493535D01*
X104511828Y-78533623D01*
X104459989Y-78693168D01*
X104459988Y-78693173D01*
X104435463Y-78848018D01*
X104421810Y-78934219D01*
X104421810Y-79178273D01*
X104459989Y-79419322D01*
X104532117Y-79641309D01*
X104535407Y-79651433D01*
X104646206Y-79868888D01*
X104789649Y-80066322D01*
X104789653Y-80066327D01*
X104962228Y-80238902D01*
X104962233Y-80238906D01*
X105054580Y-80306000D01*
X105097246Y-80361330D01*
X105103225Y-80430943D01*
X105070620Y-80492738D01*
X105009781Y-80527095D01*
X105001093Y-80528791D01*
X104807268Y-80559490D01*
X104807265Y-80559491D01*
X104588726Y-80630499D01*
X104575153Y-80634909D01*
X104357698Y-80745708D01*
X104160264Y-80889151D01*
X104160259Y-80889155D01*
X103987684Y-81061730D01*
X103987680Y-81061735D01*
X103844237Y-81259169D01*
X103733438Y-81476624D01*
X103658019Y-81708739D01*
X103620799Y-81943735D01*
X103590870Y-82006870D01*
X103531558Y-82043801D01*
X103461695Y-82042803D01*
X103425440Y-82024655D01*
X103300657Y-81933994D01*
X103107817Y-81835736D01*
X103107814Y-81835735D01*
X102901981Y-81768857D01*
X102688220Y-81735000D01*
X102471780Y-81735000D01*
X102258018Y-81768857D01*
X102052185Y-81835735D01*
X102052182Y-81835737D01*
X101901528Y-81912498D01*
X101901528Y-81912499D01*
X102495372Y-82620214D01*
X102388937Y-82648734D01*
X102276063Y-82713902D01*
X102183902Y-82806063D01*
X102118734Y-82918937D01*
X102112584Y-82941885D01*
X101517664Y-82232888D01*
X101403992Y-82389346D01*
X101305736Y-82582182D01*
X101305735Y-82582185D01*
X101238857Y-82788018D01*
X101205000Y-83001779D01*
X100076775Y-83001779D01*
X100101936Y-82839523D01*
X100102593Y-82835685D01*
X100108149Y-82806063D01*
X100331843Y-81613421D01*
X100332610Y-81609657D01*
X100600330Y-80395180D01*
X100601206Y-80391486D01*
X100907117Y-79186063D01*
X100908105Y-79182412D01*
X101251907Y-77987232D01*
X101253015Y-77983593D01*
X101634373Y-76799821D01*
X101635574Y-76796286D01*
X102054104Y-75625123D01*
X102055425Y-75621603D01*
X102340460Y-74897011D01*
X129383793Y-74897011D01*
X129383793Y-75074402D01*
X129418396Y-75248365D01*
X129418399Y-75248374D01*
X129486276Y-75412247D01*
X129486283Y-75412260D01*
X129584828Y-75559741D01*
X129584831Y-75559745D01*
X129710254Y-75685168D01*
X129710258Y-75685171D01*
X129857739Y-75783716D01*
X129857752Y-75783723D01*
X129972637Y-75831309D01*
X130021627Y-75851601D01*
X130021629Y-75851601D01*
X130021634Y-75851603D01*
X130195597Y-75886206D01*
X130195600Y-75886207D01*
X130195602Y-75886207D01*
X130372986Y-75886207D01*
X130372987Y-75886206D01*
X130430975Y-75874671D01*
X130546951Y-75851603D01*
X130546954Y-75851601D01*
X130546959Y-75851601D01*
X130644246Y-75811304D01*
X130693879Y-75790746D01*
X130710833Y-75783723D01*
X130710833Y-75783722D01*
X130710840Y-75783720D01*
X130858328Y-75685171D01*
X130983757Y-75559742D01*
X131082306Y-75412254D01*
X131150187Y-75248373D01*
X131150260Y-75248009D01*
X131177317Y-75111983D01*
X131184793Y-75074398D01*
X131184793Y-74897016D01*
X131184793Y-74897013D01*
X131184792Y-74897011D01*
X131150189Y-74723048D01*
X131150186Y-74723039D01*
X131145889Y-74712666D01*
X131118505Y-74646553D01*
X131082309Y-74559166D01*
X131082302Y-74559153D01*
X130983757Y-74411672D01*
X130983754Y-74411668D01*
X130858331Y-74286245D01*
X130858327Y-74286242D01*
X130710846Y-74187697D01*
X130710833Y-74187690D01*
X130546960Y-74119813D01*
X130546951Y-74119810D01*
X130372987Y-74085207D01*
X130372984Y-74085207D01*
X130195602Y-74085207D01*
X130195599Y-74085207D01*
X130021634Y-74119810D01*
X130021625Y-74119813D01*
X129857752Y-74187690D01*
X129857739Y-74187697D01*
X129710258Y-74286242D01*
X129710254Y-74286245D01*
X129584831Y-74411668D01*
X129584828Y-74411672D01*
X129486283Y-74559153D01*
X129486276Y-74559166D01*
X129418399Y-74723039D01*
X129418396Y-74723048D01*
X129383793Y-74897011D01*
X102340460Y-74897011D01*
X102510687Y-74464273D01*
X102512129Y-74460770D01*
X103003668Y-73318429D01*
X103005260Y-73314884D01*
X103007800Y-73309461D01*
X103296365Y-72693162D01*
X104224091Y-72693162D01*
X104224091Y-72909603D01*
X104257947Y-73123357D01*
X104257947Y-73123359D01*
X104265724Y-73147297D01*
X105104091Y-72756358D01*
X105104091Y-72866551D01*
X105137825Y-72992446D01*
X105202993Y-73105320D01*
X105295154Y-73197481D01*
X105315728Y-73209359D01*
X104479288Y-73599397D01*
X104550297Y-73697132D01*
X104550302Y-73697138D01*
X104703335Y-73850171D01*
X104878433Y-73977388D01*
X105071273Y-74075646D01*
X105071276Y-74075647D01*
X105277109Y-74142525D01*
X105490871Y-74176383D01*
X105707311Y-74176383D01*
X105921067Y-74142526D01*
X105921068Y-74142526D01*
X105945006Y-74134748D01*
X105554068Y-73296383D01*
X105664259Y-73296383D01*
X105790154Y-73262649D01*
X105903028Y-73197481D01*
X105995189Y-73105320D01*
X106007068Y-73084744D01*
X106397105Y-73921183D01*
X106397106Y-73921184D01*
X106494840Y-73850177D01*
X106647879Y-73697138D01*
X106647879Y-73697137D01*
X106775098Y-73522038D01*
X106865978Y-73343675D01*
X106913952Y-73292878D01*
X106981773Y-73276083D01*
X107047908Y-73298620D01*
X107076781Y-73327084D01*
X107187210Y-73479077D01*
X107187214Y-73479082D01*
X107359789Y-73651657D01*
X107359794Y-73651661D01*
X107495884Y-73750535D01*
X107557232Y-73795107D01*
X107774686Y-73905905D01*
X108006795Y-73981322D01*
X108247844Y-74019501D01*
X108247845Y-74019501D01*
X108491897Y-74019501D01*
X108491898Y-74019501D01*
X108732947Y-73981322D01*
X108965056Y-73905905D01*
X109182510Y-73795107D01*
X109379954Y-73651656D01*
X109552526Y-73479084D01*
X109695977Y-73281640D01*
X109806775Y-73064186D01*
X109882192Y-72832077D01*
X109920371Y-72591028D01*
X109920371Y-72521304D01*
X116139500Y-72521304D01*
X116139500Y-72698695D01*
X116174103Y-72872658D01*
X116174106Y-72872667D01*
X116241983Y-73036540D01*
X116241990Y-73036553D01*
X116340535Y-73184034D01*
X116340538Y-73184038D01*
X116465961Y-73309461D01*
X116465965Y-73309464D01*
X116613446Y-73408009D01*
X116613459Y-73408016D01*
X116736363Y-73458923D01*
X116777334Y-73475894D01*
X116777336Y-73475894D01*
X116777341Y-73475896D01*
X116951304Y-73510499D01*
X116951307Y-73510500D01*
X116951309Y-73510500D01*
X117128693Y-73510500D01*
X117128694Y-73510499D01*
X117186682Y-73498964D01*
X117302658Y-73475896D01*
X117302661Y-73475894D01*
X117302666Y-73475894D01*
X117466547Y-73408013D01*
X117614035Y-73309464D01*
X117739464Y-73184035D01*
X117838013Y-73036547D01*
X117905894Y-72872666D01*
X117907111Y-72866551D01*
X117940499Y-72698695D01*
X117940500Y-72698693D01*
X117940500Y-72521306D01*
X117940499Y-72521304D01*
X117905896Y-72347341D01*
X117905893Y-72347332D01*
X117838016Y-72183459D01*
X117838009Y-72183446D01*
X117739464Y-72035965D01*
X117739461Y-72035961D01*
X117614038Y-71910538D01*
X117614034Y-71910535D01*
X117466553Y-71811990D01*
X117466540Y-71811983D01*
X117302667Y-71744106D01*
X117302658Y-71744103D01*
X117128694Y-71709500D01*
X117128691Y-71709500D01*
X116951309Y-71709500D01*
X116951306Y-71709500D01*
X116777341Y-71744103D01*
X116777332Y-71744106D01*
X116613459Y-71811983D01*
X116613446Y-71811990D01*
X116465965Y-71910535D01*
X116465961Y-71910538D01*
X116340538Y-72035961D01*
X116340535Y-72035965D01*
X116241990Y-72183446D01*
X116241983Y-72183459D01*
X116174106Y-72347332D01*
X116174103Y-72347341D01*
X116139500Y-72521304D01*
X109920371Y-72521304D01*
X109920371Y-72346974D01*
X109882192Y-72105925D01*
X109806775Y-71873816D01*
X109695977Y-71656362D01*
X109602076Y-71527118D01*
X109552531Y-71458924D01*
X109552527Y-71458919D01*
X109379952Y-71286344D01*
X109379947Y-71286340D01*
X109182513Y-71142897D01*
X109182512Y-71142896D01*
X109182510Y-71142895D01*
X108965056Y-71032097D01*
X108732947Y-70956680D01*
X108732945Y-70956679D01*
X108732943Y-70956679D01*
X108564640Y-70930022D01*
X108491898Y-70918501D01*
X108247844Y-70918501D01*
X108191964Y-70927351D01*
X108006798Y-70956679D01*
X107774683Y-71032098D01*
X107557228Y-71142897D01*
X107359794Y-71286340D01*
X107359789Y-71286344D01*
X107187214Y-71458919D01*
X107187210Y-71458924D01*
X107043767Y-71656358D01*
X106932966Y-71873815D01*
X106912930Y-71935480D01*
X106873492Y-71993155D01*
X106809133Y-72020352D01*
X106740287Y-72008437D01*
X106694682Y-71970045D01*
X106647884Y-71905633D01*
X106647879Y-71905627D01*
X106494846Y-71752594D01*
X106319748Y-71625377D01*
X106126908Y-71527119D01*
X106126905Y-71527118D01*
X105921072Y-71460240D01*
X105707311Y-71426383D01*
X105490871Y-71426383D01*
X105277113Y-71460239D01*
X105277104Y-71460241D01*
X105253174Y-71468015D01*
X105253174Y-71468016D01*
X105644113Y-72306383D01*
X105533923Y-72306383D01*
X105408028Y-72340117D01*
X105295154Y-72405285D01*
X105202993Y-72497446D01*
X105191112Y-72518022D01*
X104801074Y-71681581D01*
X104703336Y-71752593D01*
X104550302Y-71905627D01*
X104550302Y-71905628D01*
X104423085Y-72080725D01*
X104324827Y-72273565D01*
X104324826Y-72273568D01*
X104257948Y-72479401D01*
X104224091Y-72693162D01*
X103296365Y-72693162D01*
X103532588Y-72188652D01*
X103534296Y-72185151D01*
X103535155Y-72183459D01*
X104096871Y-71076182D01*
X104098692Y-71072729D01*
X104120944Y-71032097D01*
X104696016Y-69982002D01*
X104697940Y-69978618D01*
X104789864Y-69822658D01*
X104996953Y-69471304D01*
X120299500Y-69471304D01*
X120299500Y-69648695D01*
X120334103Y-69822658D01*
X120334106Y-69822667D01*
X120401983Y-69986540D01*
X120401990Y-69986553D01*
X120500535Y-70134034D01*
X120500538Y-70134038D01*
X120625961Y-70259461D01*
X120625965Y-70259464D01*
X120773446Y-70358009D01*
X120773459Y-70358016D01*
X120896363Y-70408923D01*
X120937334Y-70425894D01*
X120937336Y-70425894D01*
X120937341Y-70425896D01*
X121111304Y-70460499D01*
X121111307Y-70460500D01*
X121111309Y-70460500D01*
X121288693Y-70460500D01*
X121288694Y-70460499D01*
X121346682Y-70448964D01*
X121462658Y-70425896D01*
X121462661Y-70425894D01*
X121462666Y-70425894D01*
X121626547Y-70358013D01*
X121774035Y-70259464D01*
X121899464Y-70134035D01*
X121998013Y-69986547D01*
X122065894Y-69822666D01*
X122100500Y-69648691D01*
X122100500Y-69471309D01*
X122100500Y-69471306D01*
X122100499Y-69471304D01*
X122073195Y-69334038D01*
X144709500Y-69334038D01*
X144709500Y-69585961D01*
X144748910Y-69834785D01*
X144826760Y-70074383D01*
X144905413Y-70228747D01*
X144921064Y-70259464D01*
X144941132Y-70298848D01*
X145089201Y-70502649D01*
X145089205Y-70502654D01*
X145267345Y-70680794D01*
X145267350Y-70680798D01*
X145445117Y-70809952D01*
X145471155Y-70828870D01*
X145614184Y-70901747D01*
X145695616Y-70943239D01*
X145695618Y-70943239D01*
X145695621Y-70943241D01*
X145935215Y-71021090D01*
X146184038Y-71060500D01*
X146184039Y-71060500D01*
X146435961Y-71060500D01*
X146435962Y-71060500D01*
X146684785Y-71021090D01*
X146924379Y-70943241D01*
X147148845Y-70828870D01*
X147352656Y-70680793D01*
X147530793Y-70502656D01*
X147678870Y-70298845D01*
X147793241Y-70074379D01*
X147871090Y-69834785D01*
X147910500Y-69585962D01*
X147910500Y-69334038D01*
X147871090Y-69085215D01*
X147793241Y-68845621D01*
X147793239Y-68845618D01*
X147793239Y-68845616D01*
X147716040Y-68694106D01*
X147678870Y-68621155D01*
X147578253Y-68482667D01*
X147530798Y-68417350D01*
X147530794Y-68417345D01*
X147352654Y-68239205D01*
X147352649Y-68239201D01*
X147148848Y-68091132D01*
X147148847Y-68091131D01*
X147148845Y-68091130D01*
X147078747Y-68055413D01*
X146924383Y-67976760D01*
X146684785Y-67898910D01*
X146648885Y-67893224D01*
X146435962Y-67859500D01*
X146184038Y-67859500D01*
X146059626Y-67879205D01*
X145935214Y-67898910D01*
X145695616Y-67976760D01*
X145471151Y-68091132D01*
X145267350Y-68239201D01*
X145267345Y-68239205D01*
X145089205Y-68417345D01*
X145089201Y-68417350D01*
X144941132Y-68621151D01*
X144826760Y-68845616D01*
X144748910Y-69085214D01*
X144709500Y-69334038D01*
X122073195Y-69334038D01*
X122065896Y-69297341D01*
X122065893Y-69297332D01*
X121998016Y-69133459D01*
X121998009Y-69133446D01*
X121899464Y-68985965D01*
X121899461Y-68985961D01*
X121774038Y-68860538D01*
X121774034Y-68860535D01*
X121626553Y-68761990D01*
X121626540Y-68761983D01*
X121462667Y-68694106D01*
X121462658Y-68694103D01*
X121288694Y-68659500D01*
X121288691Y-68659500D01*
X121111309Y-68659500D01*
X121111306Y-68659500D01*
X120937341Y-68694103D01*
X120937332Y-68694106D01*
X120773459Y-68761983D01*
X120773446Y-68761990D01*
X120625965Y-68860535D01*
X120625961Y-68860538D01*
X120500538Y-68985961D01*
X120500535Y-68985965D01*
X120401990Y-69133446D01*
X120401983Y-69133459D01*
X120334106Y-69297332D01*
X120334103Y-69297341D01*
X120299500Y-69471304D01*
X104996953Y-69471304D01*
X105329371Y-68907311D01*
X105331369Y-68904041D01*
X105820317Y-68131304D01*
X123679500Y-68131304D01*
X123679500Y-68308695D01*
X123714103Y-68482658D01*
X123714106Y-68482667D01*
X123781983Y-68646540D01*
X123781990Y-68646553D01*
X123880535Y-68794034D01*
X123880538Y-68794038D01*
X124005961Y-68919461D01*
X124005965Y-68919464D01*
X124153446Y-69018009D01*
X124153459Y-69018016D01*
X124276363Y-69068923D01*
X124317334Y-69085894D01*
X124317336Y-69085894D01*
X124317341Y-69085896D01*
X124491304Y-69120499D01*
X124491307Y-69120500D01*
X124491309Y-69120500D01*
X124668693Y-69120500D01*
X124668694Y-69120499D01*
X124726682Y-69108964D01*
X124842658Y-69085896D01*
X124842661Y-69085894D01*
X124842666Y-69085894D01*
X125006547Y-69018013D01*
X125154035Y-68919464D01*
X125279464Y-68794035D01*
X125378013Y-68646547D01*
X125445894Y-68482666D01*
X125447131Y-68476450D01*
X125480499Y-68308695D01*
X125480500Y-68308693D01*
X125480500Y-68131306D01*
X125480499Y-68131304D01*
X125445896Y-67957341D01*
X125445893Y-67957332D01*
X125378016Y-67793459D01*
X125378009Y-67793446D01*
X125279464Y-67645965D01*
X125279461Y-67645961D01*
X125154038Y-67520538D01*
X125154034Y-67520535D01*
X125006553Y-67421990D01*
X125006540Y-67421983D01*
X124842667Y-67354106D01*
X124842658Y-67354103D01*
X124668694Y-67319500D01*
X124668691Y-67319500D01*
X124491309Y-67319500D01*
X124491306Y-67319500D01*
X124317341Y-67354103D01*
X124317332Y-67354106D01*
X124153459Y-67421983D01*
X124153446Y-67421990D01*
X124005965Y-67520535D01*
X124005961Y-67520538D01*
X123880538Y-67645961D01*
X123880535Y-67645965D01*
X123781990Y-67793446D01*
X123781983Y-67793459D01*
X123714106Y-67957332D01*
X123714103Y-67957341D01*
X123679500Y-68131304D01*
X105820317Y-68131304D01*
X105996325Y-67853140D01*
X105998414Y-67849951D01*
X106696233Y-66820514D01*
X106698420Y-66817396D01*
X106710086Y-66801304D01*
X126339500Y-66801304D01*
X126339500Y-66978695D01*
X126374103Y-67152658D01*
X126374106Y-67152667D01*
X126441983Y-67316540D01*
X126441990Y-67316553D01*
X126540535Y-67464034D01*
X126540538Y-67464038D01*
X126665961Y-67589461D01*
X126665965Y-67589464D01*
X126813446Y-67688009D01*
X126813459Y-67688016D01*
X126911781Y-67728741D01*
X126977334Y-67755894D01*
X127072097Y-67774743D01*
X127134007Y-67807127D01*
X127162466Y-67848908D01*
X127221039Y-67990318D01*
X127221046Y-67990331D01*
X127319591Y-68137812D01*
X127319594Y-68137816D01*
X127445017Y-68263239D01*
X127445021Y-68263242D01*
X127592502Y-68361787D01*
X127592515Y-68361794D01*
X127690837Y-68402519D01*
X127756390Y-68429672D01*
X127828756Y-68444066D01*
X127890666Y-68476450D01*
X127925240Y-68537166D01*
X127926181Y-68541490D01*
X127934326Y-68582439D01*
X127934328Y-68582445D01*
X128002205Y-68746318D01*
X128002212Y-68746331D01*
X128100757Y-68893812D01*
X128100760Y-68893816D01*
X128226183Y-69019239D01*
X128226187Y-69019242D01*
X128373668Y-69117787D01*
X128373681Y-69117794D01*
X128496585Y-69168701D01*
X128537556Y-69185672D01*
X128537558Y-69185672D01*
X128537563Y-69185674D01*
X128711526Y-69220277D01*
X128711529Y-69220278D01*
X128711531Y-69220278D01*
X128888915Y-69220278D01*
X128888916Y-69220277D01*
X128907922Y-69216496D01*
X128952903Y-69207550D01*
X128952908Y-69207549D01*
X129013313Y-69195532D01*
X129062888Y-69185672D01*
X129226769Y-69117791D01*
X129374257Y-69019242D01*
X129499686Y-68893813D01*
X129598235Y-68746325D01*
X129666116Y-68582444D01*
X129674263Y-68541490D01*
X129698956Y-68417345D01*
X129700722Y-68408469D01*
X129700722Y-68231087D01*
X129700722Y-68231084D01*
X129700721Y-68231082D01*
X129666118Y-68057119D01*
X129666115Y-68057110D01*
X129598238Y-67893237D01*
X129598231Y-67893224D01*
X129499686Y-67745743D01*
X129499683Y-67745739D01*
X129374260Y-67620316D01*
X129374256Y-67620313D01*
X129226775Y-67521768D01*
X129226762Y-67521761D01*
X129062889Y-67453884D01*
X129062880Y-67453881D01*
X128990521Y-67439489D01*
X128928610Y-67407104D01*
X128894036Y-67346389D01*
X128893106Y-67342116D01*
X128884950Y-67301112D01*
X128823463Y-67152667D01*
X128817072Y-67137237D01*
X128817065Y-67137224D01*
X128718520Y-66989743D01*
X128718517Y-66989739D01*
X128593094Y-66864316D01*
X128593090Y-66864313D01*
X128445609Y-66765768D01*
X128445596Y-66765761D01*
X128281723Y-66697884D01*
X128281714Y-66697881D01*
X128186959Y-66679034D01*
X128125048Y-66646649D01*
X128096589Y-66604869D01*
X128038016Y-66463459D01*
X128038009Y-66463446D01*
X127939464Y-66315965D01*
X127939461Y-66315961D01*
X127814038Y-66190538D01*
X127814034Y-66190535D01*
X127666553Y-66091990D01*
X127666540Y-66091983D01*
X127502667Y-66024106D01*
X127502658Y-66024103D01*
X127328694Y-65989500D01*
X127328691Y-65989500D01*
X127151309Y-65989500D01*
X127151306Y-65989500D01*
X126977341Y-66024103D01*
X126977332Y-66024106D01*
X126813459Y-66091983D01*
X126813446Y-66091990D01*
X126665965Y-66190535D01*
X126665961Y-66190538D01*
X126540538Y-66315961D01*
X126540535Y-66315965D01*
X126441990Y-66463446D01*
X126441983Y-66463459D01*
X126374106Y-66627332D01*
X126374103Y-66627341D01*
X126339500Y-66801304D01*
X106710086Y-66801304D01*
X107428350Y-65810531D01*
X107430645Y-65807468D01*
X108191956Y-64824175D01*
X108194396Y-64821125D01*
X108348647Y-64634383D01*
X108960179Y-63894038D01*
X112319500Y-63894038D01*
X112319500Y-64145961D01*
X112358910Y-64394785D01*
X112436760Y-64634383D01*
X112551132Y-64858848D01*
X112699201Y-65062649D01*
X112699205Y-65062654D01*
X112877345Y-65240794D01*
X112877350Y-65240798D01*
X113055117Y-65369952D01*
X113081155Y-65388870D01*
X113224184Y-65461747D01*
X113305616Y-65503239D01*
X113305618Y-65503239D01*
X113305621Y-65503241D01*
X113545215Y-65581090D01*
X113794038Y-65620500D01*
X113794039Y-65620500D01*
X114045961Y-65620500D01*
X114045962Y-65620500D01*
X114294785Y-65581090D01*
X114534379Y-65503241D01*
X114758845Y-65388870D01*
X114962656Y-65240793D01*
X115140793Y-65062656D01*
X115288870Y-64858845D01*
X115403241Y-64634379D01*
X115481090Y-64394785D01*
X115520500Y-64145962D01*
X115520500Y-63894038D01*
X115481090Y-63645215D01*
X115403241Y-63405621D01*
X115403239Y-63405618D01*
X115403239Y-63405616D01*
X115361747Y-63324184D01*
X115288870Y-63181155D01*
X115269952Y-63155117D01*
X115140798Y-62977350D01*
X115140794Y-62977345D01*
X114962654Y-62799205D01*
X114962649Y-62799201D01*
X114758848Y-62651132D01*
X114758847Y-62651131D01*
X114758845Y-62651130D01*
X114688747Y-62615413D01*
X114534383Y-62536760D01*
X114294785Y-62458910D01*
X114045962Y-62419500D01*
X113794038Y-62419500D01*
X113669626Y-62439205D01*
X113545214Y-62458910D01*
X113305616Y-62536760D01*
X113081151Y-62651132D01*
X112877350Y-62799201D01*
X112877345Y-62799205D01*
X112699205Y-62977345D01*
X112699201Y-62977350D01*
X112551132Y-63181151D01*
X112436760Y-63405616D01*
X112358910Y-63645214D01*
X112319500Y-63894038D01*
X108960179Y-63894038D01*
X108986378Y-63862321D01*
X108988827Y-63859451D01*
X109810699Y-62926085D01*
X109813262Y-62923265D01*
X110664192Y-62016287D01*
X110666845Y-62013548D01*
X110799007Y-61881304D01*
X121879500Y-61881304D01*
X121879500Y-62058695D01*
X121914103Y-62232658D01*
X121914106Y-62232667D01*
X121981983Y-62396540D01*
X121981990Y-62396553D01*
X122080535Y-62544034D01*
X122080538Y-62544038D01*
X122205961Y-62669461D01*
X122205965Y-62669464D01*
X122353446Y-62768009D01*
X122353459Y-62768016D01*
X122476363Y-62818923D01*
X122517334Y-62835894D01*
X122517336Y-62835894D01*
X122517341Y-62835896D01*
X122691304Y-62870499D01*
X122691307Y-62870500D01*
X122691309Y-62870500D01*
X122868693Y-62870500D01*
X122868694Y-62870499D01*
X122926682Y-62858964D01*
X123042658Y-62835896D01*
X123042661Y-62835894D01*
X123042666Y-62835894D01*
X123206547Y-62768013D01*
X123354035Y-62669464D01*
X123479464Y-62544035D01*
X123578013Y-62396547D01*
X123645894Y-62232666D01*
X123680500Y-62058691D01*
X123680500Y-62032477D01*
X123700185Y-61965438D01*
X123752989Y-61919683D01*
X123822147Y-61909739D01*
X123885703Y-61938764D01*
X123900359Y-61953819D01*
X123900541Y-61954041D01*
X124025961Y-62079461D01*
X124025965Y-62079464D01*
X124173446Y-62178009D01*
X124173459Y-62178016D01*
X124296363Y-62228923D01*
X124337334Y-62245894D01*
X124337336Y-62245894D01*
X124337341Y-62245896D01*
X124511304Y-62280499D01*
X124511307Y-62280500D01*
X124511309Y-62280500D01*
X124688693Y-62280500D01*
X124688694Y-62280499D01*
X124746682Y-62268964D01*
X124862658Y-62245896D01*
X124862661Y-62245894D01*
X124862666Y-62245894D01*
X125026547Y-62178013D01*
X125174035Y-62079464D01*
X125299464Y-61954035D01*
X125398013Y-61806547D01*
X125465894Y-61642666D01*
X125500500Y-61468691D01*
X125500500Y-61291309D01*
X125500500Y-61291306D01*
X125500499Y-61291304D01*
X125465896Y-61117341D01*
X125465893Y-61117332D01*
X125460413Y-61104103D01*
X125446081Y-61069500D01*
X125398016Y-60953459D01*
X125398009Y-60953446D01*
X125299464Y-60805965D01*
X125299461Y-60805961D01*
X125174038Y-60680538D01*
X125174034Y-60680535D01*
X125026553Y-60581990D01*
X125026540Y-60581983D01*
X124862667Y-60514106D01*
X124862658Y-60514103D01*
X124688694Y-60479500D01*
X124688691Y-60479500D01*
X124511309Y-60479500D01*
X124511306Y-60479500D01*
X124337341Y-60514103D01*
X124337332Y-60514106D01*
X124173459Y-60581983D01*
X124173446Y-60581990D01*
X124025965Y-60680535D01*
X124025961Y-60680538D01*
X123900538Y-60805961D01*
X123900535Y-60805965D01*
X123801990Y-60953446D01*
X123801983Y-60953459D01*
X123734106Y-61117332D01*
X123734103Y-61117341D01*
X123699500Y-61291304D01*
X123699500Y-61317522D01*
X123679815Y-61384561D01*
X123627011Y-61430316D01*
X123557853Y-61440260D01*
X123494297Y-61411235D01*
X123479649Y-61396189D01*
X123479465Y-61395965D01*
X123354038Y-61270538D01*
X123354034Y-61270535D01*
X123206553Y-61171990D01*
X123206540Y-61171983D01*
X123042667Y-61104106D01*
X123042658Y-61104103D01*
X122868694Y-61069500D01*
X122868691Y-61069500D01*
X122691309Y-61069500D01*
X122691306Y-61069500D01*
X122517341Y-61104103D01*
X122517332Y-61104106D01*
X122353459Y-61171983D01*
X122353446Y-61171990D01*
X122205965Y-61270535D01*
X122205961Y-61270538D01*
X122080538Y-61395961D01*
X122080535Y-61395965D01*
X121981990Y-61543446D01*
X121981983Y-61543459D01*
X121914106Y-61707332D01*
X121914103Y-61707341D01*
X121879500Y-61881304D01*
X110799007Y-61881304D01*
X111545915Y-61133932D01*
X111548668Y-61131263D01*
X112455111Y-60279775D01*
X112457924Y-60277216D01*
X113390749Y-59454789D01*
X113393646Y-59452314D01*
X114351989Y-58659711D01*
X114354955Y-58657336D01*
X115262942Y-57953427D01*
X115327983Y-57927912D01*
X115338581Y-57927429D01*
X147028061Y-57845948D01*
X147095146Y-57865460D01*
X147141037Y-57918146D01*
X147151158Y-57987278D01*
X147122296Y-58050909D01*
X147075828Y-58084508D01*
X147003456Y-58114485D01*
X147003446Y-58114490D01*
X146855965Y-58213035D01*
X146855961Y-58213038D01*
X146730538Y-58338461D01*
X146730535Y-58338465D01*
X146631990Y-58485946D01*
X146631983Y-58485959D01*
X146564106Y-58649832D01*
X146564103Y-58649841D01*
X146529500Y-58823804D01*
X146529500Y-59001195D01*
X146564103Y-59175158D01*
X146564106Y-59175167D01*
X146631983Y-59339040D01*
X146631990Y-59339053D01*
X146730535Y-59486534D01*
X146730538Y-59486538D01*
X146855961Y-59611961D01*
X146855965Y-59611964D01*
X147003446Y-59710509D01*
X147003459Y-59710516D01*
X147126363Y-59761423D01*
X147167334Y-59778394D01*
X147167336Y-59778394D01*
X147167341Y-59778396D01*
X147341304Y-59812999D01*
X147341307Y-59813000D01*
X147341309Y-59813000D01*
X147518693Y-59813000D01*
X147518694Y-59812999D01*
X147576682Y-59801464D01*
X147692658Y-59778396D01*
X147692661Y-59778394D01*
X147692666Y-59778394D01*
X147856547Y-59710513D01*
X148004035Y-59611964D01*
X148129464Y-59486535D01*
X148228013Y-59339047D01*
X148295894Y-59175166D01*
X148330500Y-59001191D01*
X148330500Y-58823809D01*
X148330500Y-58823806D01*
X148330499Y-58823804D01*
X148295896Y-58649841D01*
X148295893Y-58649832D01*
X148228016Y-58485959D01*
X148228009Y-58485946D01*
X148129464Y-58338465D01*
X148129461Y-58338461D01*
X148004038Y-58213038D01*
X148004034Y-58213035D01*
X147856553Y-58114490D01*
X147856541Y-58114483D01*
X147779217Y-58082456D01*
X147724813Y-58038616D01*
X147702748Y-57972322D01*
X147720027Y-57904622D01*
X147771164Y-57857011D01*
X147826346Y-57843895D01*
X150385186Y-57837316D01*
X150452271Y-57856828D01*
G37*
%TD.AperFunction*%
%TD*%
M02*
