%TF.GenerationSoftware,KiCad,Pcbnew,9.0.1*%
%TF.CreationDate,2026-03-23T11:15:52+01:00*%
%TF.ProjectId,PCB_Casque,5043425f-4361-4737-9175-652e6b696361,rev?*%
%TF.SameCoordinates,Original*%
%TF.FileFunction,Paste,Top*%
%TF.FilePolarity,Positive*%
%FSLAX46Y46*%
G04 Gerber Fmt 4.6, Leading zero omitted, Abs format (unit mm)*
G04 Created by KiCad (PCBNEW 9.0.1) date 2026-03-23 11:15:52*
%MOMM*%
%LPD*%
G01*
G04 APERTURE LIST*
G04 Aperture macros list*
%AMRoundRect*
0 Rectangle with rounded corners*
0 $1 Rounding radius*
0 $2 $3 $4 $5 $6 $7 $8 $9 X,Y pos of 4 corners*
0 Add a 4 corners polygon primitive as box body*
4,1,4,$2,$3,$4,$5,$6,$7,$8,$9,$2,$3,0*
0 Add four circle primitives for the rounded corners*
1,1,$1+$1,$2,$3*
1,1,$1+$1,$4,$5*
1,1,$1+$1,$6,$7*
1,1,$1+$1,$8,$9*
0 Add four rect primitives between the rounded corners*
20,1,$1+$1,$2,$3,$4,$5,0*
20,1,$1+$1,$4,$5,$6,$7,0*
20,1,$1+$1,$6,$7,$8,$9,0*
20,1,$1+$1,$8,$9,$2,$3,0*%
%AMHorizOval*
0 Thick line with rounded ends*
0 $1 width*
0 $2 $3 position (X,Y) of the first rounded end (center of the circle)*
0 $4 $5 position (X,Y) of the second rounded end (center of the circle)*
0 Add line between two ends*
20,1,$1,$2,$3,$4,$5,0*
0 Add two circle primitives to create the rounded ends*
1,1,$1,$2,$3*
1,1,$1,$4,$5*%
%AMOutline5P*
0 Free polygon, 5 corners , with rotation*
0 The origin of the aperture is its center*
0 number of corners: always 5*
0 $1 to $10 corner X, Y*
0 $11 Rotation angle, in degrees counterclockwise*
0 create outline with 5 corners*
4,1,5,$1,$2,$3,$4,$5,$6,$7,$8,$9,$10,$1,$2,$11*%
%AMOutline6P*
0 Free polygon, 6 corners , with rotation*
0 The origin of the aperture is its center*
0 number of corners: always 6*
0 $1 to $12 corner X, Y*
0 $13 Rotation angle, in degrees counterclockwise*
0 create outline with 6 corners*
4,1,6,$1,$2,$3,$4,$5,$6,$7,$8,$9,$10,$11,$12,$1,$2,$13*%
%AMOutline7P*
0 Free polygon, 7 corners , with rotation*
0 The origin of the aperture is its center*
0 number of corners: always 7*
0 $1 to $14 corner X, Y*
0 $15 Rotation angle, in degrees counterclockwise*
0 create outline with 7 corners*
4,1,7,$1,$2,$3,$4,$5,$6,$7,$8,$9,$10,$11,$12,$13,$14,$1,$2,$15*%
%AMOutline8P*
0 Free polygon, 8 corners , with rotation*
0 The origin of the aperture is its center*
0 number of corners: always 8*
0 $1 to $16 corner X, Y*
0 $17 Rotation angle, in degrees counterclockwise*
0 create outline with 8 corners*
4,1,8,$1,$2,$3,$4,$5,$6,$7,$8,$9,$10,$11,$12,$13,$14,$15,$16,$1,$2,$17*%
G04 Aperture macros list end*
%ADD10RoundRect,0.160000X0.160000X-0.197500X0.160000X0.197500X-0.160000X0.197500X-0.160000X-0.197500X0*%
%ADD11RoundRect,0.155000X-0.212500X-0.155000X0.212500X-0.155000X0.212500X0.155000X-0.212500X0.155000X0*%
%ADD12RoundRect,0.155000X0.155000X-0.212500X0.155000X0.212500X-0.155000X0.212500X-0.155000X-0.212500X0*%
%ADD13RoundRect,0.125000X-0.125000X-0.125000X0.125000X-0.125000X0.125000X0.125000X-0.125000X0.125000X0*%
%ADD14RoundRect,0.062500X-0.350000X-0.062500X0.350000X-0.062500X0.350000X0.062500X-0.350000X0.062500X0*%
%ADD15RoundRect,0.062500X-0.062500X-0.350000X0.062500X-0.350000X0.062500X0.350000X-0.062500X0.350000X0*%
%ADD16RoundRect,0.155000X-0.155000X0.212500X-0.155000X-0.212500X0.155000X-0.212500X0.155000X0.212500X0*%
%ADD17RoundRect,0.150000X0.150000X-0.512500X0.150000X0.512500X-0.150000X0.512500X-0.150000X-0.512500X0*%
%ADD18RoundRect,0.150000X0.512500X0.150000X-0.512500X0.150000X-0.512500X-0.150000X0.512500X-0.150000X0*%
%ADD19RoundRect,0.237500X0.287500X0.237500X-0.287500X0.237500X-0.287500X-0.237500X0.287500X-0.237500X0*%
%ADD20RoundRect,0.160000X-0.160000X0.197500X-0.160000X-0.197500X0.160000X-0.197500X0.160000X0.197500X0*%
%ADD21R,0.650000X0.600000*%
%ADD22R,0.350000X0.700000*%
%ADD23RoundRect,0.155000X0.189545X-0.182356X0.115745X0.236187X-0.189545X0.182356X-0.115745X-0.236187X0*%
%ADD24RoundRect,0.237500X-0.237500X0.300000X-0.237500X-0.300000X0.237500X-0.300000X0.237500X0.300000X0*%
%ADD25R,0.800000X0.400000*%
%ADD26R,0.400000X0.800000*%
%ADD27Outline5P,-0.600000X0.204000X-0.204000X0.600000X0.600000X0.600000X0.600000X-0.600000X-0.600000X-0.600000X0.000000*%
%ADD28R,1.200000X1.200000*%
%ADD29R,0.800000X0.800000*%
%ADD30RoundRect,0.237500X-0.300000X-0.237500X0.300000X-0.237500X0.300000X0.237500X-0.300000X0.237500X0*%
%ADD31RoundRect,0.160000X0.197500X0.160000X-0.197500X0.160000X-0.197500X-0.160000X0.197500X-0.160000X0*%
%ADD32RoundRect,0.160000X-0.197500X-0.160000X0.197500X-0.160000X0.197500X0.160000X-0.197500X0.160000X0*%
%ADD33RoundRect,0.155000X0.072973X-0.252698X0.218332X0.146672X-0.072973X0.252698X-0.218332X-0.146672X0*%
%ADD34RoundRect,0.150000X-0.443061X-0.082596X-0.293061X-0.342404X0.443061X0.082596X0.293061X0.342404X0*%
%ADD35RoundRect,0.075000X-0.470513X-0.185048X-0.395513X-0.314952X0.470513X0.185048X0.395513X0.314952X0*%
%ADD36HorizOval,1.000000X-0.346410X-0.200000X0.346410X0.200000X0*%
%ADD37HorizOval,1.000000X-0.476314X-0.275000X0.476314X0.275000X0*%
%ADD38RoundRect,0.237500X0.237500X-0.300000X0.237500X0.300000X-0.237500X0.300000X-0.237500X-0.300000X0*%
G04 APERTURE END LIST*
D10*
%TO.C,R9*%
X124520000Y-66327500D03*
X124520000Y-65132500D03*
%TD*%
D11*
%TO.C,C1*%
X127142500Y-103450000D03*
X128277500Y-103450000D03*
%TD*%
%TO.C,C2*%
X127402500Y-95820000D03*
X128537500Y-95820000D03*
%TD*%
D10*
%TO.C,R8*%
X109940000Y-91747500D03*
X109940000Y-90552500D03*
%TD*%
D12*
%TO.C,C3*%
X118430000Y-118067500D03*
X118430000Y-116932500D03*
%TD*%
D13*
%TO.C,U4*%
X135392500Y-76820000D03*
X135392500Y-77440000D03*
X136012500Y-76820000D03*
X136012500Y-77440000D03*
D14*
X134265000Y-76380000D03*
X134265000Y-76880000D03*
X134265000Y-77380000D03*
X134265000Y-77880000D03*
D15*
X134952500Y-78567500D03*
X135452500Y-78567500D03*
X135952500Y-78567500D03*
X136452500Y-78567500D03*
D14*
X137140000Y-77880000D03*
X137140000Y-77380000D03*
X137140000Y-76880000D03*
X137140000Y-76380000D03*
D15*
X136452500Y-75692500D03*
X135952500Y-75692500D03*
X135452500Y-75692500D03*
X134952500Y-75692500D03*
%TD*%
D16*
%TO.C,C10*%
X129460000Y-88572500D03*
X129460000Y-89707500D03*
%TD*%
D12*
%TO.C,C14*%
X108870000Y-85697500D03*
X108870000Y-84562500D03*
%TD*%
D17*
%TO.C,U2*%
X127520000Y-100275000D03*
X128470000Y-100275000D03*
X129420000Y-100275000D03*
X129420000Y-98000000D03*
X127520000Y-98000000D03*
%TD*%
D18*
%TO.C,U1*%
X122880000Y-116440000D03*
X122880000Y-115490000D03*
X122880000Y-114540000D03*
X120605000Y-114540000D03*
X120605000Y-116440000D03*
%TD*%
D19*
%TO.C,D1*%
X120165000Y-120960000D03*
X118415000Y-120960000D03*
%TD*%
D20*
%TO.C,R5*%
X132760000Y-81252500D03*
X132760000Y-82447500D03*
%TD*%
D21*
%TO.C,SW5*%
X120985000Y-72000000D03*
X124135000Y-72000000D03*
X120985000Y-73700000D03*
X124135000Y-73700000D03*
D22*
X120835000Y-72850000D03*
X124285000Y-72850000D03*
%TD*%
D23*
%TO.C,C16*%
X107848545Y-95418878D03*
X107651455Y-94301122D03*
%TD*%
D12*
%TO.C,C17*%
X148850000Y-62567500D03*
X148850000Y-61432500D03*
%TD*%
D20*
%TO.C,R11*%
X148930000Y-58812500D03*
X148930000Y-60007500D03*
%TD*%
D24*
%TO.C,C12*%
X133560000Y-88177500D03*
X133560000Y-89902500D03*
%TD*%
D25*
%TO.C,U3*%
X126150000Y-59740000D03*
X126150000Y-60590000D03*
X126150000Y-61440000D03*
X126150000Y-62290000D03*
X126150000Y-63140000D03*
X126150000Y-63990000D03*
X126150000Y-64840000D03*
X126150000Y-65690000D03*
X126150000Y-66540000D03*
X126150000Y-67390000D03*
X126150000Y-68240000D03*
X126150000Y-69090000D03*
X126150000Y-69940000D03*
X126150000Y-70790000D03*
X126150000Y-71640000D03*
D26*
X127200000Y-72690000D03*
X128050000Y-72690000D03*
X128900000Y-72690000D03*
X129750000Y-72690000D03*
X130600000Y-72690000D03*
X131450000Y-72690000D03*
X132300000Y-72690000D03*
X133150000Y-72690000D03*
X134000000Y-72690000D03*
X134850000Y-72690000D03*
X135700000Y-72690000D03*
X136550000Y-72690000D03*
X137400000Y-72690000D03*
X138250000Y-72690000D03*
X139100000Y-72690000D03*
D25*
X140150000Y-71640000D03*
X140150000Y-70790000D03*
X140150000Y-69940000D03*
X140150000Y-69090000D03*
X140150000Y-68240000D03*
X140150000Y-67390000D03*
X140150000Y-66540000D03*
X140150000Y-65690000D03*
X140150000Y-64840000D03*
X140150000Y-63990000D03*
X140150000Y-63140000D03*
X140150000Y-62290000D03*
X140150000Y-61440000D03*
X140150000Y-60590000D03*
X140150000Y-59740000D03*
D26*
X139100000Y-58690000D03*
X138250000Y-58690000D03*
X137400000Y-58690000D03*
X136550000Y-58690000D03*
X135700000Y-58690000D03*
X134850000Y-58690000D03*
X134000000Y-58690000D03*
X133150000Y-58690000D03*
X132300000Y-58690000D03*
X131450000Y-58690000D03*
X130600000Y-58690000D03*
X129750000Y-58690000D03*
X128900000Y-58690000D03*
X128050000Y-58690000D03*
X127200000Y-58690000D03*
D27*
X131500000Y-64040000D03*
D28*
X131500000Y-65690000D03*
X131500000Y-67340000D03*
X133150000Y-64040000D03*
X133150000Y-65690000D03*
X133150000Y-67340000D03*
X134800000Y-64040000D03*
X134800000Y-65690000D03*
X134800000Y-67340000D03*
D29*
X126150000Y-58690000D03*
X126150000Y-72690000D03*
X140150000Y-72690000D03*
X140150000Y-58690000D03*
%TD*%
D11*
%TO.C,C6*%
X120642500Y-75060000D03*
X121777500Y-75060000D03*
%TD*%
D21*
%TO.C,SW3*%
X146800000Y-62030000D03*
X143650000Y-62030000D03*
X146800000Y-60330000D03*
X143650000Y-60330000D03*
D22*
X146950000Y-61180000D03*
X143500000Y-61180000D03*
%TD*%
D30*
%TO.C,C5*%
X116327500Y-74500000D03*
X118052500Y-74500000D03*
%TD*%
D31*
%TO.C,R7*%
X114317500Y-74520000D03*
X113122500Y-74520000D03*
%TD*%
D13*
%TO.C,U5*%
X138440000Y-88890000D03*
X138440000Y-89510000D03*
X139060000Y-88890000D03*
X139060000Y-89510000D03*
D14*
X137312500Y-88450000D03*
X137312500Y-88950000D03*
X137312500Y-89450000D03*
X137312500Y-89950000D03*
D15*
X138000000Y-90637500D03*
X138500000Y-90637500D03*
X139000000Y-90637500D03*
X139500000Y-90637500D03*
D14*
X140187500Y-89950000D03*
X140187500Y-89450000D03*
X140187500Y-88950000D03*
X140187500Y-88450000D03*
D15*
X139500000Y-87762500D03*
X139000000Y-87762500D03*
X138500000Y-87762500D03*
X138000000Y-87762500D03*
%TD*%
D32*
%TO.C,R10*%
X122342500Y-68980000D03*
X123537500Y-68980000D03*
%TD*%
D31*
%TO.C,R4*%
X114757500Y-116870000D03*
X113562500Y-116870000D03*
%TD*%
D12*
%TO.C,C9*%
X140290000Y-76225000D03*
X140290000Y-75090000D03*
%TD*%
D33*
%TO.C,C15*%
X109515905Y-77053276D03*
X109904095Y-75986724D03*
%TD*%
D34*
%TO.C,J1*%
X108487964Y-103339988D03*
X108887963Y-104032807D03*
D35*
X109462963Y-105028737D03*
X109962963Y-105894762D03*
X110212963Y-106327776D03*
X110712963Y-107193800D03*
D34*
X111287963Y-108189729D03*
X111687963Y-108882549D03*
X111687963Y-108882549D03*
X111287963Y-108189729D03*
D35*
X110962962Y-107626812D03*
X110462963Y-106760787D03*
X109712962Y-105461749D03*
X109212964Y-104595724D03*
D34*
X108887963Y-104032807D03*
X108487964Y-103339988D03*
D36*
X103810013Y-104747537D03*
D37*
X107429999Y-102657538D03*
D36*
X108130012Y-112229998D03*
D37*
X111750000Y-110140000D03*
%TD*%
D32*
%TO.C,R3*%
X113562500Y-114210000D03*
X114757500Y-114210000D03*
%TD*%
D38*
%TO.C,C11*%
X138670000Y-76380000D03*
X138670000Y-74655000D03*
%TD*%
D10*
%TO.C,R1*%
X109570000Y-101407500D03*
X109570000Y-100212500D03*
%TD*%
D11*
%TO.C,C4*%
X127082500Y-107500000D03*
X128217500Y-107500000D03*
%TD*%
D32*
%TO.C,R2*%
X113242500Y-104760000D03*
X114437500Y-104760000D03*
%TD*%
M02*
