%TF.GenerationSoftware,KiCad,Pcbnew,9.0.1*%
%TF.CreationDate,2026-03-23T11:16:52+01:00*%
%TF.ProjectId,PCB_Casque,5043425f-4361-4737-9175-652e6b696361,rev?*%
%TF.SameCoordinates,Original*%
%TF.FileFunction,Legend,Top*%
%TF.FilePolarity,Positive*%
%FSLAX46Y46*%
G04 Gerber Fmt 4.6, Leading zero omitted, Abs format (unit mm)*
G04 Created by KiCad (PCBNEW 9.0.1) date 2026-03-23 11:16:52*
%MOMM*%
%LPD*%
G01*
G04 APERTURE LIST*
%ADD10C,0.150000*%
%ADD11C,0.120000*%
%ADD12C,0.200000*%
G04 APERTURE END LIST*
D10*
X123934819Y-66176666D02*
X123458628Y-66509999D01*
X123934819Y-66748094D02*
X122934819Y-66748094D01*
X122934819Y-66748094D02*
X122934819Y-66367142D01*
X122934819Y-66367142D02*
X122982438Y-66271904D01*
X122982438Y-66271904D02*
X123030057Y-66224285D01*
X123030057Y-66224285D02*
X123125295Y-66176666D01*
X123125295Y-66176666D02*
X123268152Y-66176666D01*
X123268152Y-66176666D02*
X123363390Y-66224285D01*
X123363390Y-66224285D02*
X123411009Y-66271904D01*
X123411009Y-66271904D02*
X123458628Y-66367142D01*
X123458628Y-66367142D02*
X123458628Y-66748094D01*
X123934819Y-65700475D02*
X123934819Y-65509999D01*
X123934819Y-65509999D02*
X123887200Y-65414761D01*
X123887200Y-65414761D02*
X123839580Y-65367142D01*
X123839580Y-65367142D02*
X123696723Y-65271904D01*
X123696723Y-65271904D02*
X123506247Y-65224285D01*
X123506247Y-65224285D02*
X123125295Y-65224285D01*
X123125295Y-65224285D02*
X123030057Y-65271904D01*
X123030057Y-65271904D02*
X122982438Y-65319523D01*
X122982438Y-65319523D02*
X122934819Y-65414761D01*
X122934819Y-65414761D02*
X122934819Y-65605237D01*
X122934819Y-65605237D02*
X122982438Y-65700475D01*
X122982438Y-65700475D02*
X123030057Y-65748094D01*
X123030057Y-65748094D02*
X123125295Y-65795713D01*
X123125295Y-65795713D02*
X123363390Y-65795713D01*
X123363390Y-65795713D02*
X123458628Y-65748094D01*
X123458628Y-65748094D02*
X123506247Y-65700475D01*
X123506247Y-65700475D02*
X123553866Y-65605237D01*
X123553866Y-65605237D02*
X123553866Y-65414761D01*
X123553866Y-65414761D02*
X123506247Y-65319523D01*
X123506247Y-65319523D02*
X123458628Y-65271904D01*
X123458628Y-65271904D02*
X123363390Y-65224285D01*
X143766819Y-76993333D02*
X144481104Y-76993333D01*
X144481104Y-76993333D02*
X144623961Y-77040952D01*
X144623961Y-77040952D02*
X144719200Y-77136190D01*
X144719200Y-77136190D02*
X144766819Y-77279047D01*
X144766819Y-77279047D02*
X144766819Y-77374285D01*
X143766819Y-76040952D02*
X143766819Y-76517142D01*
X143766819Y-76517142D02*
X144243009Y-76564761D01*
X144243009Y-76564761D02*
X144195390Y-76517142D01*
X144195390Y-76517142D02*
X144147771Y-76421904D01*
X144147771Y-76421904D02*
X144147771Y-76183809D01*
X144147771Y-76183809D02*
X144195390Y-76088571D01*
X144195390Y-76088571D02*
X144243009Y-76040952D01*
X144243009Y-76040952D02*
X144338247Y-75993333D01*
X144338247Y-75993333D02*
X144576342Y-75993333D01*
X144576342Y-75993333D02*
X144671580Y-76040952D01*
X144671580Y-76040952D02*
X144719200Y-76088571D01*
X144719200Y-76088571D02*
X144766819Y-76183809D01*
X144766819Y-76183809D02*
X144766819Y-76421904D01*
X144766819Y-76421904D02*
X144719200Y-76517142D01*
X144719200Y-76517142D02*
X144671580Y-76564761D01*
X127543333Y-102649580D02*
X127495714Y-102697200D01*
X127495714Y-102697200D02*
X127352857Y-102744819D01*
X127352857Y-102744819D02*
X127257619Y-102744819D01*
X127257619Y-102744819D02*
X127114762Y-102697200D01*
X127114762Y-102697200D02*
X127019524Y-102601961D01*
X127019524Y-102601961D02*
X126971905Y-102506723D01*
X126971905Y-102506723D02*
X126924286Y-102316247D01*
X126924286Y-102316247D02*
X126924286Y-102173390D01*
X126924286Y-102173390D02*
X126971905Y-101982914D01*
X126971905Y-101982914D02*
X127019524Y-101887676D01*
X127019524Y-101887676D02*
X127114762Y-101792438D01*
X127114762Y-101792438D02*
X127257619Y-101744819D01*
X127257619Y-101744819D02*
X127352857Y-101744819D01*
X127352857Y-101744819D02*
X127495714Y-101792438D01*
X127495714Y-101792438D02*
X127543333Y-101840057D01*
X128495714Y-102744819D02*
X127924286Y-102744819D01*
X128210000Y-102744819D02*
X128210000Y-101744819D01*
X128210000Y-101744819D02*
X128114762Y-101887676D01*
X128114762Y-101887676D02*
X128019524Y-101982914D01*
X128019524Y-101982914D02*
X127924286Y-102030533D01*
X127803333Y-95019580D02*
X127755714Y-95067200D01*
X127755714Y-95067200D02*
X127612857Y-95114819D01*
X127612857Y-95114819D02*
X127517619Y-95114819D01*
X127517619Y-95114819D02*
X127374762Y-95067200D01*
X127374762Y-95067200D02*
X127279524Y-94971961D01*
X127279524Y-94971961D02*
X127231905Y-94876723D01*
X127231905Y-94876723D02*
X127184286Y-94686247D01*
X127184286Y-94686247D02*
X127184286Y-94543390D01*
X127184286Y-94543390D02*
X127231905Y-94352914D01*
X127231905Y-94352914D02*
X127279524Y-94257676D01*
X127279524Y-94257676D02*
X127374762Y-94162438D01*
X127374762Y-94162438D02*
X127517619Y-94114819D01*
X127517619Y-94114819D02*
X127612857Y-94114819D01*
X127612857Y-94114819D02*
X127755714Y-94162438D01*
X127755714Y-94162438D02*
X127803333Y-94210057D01*
X128184286Y-94210057D02*
X128231905Y-94162438D01*
X128231905Y-94162438D02*
X128327143Y-94114819D01*
X128327143Y-94114819D02*
X128565238Y-94114819D01*
X128565238Y-94114819D02*
X128660476Y-94162438D01*
X128660476Y-94162438D02*
X128708095Y-94210057D01*
X128708095Y-94210057D02*
X128755714Y-94305295D01*
X128755714Y-94305295D02*
X128755714Y-94400533D01*
X128755714Y-94400533D02*
X128708095Y-94543390D01*
X128708095Y-94543390D02*
X128136667Y-95114819D01*
X128136667Y-95114819D02*
X128755714Y-95114819D01*
X109224819Y-91316666D02*
X108748628Y-91649999D01*
X109224819Y-91888094D02*
X108224819Y-91888094D01*
X108224819Y-91888094D02*
X108224819Y-91507142D01*
X108224819Y-91507142D02*
X108272438Y-91411904D01*
X108272438Y-91411904D02*
X108320057Y-91364285D01*
X108320057Y-91364285D02*
X108415295Y-91316666D01*
X108415295Y-91316666D02*
X108558152Y-91316666D01*
X108558152Y-91316666D02*
X108653390Y-91364285D01*
X108653390Y-91364285D02*
X108701009Y-91411904D01*
X108701009Y-91411904D02*
X108748628Y-91507142D01*
X108748628Y-91507142D02*
X108748628Y-91888094D01*
X108653390Y-90745237D02*
X108605771Y-90840475D01*
X108605771Y-90840475D02*
X108558152Y-90888094D01*
X108558152Y-90888094D02*
X108462914Y-90935713D01*
X108462914Y-90935713D02*
X108415295Y-90935713D01*
X108415295Y-90935713D02*
X108320057Y-90888094D01*
X108320057Y-90888094D02*
X108272438Y-90840475D01*
X108272438Y-90840475D02*
X108224819Y-90745237D01*
X108224819Y-90745237D02*
X108224819Y-90554761D01*
X108224819Y-90554761D02*
X108272438Y-90459523D01*
X108272438Y-90459523D02*
X108320057Y-90411904D01*
X108320057Y-90411904D02*
X108415295Y-90364285D01*
X108415295Y-90364285D02*
X108462914Y-90364285D01*
X108462914Y-90364285D02*
X108558152Y-90411904D01*
X108558152Y-90411904D02*
X108605771Y-90459523D01*
X108605771Y-90459523D02*
X108653390Y-90554761D01*
X108653390Y-90554761D02*
X108653390Y-90745237D01*
X108653390Y-90745237D02*
X108701009Y-90840475D01*
X108701009Y-90840475D02*
X108748628Y-90888094D01*
X108748628Y-90888094D02*
X108843866Y-90935713D01*
X108843866Y-90935713D02*
X109034342Y-90935713D01*
X109034342Y-90935713D02*
X109129580Y-90888094D01*
X109129580Y-90888094D02*
X109177200Y-90840475D01*
X109177200Y-90840475D02*
X109224819Y-90745237D01*
X109224819Y-90745237D02*
X109224819Y-90554761D01*
X109224819Y-90554761D02*
X109177200Y-90459523D01*
X109177200Y-90459523D02*
X109129580Y-90411904D01*
X109129580Y-90411904D02*
X109034342Y-90364285D01*
X109034342Y-90364285D02*
X108843866Y-90364285D01*
X108843866Y-90364285D02*
X108748628Y-90411904D01*
X108748628Y-90411904D02*
X108701009Y-90459523D01*
X108701009Y-90459523D02*
X108653390Y-90554761D01*
X117629580Y-117666666D02*
X117677200Y-117714285D01*
X117677200Y-117714285D02*
X117724819Y-117857142D01*
X117724819Y-117857142D02*
X117724819Y-117952380D01*
X117724819Y-117952380D02*
X117677200Y-118095237D01*
X117677200Y-118095237D02*
X117581961Y-118190475D01*
X117581961Y-118190475D02*
X117486723Y-118238094D01*
X117486723Y-118238094D02*
X117296247Y-118285713D01*
X117296247Y-118285713D02*
X117153390Y-118285713D01*
X117153390Y-118285713D02*
X116962914Y-118238094D01*
X116962914Y-118238094D02*
X116867676Y-118190475D01*
X116867676Y-118190475D02*
X116772438Y-118095237D01*
X116772438Y-118095237D02*
X116724819Y-117952380D01*
X116724819Y-117952380D02*
X116724819Y-117857142D01*
X116724819Y-117857142D02*
X116772438Y-117714285D01*
X116772438Y-117714285D02*
X116820057Y-117666666D01*
X116724819Y-117333332D02*
X116724819Y-116714285D01*
X116724819Y-116714285D02*
X117105771Y-117047618D01*
X117105771Y-117047618D02*
X117105771Y-116904761D01*
X117105771Y-116904761D02*
X117153390Y-116809523D01*
X117153390Y-116809523D02*
X117201009Y-116761904D01*
X117201009Y-116761904D02*
X117296247Y-116714285D01*
X117296247Y-116714285D02*
X117534342Y-116714285D01*
X117534342Y-116714285D02*
X117629580Y-116761904D01*
X117629580Y-116761904D02*
X117677200Y-116809523D01*
X117677200Y-116809523D02*
X117724819Y-116904761D01*
X117724819Y-116904761D02*
X117724819Y-117190475D01*
X117724819Y-117190475D02*
X117677200Y-117285713D01*
X117677200Y-117285713D02*
X117629580Y-117333332D01*
X135718095Y-73794819D02*
X135718095Y-74604342D01*
X135718095Y-74604342D02*
X135765714Y-74699580D01*
X135765714Y-74699580D02*
X135813333Y-74747200D01*
X135813333Y-74747200D02*
X135908571Y-74794819D01*
X135908571Y-74794819D02*
X136099047Y-74794819D01*
X136099047Y-74794819D02*
X136194285Y-74747200D01*
X136194285Y-74747200D02*
X136241904Y-74699580D01*
X136241904Y-74699580D02*
X136289523Y-74604342D01*
X136289523Y-74604342D02*
X136289523Y-73794819D01*
X137194285Y-74128152D02*
X137194285Y-74794819D01*
X136956190Y-73747200D02*
X136718095Y-74461485D01*
X136718095Y-74461485D02*
X137337142Y-74461485D01*
X130979580Y-89782857D02*
X131027200Y-89830476D01*
X131027200Y-89830476D02*
X131074819Y-89973333D01*
X131074819Y-89973333D02*
X131074819Y-90068571D01*
X131074819Y-90068571D02*
X131027200Y-90211428D01*
X131027200Y-90211428D02*
X130931961Y-90306666D01*
X130931961Y-90306666D02*
X130836723Y-90354285D01*
X130836723Y-90354285D02*
X130646247Y-90401904D01*
X130646247Y-90401904D02*
X130503390Y-90401904D01*
X130503390Y-90401904D02*
X130312914Y-90354285D01*
X130312914Y-90354285D02*
X130217676Y-90306666D01*
X130217676Y-90306666D02*
X130122438Y-90211428D01*
X130122438Y-90211428D02*
X130074819Y-90068571D01*
X130074819Y-90068571D02*
X130074819Y-89973333D01*
X130074819Y-89973333D02*
X130122438Y-89830476D01*
X130122438Y-89830476D02*
X130170057Y-89782857D01*
X131074819Y-88830476D02*
X131074819Y-89401904D01*
X131074819Y-89116190D02*
X130074819Y-89116190D01*
X130074819Y-89116190D02*
X130217676Y-89211428D01*
X130217676Y-89211428D02*
X130312914Y-89306666D01*
X130312914Y-89306666D02*
X130360533Y-89401904D01*
X130074819Y-88211428D02*
X130074819Y-88116190D01*
X130074819Y-88116190D02*
X130122438Y-88020952D01*
X130122438Y-88020952D02*
X130170057Y-87973333D01*
X130170057Y-87973333D02*
X130265295Y-87925714D01*
X130265295Y-87925714D02*
X130455771Y-87878095D01*
X130455771Y-87878095D02*
X130693866Y-87878095D01*
X130693866Y-87878095D02*
X130884342Y-87925714D01*
X130884342Y-87925714D02*
X130979580Y-87973333D01*
X130979580Y-87973333D02*
X131027200Y-88020952D01*
X131027200Y-88020952D02*
X131074819Y-88116190D01*
X131074819Y-88116190D02*
X131074819Y-88211428D01*
X131074819Y-88211428D02*
X131027200Y-88306666D01*
X131027200Y-88306666D02*
X130979580Y-88354285D01*
X130979580Y-88354285D02*
X130884342Y-88401904D01*
X130884342Y-88401904D02*
X130693866Y-88449523D01*
X130693866Y-88449523D02*
X130455771Y-88449523D01*
X130455771Y-88449523D02*
X130265295Y-88401904D01*
X130265295Y-88401904D02*
X130170057Y-88354285D01*
X130170057Y-88354285D02*
X130122438Y-88306666D01*
X130122438Y-88306666D02*
X130074819Y-88211428D01*
X135858095Y-109844819D02*
X135858095Y-108844819D01*
X135858095Y-109321009D02*
X136429523Y-109321009D01*
X136429523Y-109844819D02*
X136429523Y-108844819D01*
X136858095Y-108940057D02*
X136905714Y-108892438D01*
X136905714Y-108892438D02*
X137000952Y-108844819D01*
X137000952Y-108844819D02*
X137239047Y-108844819D01*
X137239047Y-108844819D02*
X137334285Y-108892438D01*
X137334285Y-108892438D02*
X137381904Y-108940057D01*
X137381904Y-108940057D02*
X137429523Y-109035295D01*
X137429523Y-109035295D02*
X137429523Y-109130533D01*
X137429523Y-109130533D02*
X137381904Y-109273390D01*
X137381904Y-109273390D02*
X136810476Y-109844819D01*
X136810476Y-109844819D02*
X137429523Y-109844819D01*
X110789580Y-86132857D02*
X110837200Y-86180476D01*
X110837200Y-86180476D02*
X110884819Y-86323333D01*
X110884819Y-86323333D02*
X110884819Y-86418571D01*
X110884819Y-86418571D02*
X110837200Y-86561428D01*
X110837200Y-86561428D02*
X110741961Y-86656666D01*
X110741961Y-86656666D02*
X110646723Y-86704285D01*
X110646723Y-86704285D02*
X110456247Y-86751904D01*
X110456247Y-86751904D02*
X110313390Y-86751904D01*
X110313390Y-86751904D02*
X110122914Y-86704285D01*
X110122914Y-86704285D02*
X110027676Y-86656666D01*
X110027676Y-86656666D02*
X109932438Y-86561428D01*
X109932438Y-86561428D02*
X109884819Y-86418571D01*
X109884819Y-86418571D02*
X109884819Y-86323333D01*
X109884819Y-86323333D02*
X109932438Y-86180476D01*
X109932438Y-86180476D02*
X109980057Y-86132857D01*
X110884819Y-85180476D02*
X110884819Y-85751904D01*
X110884819Y-85466190D02*
X109884819Y-85466190D01*
X109884819Y-85466190D02*
X110027676Y-85561428D01*
X110027676Y-85561428D02*
X110122914Y-85656666D01*
X110122914Y-85656666D02*
X110170533Y-85751904D01*
X110218152Y-84323333D02*
X110884819Y-84323333D01*
X109837200Y-84561428D02*
X110551485Y-84799523D01*
X110551485Y-84799523D02*
X110551485Y-84180476D01*
X145548095Y-66214819D02*
X145548095Y-65214819D01*
X145548095Y-65691009D02*
X146119523Y-65691009D01*
X146119523Y-66214819D02*
X146119523Y-65214819D01*
X147119523Y-66214819D02*
X146548095Y-66214819D01*
X146833809Y-66214819D02*
X146833809Y-65214819D01*
X146833809Y-65214819D02*
X146738571Y-65357676D01*
X146738571Y-65357676D02*
X146643333Y-65452914D01*
X146643333Y-65452914D02*
X146548095Y-65500533D01*
X125524819Y-99899404D02*
X126334342Y-99899404D01*
X126334342Y-99899404D02*
X126429580Y-99851785D01*
X126429580Y-99851785D02*
X126477200Y-99804166D01*
X126477200Y-99804166D02*
X126524819Y-99708928D01*
X126524819Y-99708928D02*
X126524819Y-99518452D01*
X126524819Y-99518452D02*
X126477200Y-99423214D01*
X126477200Y-99423214D02*
X126429580Y-99375595D01*
X126429580Y-99375595D02*
X126334342Y-99327976D01*
X126334342Y-99327976D02*
X125524819Y-99327976D01*
X125620057Y-98899404D02*
X125572438Y-98851785D01*
X125572438Y-98851785D02*
X125524819Y-98756547D01*
X125524819Y-98756547D02*
X125524819Y-98518452D01*
X125524819Y-98518452D02*
X125572438Y-98423214D01*
X125572438Y-98423214D02*
X125620057Y-98375595D01*
X125620057Y-98375595D02*
X125715295Y-98327976D01*
X125715295Y-98327976D02*
X125810533Y-98327976D01*
X125810533Y-98327976D02*
X125953390Y-98375595D01*
X125953390Y-98375595D02*
X126524819Y-98947023D01*
X126524819Y-98947023D02*
X126524819Y-98327976D01*
X120980595Y-117344819D02*
X120980595Y-118154342D01*
X120980595Y-118154342D02*
X121028214Y-118249580D01*
X121028214Y-118249580D02*
X121075833Y-118297200D01*
X121075833Y-118297200D02*
X121171071Y-118344819D01*
X121171071Y-118344819D02*
X121361547Y-118344819D01*
X121361547Y-118344819D02*
X121456785Y-118297200D01*
X121456785Y-118297200D02*
X121504404Y-118249580D01*
X121504404Y-118249580D02*
X121552023Y-118154342D01*
X121552023Y-118154342D02*
X121552023Y-117344819D01*
X122552023Y-118344819D02*
X121980595Y-118344819D01*
X122266309Y-118344819D02*
X122266309Y-117344819D01*
X122266309Y-117344819D02*
X122171071Y-117487676D01*
X122171071Y-117487676D02*
X122075833Y-117582914D01*
X122075833Y-117582914D02*
X121980595Y-117630533D01*
X118551905Y-122844819D02*
X118551905Y-121844819D01*
X118551905Y-121844819D02*
X118790000Y-121844819D01*
X118790000Y-121844819D02*
X118932857Y-121892438D01*
X118932857Y-121892438D02*
X119028095Y-121987676D01*
X119028095Y-121987676D02*
X119075714Y-122082914D01*
X119075714Y-122082914D02*
X119123333Y-122273390D01*
X119123333Y-122273390D02*
X119123333Y-122416247D01*
X119123333Y-122416247D02*
X119075714Y-122606723D01*
X119075714Y-122606723D02*
X119028095Y-122701961D01*
X119028095Y-122701961D02*
X118932857Y-122797200D01*
X118932857Y-122797200D02*
X118790000Y-122844819D01*
X118790000Y-122844819D02*
X118551905Y-122844819D01*
X120075714Y-122844819D02*
X119504286Y-122844819D01*
X119790000Y-122844819D02*
X119790000Y-121844819D01*
X119790000Y-121844819D02*
X119694762Y-121987676D01*
X119694762Y-121987676D02*
X119599524Y-122082914D01*
X119599524Y-122082914D02*
X119504286Y-122130533D01*
X143766819Y-91463333D02*
X144481104Y-91463333D01*
X144481104Y-91463333D02*
X144623961Y-91510952D01*
X144623961Y-91510952D02*
X144719200Y-91606190D01*
X144719200Y-91606190D02*
X144766819Y-91749047D01*
X144766819Y-91749047D02*
X144766819Y-91844285D01*
X144100152Y-90558571D02*
X144766819Y-90558571D01*
X143719200Y-90796666D02*
X144433485Y-91034761D01*
X144433485Y-91034761D02*
X144433485Y-90415714D01*
X134384819Y-82016666D02*
X133908628Y-82349999D01*
X134384819Y-82588094D02*
X133384819Y-82588094D01*
X133384819Y-82588094D02*
X133384819Y-82207142D01*
X133384819Y-82207142D02*
X133432438Y-82111904D01*
X133432438Y-82111904D02*
X133480057Y-82064285D01*
X133480057Y-82064285D02*
X133575295Y-82016666D01*
X133575295Y-82016666D02*
X133718152Y-82016666D01*
X133718152Y-82016666D02*
X133813390Y-82064285D01*
X133813390Y-82064285D02*
X133861009Y-82111904D01*
X133861009Y-82111904D02*
X133908628Y-82207142D01*
X133908628Y-82207142D02*
X133908628Y-82588094D01*
X133384819Y-81111904D02*
X133384819Y-81588094D01*
X133384819Y-81588094D02*
X133861009Y-81635713D01*
X133861009Y-81635713D02*
X133813390Y-81588094D01*
X133813390Y-81588094D02*
X133765771Y-81492856D01*
X133765771Y-81492856D02*
X133765771Y-81254761D01*
X133765771Y-81254761D02*
X133813390Y-81159523D01*
X133813390Y-81159523D02*
X133861009Y-81111904D01*
X133861009Y-81111904D02*
X133956247Y-81064285D01*
X133956247Y-81064285D02*
X134194342Y-81064285D01*
X134194342Y-81064285D02*
X134289580Y-81111904D01*
X134289580Y-81111904D02*
X134337200Y-81159523D01*
X134337200Y-81159523D02*
X134384819Y-81254761D01*
X134384819Y-81254761D02*
X134384819Y-81492856D01*
X134384819Y-81492856D02*
X134337200Y-81588094D01*
X134337200Y-81588094D02*
X134289580Y-81635713D01*
D11*
X120406667Y-70788760D02*
X120549524Y-70836379D01*
X120549524Y-70836379D02*
X120787619Y-70836379D01*
X120787619Y-70836379D02*
X120882857Y-70788760D01*
X120882857Y-70788760D02*
X120930476Y-70741140D01*
X120930476Y-70741140D02*
X120978095Y-70645902D01*
X120978095Y-70645902D02*
X120978095Y-70550664D01*
X120978095Y-70550664D02*
X120930476Y-70455426D01*
X120930476Y-70455426D02*
X120882857Y-70407807D01*
X120882857Y-70407807D02*
X120787619Y-70360188D01*
X120787619Y-70360188D02*
X120597143Y-70312569D01*
X120597143Y-70312569D02*
X120501905Y-70264950D01*
X120501905Y-70264950D02*
X120454286Y-70217331D01*
X120454286Y-70217331D02*
X120406667Y-70122093D01*
X120406667Y-70122093D02*
X120406667Y-70026855D01*
X120406667Y-70026855D02*
X120454286Y-69931617D01*
X120454286Y-69931617D02*
X120501905Y-69883998D01*
X120501905Y-69883998D02*
X120597143Y-69836379D01*
X120597143Y-69836379D02*
X120835238Y-69836379D01*
X120835238Y-69836379D02*
X120978095Y-69883998D01*
X121311429Y-69836379D02*
X121549524Y-70836379D01*
X121549524Y-70836379D02*
X121740000Y-70122093D01*
X121740000Y-70122093D02*
X121930476Y-70836379D01*
X121930476Y-70836379D02*
X122168572Y-69836379D01*
X123025714Y-69836379D02*
X122549524Y-69836379D01*
X122549524Y-69836379D02*
X122501905Y-70312569D01*
X122501905Y-70312569D02*
X122549524Y-70264950D01*
X122549524Y-70264950D02*
X122644762Y-70217331D01*
X122644762Y-70217331D02*
X122882857Y-70217331D01*
X122882857Y-70217331D02*
X122978095Y-70264950D01*
X122978095Y-70264950D02*
X123025714Y-70312569D01*
X123025714Y-70312569D02*
X123073333Y-70407807D01*
X123073333Y-70407807D02*
X123073333Y-70645902D01*
X123073333Y-70645902D02*
X123025714Y-70741140D01*
X123025714Y-70741140D02*
X122978095Y-70788760D01*
X122978095Y-70788760D02*
X122882857Y-70836379D01*
X122882857Y-70836379D02*
X122644762Y-70836379D01*
X122644762Y-70836379D02*
X122549524Y-70788760D01*
X122549524Y-70788760D02*
X122501905Y-70741140D01*
D10*
X106162711Y-94608958D02*
X106107547Y-94570332D01*
X106107547Y-94570332D02*
X106035844Y-94437914D01*
X106035844Y-94437914D02*
X106019306Y-94344123D01*
X106019306Y-94344123D02*
X106041395Y-94195167D01*
X106041395Y-94195167D02*
X106118648Y-94084838D01*
X106118648Y-94084838D02*
X106204171Y-94021404D01*
X106204171Y-94021404D02*
X106383484Y-93941433D01*
X106383484Y-93941433D02*
X106524171Y-93916626D01*
X106524171Y-93916626D02*
X106720022Y-93930446D01*
X106720022Y-93930446D02*
X106822083Y-93960803D01*
X106822083Y-93960803D02*
X106932412Y-94038057D01*
X106932412Y-94038057D02*
X107004114Y-94170474D01*
X107004114Y-94170474D02*
X107020652Y-94264266D01*
X107020652Y-94264266D02*
X106998563Y-94413221D01*
X106998563Y-94413221D02*
X106959937Y-94468386D01*
X106234299Y-95563408D02*
X106135072Y-95000661D01*
X106184686Y-95282035D02*
X107169493Y-95108387D01*
X107169493Y-95108387D02*
X107012269Y-95039402D01*
X107012269Y-95039402D02*
X106901940Y-94962149D01*
X106901940Y-94962149D02*
X106838506Y-94876627D01*
X107367948Y-96233881D02*
X107334873Y-96046299D01*
X107334873Y-96046299D02*
X107271439Y-95960777D01*
X107271439Y-95960777D02*
X107216275Y-95922150D01*
X107216275Y-95922150D02*
X107059050Y-95853166D01*
X107059050Y-95853166D02*
X106863198Y-95839346D01*
X106863198Y-95839346D02*
X106488034Y-95905497D01*
X106488034Y-95905497D02*
X106402511Y-95968931D01*
X106402511Y-95968931D02*
X106363885Y-96024096D01*
X106363885Y-96024096D02*
X106333527Y-96126156D01*
X106333527Y-96126156D02*
X106366603Y-96313738D01*
X106366603Y-96313738D02*
X106430036Y-96399260D01*
X106430036Y-96399260D02*
X106485201Y-96437887D01*
X106485201Y-96437887D02*
X106587261Y-96468245D01*
X106587261Y-96468245D02*
X106821739Y-96426900D01*
X106821739Y-96426900D02*
X106907261Y-96363466D01*
X106907261Y-96363466D02*
X106945888Y-96308302D01*
X106945888Y-96308302D02*
X106976246Y-96206242D01*
X106976246Y-96206242D02*
X106943170Y-96018659D01*
X106943170Y-96018659D02*
X106879736Y-95933137D01*
X106879736Y-95933137D02*
X106824572Y-95894510D01*
X106824572Y-95894510D02*
X106722512Y-95864153D01*
X143766819Y-87793333D02*
X144481104Y-87793333D01*
X144481104Y-87793333D02*
X144623961Y-87840952D01*
X144623961Y-87840952D02*
X144719200Y-87936190D01*
X144719200Y-87936190D02*
X144766819Y-88079047D01*
X144766819Y-88079047D02*
X144766819Y-88174285D01*
X143766819Y-86888571D02*
X143766819Y-87079047D01*
X143766819Y-87079047D02*
X143814438Y-87174285D01*
X143814438Y-87174285D02*
X143862057Y-87221904D01*
X143862057Y-87221904D02*
X144004914Y-87317142D01*
X144004914Y-87317142D02*
X144195390Y-87364761D01*
X144195390Y-87364761D02*
X144576342Y-87364761D01*
X144576342Y-87364761D02*
X144671580Y-87317142D01*
X144671580Y-87317142D02*
X144719200Y-87269523D01*
X144719200Y-87269523D02*
X144766819Y-87174285D01*
X144766819Y-87174285D02*
X144766819Y-86983809D01*
X144766819Y-86983809D02*
X144719200Y-86888571D01*
X144719200Y-86888571D02*
X144671580Y-86840952D01*
X144671580Y-86840952D02*
X144576342Y-86793333D01*
X144576342Y-86793333D02*
X144338247Y-86793333D01*
X144338247Y-86793333D02*
X144243009Y-86840952D01*
X144243009Y-86840952D02*
X144195390Y-86888571D01*
X144195390Y-86888571D02*
X144147771Y-86983809D01*
X144147771Y-86983809D02*
X144147771Y-87174285D01*
X144147771Y-87174285D02*
X144195390Y-87269523D01*
X144195390Y-87269523D02*
X144243009Y-87317142D01*
X144243009Y-87317142D02*
X144338247Y-87364761D01*
X148317142Y-64379580D02*
X148269523Y-64427200D01*
X148269523Y-64427200D02*
X148126666Y-64474819D01*
X148126666Y-64474819D02*
X148031428Y-64474819D01*
X148031428Y-64474819D02*
X147888571Y-64427200D01*
X147888571Y-64427200D02*
X147793333Y-64331961D01*
X147793333Y-64331961D02*
X147745714Y-64236723D01*
X147745714Y-64236723D02*
X147698095Y-64046247D01*
X147698095Y-64046247D02*
X147698095Y-63903390D01*
X147698095Y-63903390D02*
X147745714Y-63712914D01*
X147745714Y-63712914D02*
X147793333Y-63617676D01*
X147793333Y-63617676D02*
X147888571Y-63522438D01*
X147888571Y-63522438D02*
X148031428Y-63474819D01*
X148031428Y-63474819D02*
X148126666Y-63474819D01*
X148126666Y-63474819D02*
X148269523Y-63522438D01*
X148269523Y-63522438D02*
X148317142Y-63570057D01*
X149269523Y-64474819D02*
X148698095Y-64474819D01*
X148983809Y-64474819D02*
X148983809Y-63474819D01*
X148983809Y-63474819D02*
X148888571Y-63617676D01*
X148888571Y-63617676D02*
X148793333Y-63712914D01*
X148793333Y-63712914D02*
X148698095Y-63760533D01*
X149602857Y-63474819D02*
X150269523Y-63474819D01*
X150269523Y-63474819D02*
X149840952Y-64474819D01*
X150554819Y-60052857D02*
X150078628Y-60386190D01*
X150554819Y-60624285D02*
X149554819Y-60624285D01*
X149554819Y-60624285D02*
X149554819Y-60243333D01*
X149554819Y-60243333D02*
X149602438Y-60148095D01*
X149602438Y-60148095D02*
X149650057Y-60100476D01*
X149650057Y-60100476D02*
X149745295Y-60052857D01*
X149745295Y-60052857D02*
X149888152Y-60052857D01*
X149888152Y-60052857D02*
X149983390Y-60100476D01*
X149983390Y-60100476D02*
X150031009Y-60148095D01*
X150031009Y-60148095D02*
X150078628Y-60243333D01*
X150078628Y-60243333D02*
X150078628Y-60624285D01*
X150554819Y-59100476D02*
X150554819Y-59671904D01*
X150554819Y-59386190D02*
X149554819Y-59386190D01*
X149554819Y-59386190D02*
X149697676Y-59481428D01*
X149697676Y-59481428D02*
X149792914Y-59576666D01*
X149792914Y-59576666D02*
X149840533Y-59671904D01*
X150554819Y-58148095D02*
X150554819Y-58719523D01*
X150554819Y-58433809D02*
X149554819Y-58433809D01*
X149554819Y-58433809D02*
X149697676Y-58529047D01*
X149697676Y-58529047D02*
X149792914Y-58624285D01*
X149792914Y-58624285D02*
X149840533Y-58719523D01*
X135349580Y-89682857D02*
X135397200Y-89730476D01*
X135397200Y-89730476D02*
X135444819Y-89873333D01*
X135444819Y-89873333D02*
X135444819Y-89968571D01*
X135444819Y-89968571D02*
X135397200Y-90111428D01*
X135397200Y-90111428D02*
X135301961Y-90206666D01*
X135301961Y-90206666D02*
X135206723Y-90254285D01*
X135206723Y-90254285D02*
X135016247Y-90301904D01*
X135016247Y-90301904D02*
X134873390Y-90301904D01*
X134873390Y-90301904D02*
X134682914Y-90254285D01*
X134682914Y-90254285D02*
X134587676Y-90206666D01*
X134587676Y-90206666D02*
X134492438Y-90111428D01*
X134492438Y-90111428D02*
X134444819Y-89968571D01*
X134444819Y-89968571D02*
X134444819Y-89873333D01*
X134444819Y-89873333D02*
X134492438Y-89730476D01*
X134492438Y-89730476D02*
X134540057Y-89682857D01*
X135444819Y-88730476D02*
X135444819Y-89301904D01*
X135444819Y-89016190D02*
X134444819Y-89016190D01*
X134444819Y-89016190D02*
X134587676Y-89111428D01*
X134587676Y-89111428D02*
X134682914Y-89206666D01*
X134682914Y-89206666D02*
X134730533Y-89301904D01*
X134540057Y-88349523D02*
X134492438Y-88301904D01*
X134492438Y-88301904D02*
X134444819Y-88206666D01*
X134444819Y-88206666D02*
X134444819Y-87968571D01*
X134444819Y-87968571D02*
X134492438Y-87873333D01*
X134492438Y-87873333D02*
X134540057Y-87825714D01*
X134540057Y-87825714D02*
X134635295Y-87778095D01*
X134635295Y-87778095D02*
X134730533Y-87778095D01*
X134730533Y-87778095D02*
X134873390Y-87825714D01*
X134873390Y-87825714D02*
X135444819Y-88397142D01*
X135444819Y-88397142D02*
X135444819Y-87778095D01*
X126438095Y-74444819D02*
X126438095Y-75254342D01*
X126438095Y-75254342D02*
X126485714Y-75349580D01*
X126485714Y-75349580D02*
X126533333Y-75397200D01*
X126533333Y-75397200D02*
X126628571Y-75444819D01*
X126628571Y-75444819D02*
X126819047Y-75444819D01*
X126819047Y-75444819D02*
X126914285Y-75397200D01*
X126914285Y-75397200D02*
X126961904Y-75349580D01*
X126961904Y-75349580D02*
X127009523Y-75254342D01*
X127009523Y-75254342D02*
X127009523Y-74444819D01*
X127390476Y-74444819D02*
X128009523Y-74444819D01*
X128009523Y-74444819D02*
X127676190Y-74825771D01*
X127676190Y-74825771D02*
X127819047Y-74825771D01*
X127819047Y-74825771D02*
X127914285Y-74873390D01*
X127914285Y-74873390D02*
X127961904Y-74921009D01*
X127961904Y-74921009D02*
X128009523Y-75016247D01*
X128009523Y-75016247D02*
X128009523Y-75254342D01*
X128009523Y-75254342D02*
X127961904Y-75349580D01*
X127961904Y-75349580D02*
X127914285Y-75397200D01*
X127914285Y-75397200D02*
X127819047Y-75444819D01*
X127819047Y-75444819D02*
X127533333Y-75444819D01*
X127533333Y-75444819D02*
X127438095Y-75397200D01*
X127438095Y-75397200D02*
X127390476Y-75349580D01*
X120483333Y-76589580D02*
X120435714Y-76637200D01*
X120435714Y-76637200D02*
X120292857Y-76684819D01*
X120292857Y-76684819D02*
X120197619Y-76684819D01*
X120197619Y-76684819D02*
X120054762Y-76637200D01*
X120054762Y-76637200D02*
X119959524Y-76541961D01*
X119959524Y-76541961D02*
X119911905Y-76446723D01*
X119911905Y-76446723D02*
X119864286Y-76256247D01*
X119864286Y-76256247D02*
X119864286Y-76113390D01*
X119864286Y-76113390D02*
X119911905Y-75922914D01*
X119911905Y-75922914D02*
X119959524Y-75827676D01*
X119959524Y-75827676D02*
X120054762Y-75732438D01*
X120054762Y-75732438D02*
X120197619Y-75684819D01*
X120197619Y-75684819D02*
X120292857Y-75684819D01*
X120292857Y-75684819D02*
X120435714Y-75732438D01*
X120435714Y-75732438D02*
X120483333Y-75780057D01*
X121340476Y-75684819D02*
X121150000Y-75684819D01*
X121150000Y-75684819D02*
X121054762Y-75732438D01*
X121054762Y-75732438D02*
X121007143Y-75780057D01*
X121007143Y-75780057D02*
X120911905Y-75922914D01*
X120911905Y-75922914D02*
X120864286Y-76113390D01*
X120864286Y-76113390D02*
X120864286Y-76494342D01*
X120864286Y-76494342D02*
X120911905Y-76589580D01*
X120911905Y-76589580D02*
X120959524Y-76637200D01*
X120959524Y-76637200D02*
X121054762Y-76684819D01*
X121054762Y-76684819D02*
X121245238Y-76684819D01*
X121245238Y-76684819D02*
X121340476Y-76637200D01*
X121340476Y-76637200D02*
X121388095Y-76589580D01*
X121388095Y-76589580D02*
X121435714Y-76494342D01*
X121435714Y-76494342D02*
X121435714Y-76256247D01*
X121435714Y-76256247D02*
X121388095Y-76161009D01*
X121388095Y-76161009D02*
X121340476Y-76113390D01*
X121340476Y-76113390D02*
X121245238Y-76065771D01*
X121245238Y-76065771D02*
X121054762Y-76065771D01*
X121054762Y-76065771D02*
X120959524Y-76113390D01*
X120959524Y-76113390D02*
X120911905Y-76161009D01*
X120911905Y-76161009D02*
X120864286Y-76256247D01*
D11*
X143991667Y-63793560D02*
X144134524Y-63841179D01*
X144134524Y-63841179D02*
X144372619Y-63841179D01*
X144372619Y-63841179D02*
X144467857Y-63793560D01*
X144467857Y-63793560D02*
X144515476Y-63745940D01*
X144515476Y-63745940D02*
X144563095Y-63650702D01*
X144563095Y-63650702D02*
X144563095Y-63555464D01*
X144563095Y-63555464D02*
X144515476Y-63460226D01*
X144515476Y-63460226D02*
X144467857Y-63412607D01*
X144467857Y-63412607D02*
X144372619Y-63364988D01*
X144372619Y-63364988D02*
X144182143Y-63317369D01*
X144182143Y-63317369D02*
X144086905Y-63269750D01*
X144086905Y-63269750D02*
X144039286Y-63222131D01*
X144039286Y-63222131D02*
X143991667Y-63126893D01*
X143991667Y-63126893D02*
X143991667Y-63031655D01*
X143991667Y-63031655D02*
X144039286Y-62936417D01*
X144039286Y-62936417D02*
X144086905Y-62888798D01*
X144086905Y-62888798D02*
X144182143Y-62841179D01*
X144182143Y-62841179D02*
X144420238Y-62841179D01*
X144420238Y-62841179D02*
X144563095Y-62888798D01*
X144896429Y-62841179D02*
X145134524Y-63841179D01*
X145134524Y-63841179D02*
X145325000Y-63126893D01*
X145325000Y-63126893D02*
X145515476Y-63841179D01*
X145515476Y-63841179D02*
X145753572Y-62841179D01*
X146039286Y-62841179D02*
X146658333Y-62841179D01*
X146658333Y-62841179D02*
X146325000Y-63222131D01*
X146325000Y-63222131D02*
X146467857Y-63222131D01*
X146467857Y-63222131D02*
X146563095Y-63269750D01*
X146563095Y-63269750D02*
X146610714Y-63317369D01*
X146610714Y-63317369D02*
X146658333Y-63412607D01*
X146658333Y-63412607D02*
X146658333Y-63650702D01*
X146658333Y-63650702D02*
X146610714Y-63745940D01*
X146610714Y-63745940D02*
X146563095Y-63793560D01*
X146563095Y-63793560D02*
X146467857Y-63841179D01*
X146467857Y-63841179D02*
X146182143Y-63841179D01*
X146182143Y-63841179D02*
X146086905Y-63793560D01*
X146086905Y-63793560D02*
X146039286Y-63745940D01*
D10*
X117023333Y-73429580D02*
X116975714Y-73477200D01*
X116975714Y-73477200D02*
X116832857Y-73524819D01*
X116832857Y-73524819D02*
X116737619Y-73524819D01*
X116737619Y-73524819D02*
X116594762Y-73477200D01*
X116594762Y-73477200D02*
X116499524Y-73381961D01*
X116499524Y-73381961D02*
X116451905Y-73286723D01*
X116451905Y-73286723D02*
X116404286Y-73096247D01*
X116404286Y-73096247D02*
X116404286Y-72953390D01*
X116404286Y-72953390D02*
X116451905Y-72762914D01*
X116451905Y-72762914D02*
X116499524Y-72667676D01*
X116499524Y-72667676D02*
X116594762Y-72572438D01*
X116594762Y-72572438D02*
X116737619Y-72524819D01*
X116737619Y-72524819D02*
X116832857Y-72524819D01*
X116832857Y-72524819D02*
X116975714Y-72572438D01*
X116975714Y-72572438D02*
X117023333Y-72620057D01*
X117928095Y-72524819D02*
X117451905Y-72524819D01*
X117451905Y-72524819D02*
X117404286Y-73001009D01*
X117404286Y-73001009D02*
X117451905Y-72953390D01*
X117451905Y-72953390D02*
X117547143Y-72905771D01*
X117547143Y-72905771D02*
X117785238Y-72905771D01*
X117785238Y-72905771D02*
X117880476Y-72953390D01*
X117880476Y-72953390D02*
X117928095Y-73001009D01*
X117928095Y-73001009D02*
X117975714Y-73096247D01*
X117975714Y-73096247D02*
X117975714Y-73334342D01*
X117975714Y-73334342D02*
X117928095Y-73429580D01*
X117928095Y-73429580D02*
X117880476Y-73477200D01*
X117880476Y-73477200D02*
X117785238Y-73524819D01*
X117785238Y-73524819D02*
X117547143Y-73524819D01*
X117547143Y-73524819D02*
X117451905Y-73477200D01*
X117451905Y-73477200D02*
X117404286Y-73429580D01*
X113553333Y-76144819D02*
X113220000Y-75668628D01*
X112981905Y-76144819D02*
X112981905Y-75144819D01*
X112981905Y-75144819D02*
X113362857Y-75144819D01*
X113362857Y-75144819D02*
X113458095Y-75192438D01*
X113458095Y-75192438D02*
X113505714Y-75240057D01*
X113505714Y-75240057D02*
X113553333Y-75335295D01*
X113553333Y-75335295D02*
X113553333Y-75478152D01*
X113553333Y-75478152D02*
X113505714Y-75573390D01*
X113505714Y-75573390D02*
X113458095Y-75621009D01*
X113458095Y-75621009D02*
X113362857Y-75668628D01*
X113362857Y-75668628D02*
X112981905Y-75668628D01*
X113886667Y-75144819D02*
X114553333Y-75144819D01*
X114553333Y-75144819D02*
X114124762Y-76144819D01*
X137988095Y-85854819D02*
X137988095Y-86664342D01*
X137988095Y-86664342D02*
X138035714Y-86759580D01*
X138035714Y-86759580D02*
X138083333Y-86807200D01*
X138083333Y-86807200D02*
X138178571Y-86854819D01*
X138178571Y-86854819D02*
X138369047Y-86854819D01*
X138369047Y-86854819D02*
X138464285Y-86807200D01*
X138464285Y-86807200D02*
X138511904Y-86759580D01*
X138511904Y-86759580D02*
X138559523Y-86664342D01*
X138559523Y-86664342D02*
X138559523Y-85854819D01*
X139511904Y-85854819D02*
X139035714Y-85854819D01*
X139035714Y-85854819D02*
X138988095Y-86331009D01*
X138988095Y-86331009D02*
X139035714Y-86283390D01*
X139035714Y-86283390D02*
X139130952Y-86235771D01*
X139130952Y-86235771D02*
X139369047Y-86235771D01*
X139369047Y-86235771D02*
X139464285Y-86283390D01*
X139464285Y-86283390D02*
X139511904Y-86331009D01*
X139511904Y-86331009D02*
X139559523Y-86426247D01*
X139559523Y-86426247D02*
X139559523Y-86664342D01*
X139559523Y-86664342D02*
X139511904Y-86759580D01*
X139511904Y-86759580D02*
X139464285Y-86807200D01*
X139464285Y-86807200D02*
X139369047Y-86854819D01*
X139369047Y-86854819D02*
X139130952Y-86854819D01*
X139130952Y-86854819D02*
X139035714Y-86807200D01*
X139035714Y-86807200D02*
X138988095Y-86759580D01*
X121979642Y-68124819D02*
X121646309Y-67648628D01*
X121408214Y-68124819D02*
X121408214Y-67124819D01*
X121408214Y-67124819D02*
X121789166Y-67124819D01*
X121789166Y-67124819D02*
X121884404Y-67172438D01*
X121884404Y-67172438D02*
X121932023Y-67220057D01*
X121932023Y-67220057D02*
X121979642Y-67315295D01*
X121979642Y-67315295D02*
X121979642Y-67458152D01*
X121979642Y-67458152D02*
X121932023Y-67553390D01*
X121932023Y-67553390D02*
X121884404Y-67601009D01*
X121884404Y-67601009D02*
X121789166Y-67648628D01*
X121789166Y-67648628D02*
X121408214Y-67648628D01*
X122932023Y-68124819D02*
X122360595Y-68124819D01*
X122646309Y-68124819D02*
X122646309Y-67124819D01*
X122646309Y-67124819D02*
X122551071Y-67267676D01*
X122551071Y-67267676D02*
X122455833Y-67362914D01*
X122455833Y-67362914D02*
X122360595Y-67410533D01*
X123551071Y-67124819D02*
X123646309Y-67124819D01*
X123646309Y-67124819D02*
X123741547Y-67172438D01*
X123741547Y-67172438D02*
X123789166Y-67220057D01*
X123789166Y-67220057D02*
X123836785Y-67315295D01*
X123836785Y-67315295D02*
X123884404Y-67505771D01*
X123884404Y-67505771D02*
X123884404Y-67743866D01*
X123884404Y-67743866D02*
X123836785Y-67934342D01*
X123836785Y-67934342D02*
X123789166Y-68029580D01*
X123789166Y-68029580D02*
X123741547Y-68077200D01*
X123741547Y-68077200D02*
X123646309Y-68124819D01*
X123646309Y-68124819D02*
X123551071Y-68124819D01*
X123551071Y-68124819D02*
X123455833Y-68077200D01*
X123455833Y-68077200D02*
X123408214Y-68029580D01*
X123408214Y-68029580D02*
X123360595Y-67934342D01*
X123360595Y-67934342D02*
X123312976Y-67743866D01*
X123312976Y-67743866D02*
X123312976Y-67505771D01*
X123312976Y-67505771D02*
X123360595Y-67315295D01*
X123360595Y-67315295D02*
X123408214Y-67220057D01*
X123408214Y-67220057D02*
X123455833Y-67172438D01*
X123455833Y-67172438D02*
X123551071Y-67124819D01*
X114183333Y-116084819D02*
X113850000Y-115608628D01*
X113611905Y-116084819D02*
X113611905Y-115084819D01*
X113611905Y-115084819D02*
X113992857Y-115084819D01*
X113992857Y-115084819D02*
X114088095Y-115132438D01*
X114088095Y-115132438D02*
X114135714Y-115180057D01*
X114135714Y-115180057D02*
X114183333Y-115275295D01*
X114183333Y-115275295D02*
X114183333Y-115418152D01*
X114183333Y-115418152D02*
X114135714Y-115513390D01*
X114135714Y-115513390D02*
X114088095Y-115561009D01*
X114088095Y-115561009D02*
X113992857Y-115608628D01*
X113992857Y-115608628D02*
X113611905Y-115608628D01*
X115040476Y-115418152D02*
X115040476Y-116084819D01*
X114802381Y-115037200D02*
X114564286Y-115751485D01*
X114564286Y-115751485D02*
X115183333Y-115751485D01*
X142059580Y-75896666D02*
X142107200Y-75944285D01*
X142107200Y-75944285D02*
X142154819Y-76087142D01*
X142154819Y-76087142D02*
X142154819Y-76182380D01*
X142154819Y-76182380D02*
X142107200Y-76325237D01*
X142107200Y-76325237D02*
X142011961Y-76420475D01*
X142011961Y-76420475D02*
X141916723Y-76468094D01*
X141916723Y-76468094D02*
X141726247Y-76515713D01*
X141726247Y-76515713D02*
X141583390Y-76515713D01*
X141583390Y-76515713D02*
X141392914Y-76468094D01*
X141392914Y-76468094D02*
X141297676Y-76420475D01*
X141297676Y-76420475D02*
X141202438Y-76325237D01*
X141202438Y-76325237D02*
X141154819Y-76182380D01*
X141154819Y-76182380D02*
X141154819Y-76087142D01*
X141154819Y-76087142D02*
X141202438Y-75944285D01*
X141202438Y-75944285D02*
X141250057Y-75896666D01*
X142154819Y-75420475D02*
X142154819Y-75229999D01*
X142154819Y-75229999D02*
X142107200Y-75134761D01*
X142107200Y-75134761D02*
X142059580Y-75087142D01*
X142059580Y-75087142D02*
X141916723Y-74991904D01*
X141916723Y-74991904D02*
X141726247Y-74944285D01*
X141726247Y-74944285D02*
X141345295Y-74944285D01*
X141345295Y-74944285D02*
X141250057Y-74991904D01*
X141250057Y-74991904D02*
X141202438Y-75039523D01*
X141202438Y-75039523D02*
X141154819Y-75134761D01*
X141154819Y-75134761D02*
X141154819Y-75325237D01*
X141154819Y-75325237D02*
X141202438Y-75420475D01*
X141202438Y-75420475D02*
X141250057Y-75468094D01*
X141250057Y-75468094D02*
X141345295Y-75515713D01*
X141345295Y-75515713D02*
X141583390Y-75515713D01*
X141583390Y-75515713D02*
X141678628Y-75468094D01*
X141678628Y-75468094D02*
X141726247Y-75420475D01*
X141726247Y-75420475D02*
X141773866Y-75325237D01*
X141773866Y-75325237D02*
X141773866Y-75134761D01*
X141773866Y-75134761D02*
X141726247Y-75039523D01*
X141726247Y-75039523D02*
X141678628Y-74991904D01*
X141678628Y-74991904D02*
X141583390Y-74944285D01*
X119718095Y-92284819D02*
X119718095Y-91284819D01*
X119718095Y-91761009D02*
X120289523Y-91761009D01*
X120289523Y-92284819D02*
X120289523Y-91284819D01*
X120670476Y-91284819D02*
X121289523Y-91284819D01*
X121289523Y-91284819D02*
X120956190Y-91665771D01*
X120956190Y-91665771D02*
X121099047Y-91665771D01*
X121099047Y-91665771D02*
X121194285Y-91713390D01*
X121194285Y-91713390D02*
X121241904Y-91761009D01*
X121241904Y-91761009D02*
X121289523Y-91856247D01*
X121289523Y-91856247D02*
X121289523Y-92094342D01*
X121289523Y-92094342D02*
X121241904Y-92189580D01*
X121241904Y-92189580D02*
X121194285Y-92237200D01*
X121194285Y-92237200D02*
X121099047Y-92284819D01*
X121099047Y-92284819D02*
X120813333Y-92284819D01*
X120813333Y-92284819D02*
X120718095Y-92237200D01*
X120718095Y-92237200D02*
X120670476Y-92189580D01*
X111568025Y-73337072D02*
X111596486Y-73398106D01*
X111596486Y-73398106D02*
X111592373Y-73548634D01*
X111592373Y-73548634D02*
X111559799Y-73638129D01*
X111559799Y-73638129D02*
X111466192Y-73756084D01*
X111466192Y-73756084D02*
X111344124Y-73813005D01*
X111344124Y-73813005D02*
X111238343Y-73825179D01*
X111238343Y-73825179D02*
X111043067Y-73804779D01*
X111043067Y-73804779D02*
X110908826Y-73755919D01*
X110908826Y-73755919D02*
X110746123Y-73646025D01*
X110746123Y-73646025D02*
X110672915Y-73568705D01*
X110672915Y-73568705D02*
X110615994Y-73446637D01*
X110615994Y-73446637D02*
X110620107Y-73296108D01*
X110620107Y-73296108D02*
X110652680Y-73206614D01*
X110652680Y-73206614D02*
X110746287Y-73088659D01*
X110746287Y-73088659D02*
X110807321Y-73060198D01*
X111983253Y-72474700D02*
X111787813Y-73011667D01*
X111885533Y-72743183D02*
X110945840Y-72401163D01*
X110945840Y-72401163D02*
X111047509Y-72539518D01*
X111047509Y-72539518D02*
X111104430Y-72661585D01*
X111104430Y-72661585D02*
X111116604Y-72767367D01*
X111353007Y-71282481D02*
X111190140Y-71729954D01*
X111190140Y-71729954D02*
X111621326Y-71937568D01*
X111621326Y-71937568D02*
X111592866Y-71876534D01*
X111592866Y-71876534D02*
X111580692Y-71770753D01*
X111580692Y-71770753D02*
X111662125Y-71547016D01*
X111662125Y-71547016D02*
X111739446Y-71473809D01*
X111739446Y-71473809D02*
X111800480Y-71445348D01*
X111800480Y-71445348D02*
X111906261Y-71433174D01*
X111906261Y-71433174D02*
X112129997Y-71514607D01*
X112129997Y-71514607D02*
X112203205Y-71591928D01*
X112203205Y-71591928D02*
X112231666Y-71652962D01*
X112231666Y-71652962D02*
X112243840Y-71758743D01*
X112243840Y-71758743D02*
X112162406Y-71982480D01*
X112162406Y-71982480D02*
X112085086Y-72055687D01*
X112085086Y-72055687D02*
X112024052Y-72084148D01*
X111969602Y-104640001D02*
X111351013Y-104997144D01*
X111351013Y-104997144D02*
X111203485Y-105027333D01*
X111203485Y-105027333D02*
X111073388Y-104992473D01*
X111073388Y-104992473D02*
X110960720Y-104892565D01*
X110960720Y-104892565D02*
X110913101Y-104810086D01*
X111603577Y-106006026D02*
X111317863Y-105511155D01*
X111460720Y-105758591D02*
X112326745Y-105258591D01*
X112326745Y-105258591D02*
X112155408Y-105247541D01*
X112155408Y-105247541D02*
X112025311Y-105212681D01*
X112025311Y-105212681D02*
X111936452Y-105154012D01*
X113993333Y-113494819D02*
X113660000Y-113018628D01*
X113421905Y-113494819D02*
X113421905Y-112494819D01*
X113421905Y-112494819D02*
X113802857Y-112494819D01*
X113802857Y-112494819D02*
X113898095Y-112542438D01*
X113898095Y-112542438D02*
X113945714Y-112590057D01*
X113945714Y-112590057D02*
X113993333Y-112685295D01*
X113993333Y-112685295D02*
X113993333Y-112828152D01*
X113993333Y-112828152D02*
X113945714Y-112923390D01*
X113945714Y-112923390D02*
X113898095Y-112971009D01*
X113898095Y-112971009D02*
X113802857Y-113018628D01*
X113802857Y-113018628D02*
X113421905Y-113018628D01*
X114326667Y-112494819D02*
X114945714Y-112494819D01*
X114945714Y-112494819D02*
X114612381Y-112875771D01*
X114612381Y-112875771D02*
X114755238Y-112875771D01*
X114755238Y-112875771D02*
X114850476Y-112923390D01*
X114850476Y-112923390D02*
X114898095Y-112971009D01*
X114898095Y-112971009D02*
X114945714Y-113066247D01*
X114945714Y-113066247D02*
X114945714Y-113304342D01*
X114945714Y-113304342D02*
X114898095Y-113399580D01*
X114898095Y-113399580D02*
X114850476Y-113447200D01*
X114850476Y-113447200D02*
X114755238Y-113494819D01*
X114755238Y-113494819D02*
X114469524Y-113494819D01*
X114469524Y-113494819D02*
X114374286Y-113447200D01*
X114374286Y-113447200D02*
X114326667Y-113399580D01*
X113158095Y-60774819D02*
X113158095Y-59774819D01*
X113158095Y-60251009D02*
X113729523Y-60251009D01*
X113729523Y-60774819D02*
X113729523Y-59774819D01*
X114634285Y-60108152D02*
X114634285Y-60774819D01*
X114396190Y-59727200D02*
X114158095Y-60441485D01*
X114158095Y-60441485D02*
X114777142Y-60441485D01*
X142399580Y-73222857D02*
X142447200Y-73270476D01*
X142447200Y-73270476D02*
X142494819Y-73413333D01*
X142494819Y-73413333D02*
X142494819Y-73508571D01*
X142494819Y-73508571D02*
X142447200Y-73651428D01*
X142447200Y-73651428D02*
X142351961Y-73746666D01*
X142351961Y-73746666D02*
X142256723Y-73794285D01*
X142256723Y-73794285D02*
X142066247Y-73841904D01*
X142066247Y-73841904D02*
X141923390Y-73841904D01*
X141923390Y-73841904D02*
X141732914Y-73794285D01*
X141732914Y-73794285D02*
X141637676Y-73746666D01*
X141637676Y-73746666D02*
X141542438Y-73651428D01*
X141542438Y-73651428D02*
X141494819Y-73508571D01*
X141494819Y-73508571D02*
X141494819Y-73413333D01*
X141494819Y-73413333D02*
X141542438Y-73270476D01*
X141542438Y-73270476D02*
X141590057Y-73222857D01*
X142494819Y-72270476D02*
X142494819Y-72841904D01*
X142494819Y-72556190D02*
X141494819Y-72556190D01*
X141494819Y-72556190D02*
X141637676Y-72651428D01*
X141637676Y-72651428D02*
X141732914Y-72746666D01*
X141732914Y-72746666D02*
X141780533Y-72841904D01*
X142494819Y-71318095D02*
X142494819Y-71889523D01*
X142494819Y-71603809D02*
X141494819Y-71603809D01*
X141494819Y-71603809D02*
X141637676Y-71699047D01*
X141637676Y-71699047D02*
X141732914Y-71794285D01*
X141732914Y-71794285D02*
X141780533Y-71889523D01*
X108186417Y-83992184D02*
X108246306Y-83854021D01*
X108246306Y-83854021D02*
X108267057Y-83616832D01*
X108267057Y-83616832D02*
X108227920Y-83517806D01*
X108227920Y-83517806D02*
X108184633Y-83466218D01*
X108184633Y-83466218D02*
X108093907Y-83410479D01*
X108093907Y-83410479D02*
X107999031Y-83402179D01*
X107999031Y-83402179D02*
X107900005Y-83441316D01*
X107900005Y-83441316D02*
X107848417Y-83484604D01*
X107848417Y-83484604D02*
X107792679Y-83575329D01*
X107792679Y-83575329D02*
X107728640Y-83760930D01*
X107728640Y-83760930D02*
X107672902Y-83851656D01*
X107672902Y-83851656D02*
X107621314Y-83894943D01*
X107621314Y-83894943D02*
X107522288Y-83934081D01*
X107522288Y-83934081D02*
X107427412Y-83925780D01*
X107427412Y-83925780D02*
X107336686Y-83870042D01*
X107336686Y-83870042D02*
X107293399Y-83818454D01*
X107293399Y-83818454D02*
X107254262Y-83719428D01*
X107254262Y-83719428D02*
X107275013Y-83482238D01*
X107275013Y-83482238D02*
X107334902Y-83344075D01*
X107316516Y-83007860D02*
X108333462Y-82857826D01*
X108333462Y-82857826D02*
X107638495Y-82605821D01*
X107638495Y-82605821D02*
X108366664Y-82478324D01*
X108366664Y-82478324D02*
X107391221Y-82153979D01*
X107515148Y-81830214D02*
X107471861Y-81778626D01*
X107471861Y-81778626D02*
X107432723Y-81679600D01*
X107432723Y-81679600D02*
X107453475Y-81442411D01*
X107453475Y-81442411D02*
X107509213Y-81351686D01*
X107509213Y-81351686D02*
X107560801Y-81308398D01*
X107560801Y-81308398D02*
X107659827Y-81269261D01*
X107659827Y-81269261D02*
X107754703Y-81277561D01*
X107754703Y-81277561D02*
X107892866Y-81337450D01*
X107892866Y-81337450D02*
X108412317Y-81956508D01*
X108412317Y-81956508D02*
X108466271Y-81339816D01*
X141944819Y-104383333D02*
X142659104Y-104383333D01*
X142659104Y-104383333D02*
X142801961Y-104430952D01*
X142801961Y-104430952D02*
X142897200Y-104526190D01*
X142897200Y-104526190D02*
X142944819Y-104669047D01*
X142944819Y-104669047D02*
X142944819Y-104764285D01*
X142040057Y-103954761D02*
X141992438Y-103907142D01*
X141992438Y-103907142D02*
X141944819Y-103811904D01*
X141944819Y-103811904D02*
X141944819Y-103573809D01*
X141944819Y-103573809D02*
X141992438Y-103478571D01*
X141992438Y-103478571D02*
X142040057Y-103430952D01*
X142040057Y-103430952D02*
X142135295Y-103383333D01*
X142135295Y-103383333D02*
X142230533Y-103383333D01*
X142230533Y-103383333D02*
X142373390Y-103430952D01*
X142373390Y-103430952D02*
X142944819Y-104002380D01*
X142944819Y-104002380D02*
X142944819Y-103383333D01*
X108611535Y-92570431D02*
X108589446Y-92719386D01*
X108589446Y-92719386D02*
X108630791Y-92953864D01*
X108630791Y-92953864D02*
X108694225Y-93039387D01*
X108694225Y-93039387D02*
X108749389Y-93078013D01*
X108749389Y-93078013D02*
X108851449Y-93108371D01*
X108851449Y-93108371D02*
X108945241Y-93091833D01*
X108945241Y-93091833D02*
X109030763Y-93028400D01*
X109030763Y-93028400D02*
X109069389Y-92973235D01*
X109069389Y-92973235D02*
X109099747Y-92871175D01*
X109099747Y-92871175D02*
X109113567Y-92675323D01*
X109113567Y-92675323D02*
X109143925Y-92573263D01*
X109143925Y-92573263D02*
X109182551Y-92518099D01*
X109182551Y-92518099D02*
X109268073Y-92454665D01*
X109268073Y-92454665D02*
X109361865Y-92438127D01*
X109361865Y-92438127D02*
X109463925Y-92468485D01*
X109463925Y-92468485D02*
X109519089Y-92507112D01*
X109519089Y-92507112D02*
X109582523Y-92592634D01*
X109582523Y-92592634D02*
X109623868Y-92827112D01*
X109623868Y-92827112D02*
X109601779Y-92976068D01*
X109706557Y-93296068D02*
X108763094Y-93704194D01*
X108763094Y-93704194D02*
X109499604Y-93767742D01*
X109499604Y-93767742D02*
X108829246Y-94079359D01*
X108829246Y-94079359D02*
X109855399Y-94140189D01*
X109667702Y-94995297D02*
X109011163Y-95111062D01*
X110001522Y-94694667D02*
X109256743Y-94584223D01*
X109256743Y-94584223D02*
X109364239Y-95193866D01*
X108814819Y-100226666D02*
X108338628Y-100559999D01*
X108814819Y-100798094D02*
X107814819Y-100798094D01*
X107814819Y-100798094D02*
X107814819Y-100417142D01*
X107814819Y-100417142D02*
X107862438Y-100321904D01*
X107862438Y-100321904D02*
X107910057Y-100274285D01*
X107910057Y-100274285D02*
X108005295Y-100226666D01*
X108005295Y-100226666D02*
X108148152Y-100226666D01*
X108148152Y-100226666D02*
X108243390Y-100274285D01*
X108243390Y-100274285D02*
X108291009Y-100321904D01*
X108291009Y-100321904D02*
X108338628Y-100417142D01*
X108338628Y-100417142D02*
X108338628Y-100798094D01*
X108814819Y-99274285D02*
X108814819Y-99845713D01*
X108814819Y-99559999D02*
X107814819Y-99559999D01*
X107814819Y-99559999D02*
X107957676Y-99655237D01*
X107957676Y-99655237D02*
X108052914Y-99750475D01*
X108052914Y-99750475D02*
X108100533Y-99845713D01*
X127483333Y-106699580D02*
X127435714Y-106747200D01*
X127435714Y-106747200D02*
X127292857Y-106794819D01*
X127292857Y-106794819D02*
X127197619Y-106794819D01*
X127197619Y-106794819D02*
X127054762Y-106747200D01*
X127054762Y-106747200D02*
X126959524Y-106651961D01*
X126959524Y-106651961D02*
X126911905Y-106556723D01*
X126911905Y-106556723D02*
X126864286Y-106366247D01*
X126864286Y-106366247D02*
X126864286Y-106223390D01*
X126864286Y-106223390D02*
X126911905Y-106032914D01*
X126911905Y-106032914D02*
X126959524Y-105937676D01*
X126959524Y-105937676D02*
X127054762Y-105842438D01*
X127054762Y-105842438D02*
X127197619Y-105794819D01*
X127197619Y-105794819D02*
X127292857Y-105794819D01*
X127292857Y-105794819D02*
X127435714Y-105842438D01*
X127435714Y-105842438D02*
X127483333Y-105890057D01*
X128340476Y-106128152D02*
X128340476Y-106794819D01*
X128102381Y-105747200D02*
X127864286Y-106461485D01*
X127864286Y-106461485D02*
X128483333Y-106461485D01*
X115935833Y-105214819D02*
X115602500Y-104738628D01*
X115364405Y-105214819D02*
X115364405Y-104214819D01*
X115364405Y-104214819D02*
X115745357Y-104214819D01*
X115745357Y-104214819D02*
X115840595Y-104262438D01*
X115840595Y-104262438D02*
X115888214Y-104310057D01*
X115888214Y-104310057D02*
X115935833Y-104405295D01*
X115935833Y-104405295D02*
X115935833Y-104548152D01*
X115935833Y-104548152D02*
X115888214Y-104643390D01*
X115888214Y-104643390D02*
X115840595Y-104691009D01*
X115840595Y-104691009D02*
X115745357Y-104738628D01*
X115745357Y-104738628D02*
X115364405Y-104738628D01*
X116316786Y-104310057D02*
X116364405Y-104262438D01*
X116364405Y-104262438D02*
X116459643Y-104214819D01*
X116459643Y-104214819D02*
X116697738Y-104214819D01*
X116697738Y-104214819D02*
X116792976Y-104262438D01*
X116792976Y-104262438D02*
X116840595Y-104310057D01*
X116840595Y-104310057D02*
X116888214Y-104405295D01*
X116888214Y-104405295D02*
X116888214Y-104500533D01*
X116888214Y-104500533D02*
X116840595Y-104643390D01*
X116840595Y-104643390D02*
X116269167Y-105214819D01*
X116269167Y-105214819D02*
X116888214Y-105214819D01*
X143766819Y-80513333D02*
X144481104Y-80513333D01*
X144481104Y-80513333D02*
X144623961Y-80560952D01*
X144623961Y-80560952D02*
X144719200Y-80656190D01*
X144719200Y-80656190D02*
X144766819Y-80799047D01*
X144766819Y-80799047D02*
X144766819Y-80894285D01*
X143766819Y-80132380D02*
X143766819Y-79513333D01*
X143766819Y-79513333D02*
X144147771Y-79846666D01*
X144147771Y-79846666D02*
X144147771Y-79703809D01*
X144147771Y-79703809D02*
X144195390Y-79608571D01*
X144195390Y-79608571D02*
X144243009Y-79560952D01*
X144243009Y-79560952D02*
X144338247Y-79513333D01*
X144338247Y-79513333D02*
X144576342Y-79513333D01*
X144576342Y-79513333D02*
X144671580Y-79560952D01*
X144671580Y-79560952D02*
X144719200Y-79608571D01*
X144719200Y-79608571D02*
X144766819Y-79703809D01*
X144766819Y-79703809D02*
X144766819Y-79989523D01*
X144766819Y-79989523D02*
X144719200Y-80084761D01*
X144719200Y-80084761D02*
X144671580Y-80132380D01*
D11*
%TO.C,R9*%
X124140000Y-65897621D02*
X124140000Y-65562379D01*
X124900000Y-65897621D02*
X124900000Y-65562379D01*
%TO.C,J5*%
X147510000Y-76660000D02*
G75*
G02*
X145110000Y-76660000I-1200000J0D01*
G01*
X145110000Y-76660000D02*
G75*
G02*
X147510000Y-76660000I1200000J0D01*
G01*
%TO.C,SW1*%
X102663624Y-78235087D02*
X104636978Y-78953329D01*
X104598700Y-78386024D02*
X104783391Y-77878590D01*
X104598700Y-78386024D02*
X104814829Y-78464689D01*
X105159613Y-76844928D02*
X106322481Y-73649972D01*
X105304020Y-70980660D02*
X107277374Y-71698902D01*
X106698704Y-72616312D02*
X106883395Y-72108878D01*
X106883395Y-72108878D02*
X107099523Y-72187542D01*
X107080180Y-79842582D02*
X107559423Y-80017012D01*
X107258030Y-79353942D02*
X107737274Y-79528372D01*
X107559423Y-80017012D02*
X107737274Y-79528372D01*
X109542725Y-73076795D02*
X110021968Y-73251225D01*
X109720575Y-72588155D02*
X110199819Y-72762585D01*
X110021968Y-73251225D02*
X110199819Y-72762585D01*
%TO.C,C1*%
X127594165Y-103090000D02*
X127825835Y-103090000D01*
X127594165Y-103810000D02*
X127825835Y-103810000D01*
%TO.C,C2*%
X127854165Y-95460000D02*
X128085835Y-95460000D01*
X127854165Y-96180000D02*
X128085835Y-96180000D01*
%TO.C,R8*%
X109560000Y-91317621D02*
X109560000Y-90982379D01*
X110320000Y-91317621D02*
X110320000Y-90982379D01*
%TO.C,C3*%
X118070000Y-117615835D02*
X118070000Y-117384165D01*
X118790000Y-117615835D02*
X118790000Y-117384165D01*
%TO.C,U4*%
X134092500Y-75995000D02*
X134092500Y-75760000D01*
X134092500Y-78740000D02*
X134092500Y-78265000D01*
X134567500Y-75520000D02*
X134392500Y-75520000D01*
X134567500Y-78740000D02*
X134092500Y-78740000D01*
X136837500Y-75520000D02*
X137312500Y-75520000D01*
X136837500Y-78740000D02*
X137312500Y-78740000D01*
X137312500Y-75520000D02*
X137312500Y-75995000D01*
X137312500Y-78740000D02*
X137312500Y-78265000D01*
X134092500Y-75520000D02*
X133852500Y-75190000D01*
X134332500Y-75190000D01*
X134092500Y-75520000D01*
G36*
X134092500Y-75520000D02*
G01*
X133852500Y-75190000D01*
X134332500Y-75190000D01*
X134092500Y-75520000D01*
G37*
%TO.C,C10*%
X129100000Y-89024165D02*
X129100000Y-89255835D01*
X129820000Y-89024165D02*
X129820000Y-89255835D01*
%TO.C,C14*%
X108510000Y-85245835D02*
X108510000Y-85014165D01*
X109230000Y-85245835D02*
X109230000Y-85014165D01*
%TO.C,U2*%
X126910000Y-99137500D02*
X126910000Y-98337500D01*
X126910000Y-99137500D02*
X126910000Y-99937500D01*
X130030000Y-99137500D02*
X130030000Y-98337500D01*
X130030000Y-99137500D02*
X130030000Y-99937500D01*
X126960000Y-100437500D02*
X126630000Y-100677500D01*
X126630000Y-100197500D01*
X126960000Y-100437500D01*
G36*
X126960000Y-100437500D02*
G01*
X126630000Y-100677500D01*
X126630000Y-100197500D01*
X126960000Y-100437500D01*
G37*
%TO.C,U1*%
X121742500Y-113930000D02*
X120942500Y-113930000D01*
X121742500Y-113930000D02*
X122542500Y-113930000D01*
X121742500Y-117050000D02*
X120942500Y-117050000D01*
X121742500Y-117050000D02*
X122542500Y-117050000D01*
X123282500Y-117330000D02*
X122802500Y-117330000D01*
X123042500Y-117000000D01*
X123282500Y-117330000D01*
G36*
X123282500Y-117330000D02*
G01*
X122802500Y-117330000D01*
X123042500Y-117000000D01*
X123282500Y-117330000D01*
G37*
%TO.C,D1*%
X118490000Y-121695000D02*
X120950000Y-121695000D01*
X120950000Y-120225000D02*
X118490000Y-120225000D01*
X120950000Y-121695000D02*
X120950000Y-120225000D01*
%TO.C,J4*%
X147510000Y-91130000D02*
G75*
G02*
X145110000Y-91130000I-1200000J0D01*
G01*
X145110000Y-91130000D02*
G75*
G02*
X147510000Y-91130000I1200000J0D01*
G01*
%TO.C,R5*%
X132380000Y-81682379D02*
X132380000Y-82017621D01*
X133140000Y-81682379D02*
X133140000Y-82017621D01*
D12*
%TO.C,SW5*%
X121560000Y-71450000D02*
X123560000Y-71450000D01*
X121560000Y-74250000D02*
X123560000Y-74250000D01*
X121960000Y-71950000D02*
G75*
G02*
X121760000Y-71950000I-100000J0D01*
G01*
X121760000Y-71950000D02*
G75*
G02*
X121960000Y-71950000I100000J0D01*
G01*
D11*
%TO.C,C16*%
X107415584Y-95036589D02*
X107375355Y-94808438D01*
X108124645Y-94911562D02*
X108084416Y-94683411D01*
%TO.C,J6*%
X147510000Y-87460000D02*
G75*
G02*
X145110000Y-87460000I-1200000J0D01*
G01*
X145110000Y-87460000D02*
G75*
G02*
X147510000Y-87460000I1200000J0D01*
G01*
%TO.C,C17*%
X148490000Y-62115835D02*
X148490000Y-61884165D01*
X149210000Y-62115835D02*
X149210000Y-61884165D01*
%TO.C,R11*%
X148550000Y-59242379D02*
X148550000Y-59577621D01*
X149310000Y-59242379D02*
X149310000Y-59577621D01*
%TO.C,C12*%
X133050000Y-88893733D02*
X133050000Y-89186267D01*
X134070000Y-88893733D02*
X134070000Y-89186267D01*
%TO.C,U3*%
X125075000Y-52540000D02*
X125075000Y-54990000D01*
X125075000Y-52540000D02*
X127525000Y-52540000D01*
X125350000Y-52790000D02*
X140950000Y-52790000D01*
X125350000Y-73490000D02*
X125350000Y-52790000D01*
X140950000Y-52790000D02*
X140950000Y-73490000D01*
X140950000Y-73490000D02*
X125350000Y-73490000D01*
X125175000Y-59740000D02*
X124839000Y-59980000D01*
X124839000Y-59500000D01*
X125175000Y-59740000D01*
G36*
X125175000Y-59740000D02*
G01*
X124839000Y-59980000D01*
X124839000Y-59500000D01*
X125175000Y-59740000D01*
G37*
%TO.C,C6*%
X121094165Y-74700000D02*
X121325835Y-74700000D01*
X121094165Y-75420000D02*
X121325835Y-75420000D01*
D12*
%TO.C,SW3*%
X146225000Y-59780000D02*
X144225000Y-59780000D01*
X146225000Y-62580000D02*
X144225000Y-62580000D01*
X146025000Y-62080000D02*
G75*
G02*
X145825000Y-62080000I-100000J0D01*
G01*
X145825000Y-62080000D02*
G75*
G02*
X146025000Y-62080000I100000J0D01*
G01*
D11*
%TO.C,C5*%
X117043733Y-73990000D02*
X117336267Y-73990000D01*
X117043733Y-75010000D02*
X117336267Y-75010000D01*
%TO.C,R7*%
X113887621Y-74140000D02*
X113552379Y-74140000D01*
X113887621Y-74900000D02*
X113552379Y-74900000D01*
%TO.C,U5*%
X137140000Y-88065000D02*
X137140000Y-87830000D01*
X137140000Y-90810000D02*
X137140000Y-90335000D01*
X137615000Y-87590000D02*
X137440000Y-87590000D01*
X137615000Y-90810000D02*
X137140000Y-90810000D01*
X139885000Y-87590000D02*
X140360000Y-87590000D01*
X139885000Y-90810000D02*
X140360000Y-90810000D01*
X140360000Y-87590000D02*
X140360000Y-88065000D01*
X140360000Y-90810000D02*
X140360000Y-90335000D01*
X137140000Y-87590000D02*
X136900000Y-87260000D01*
X137380000Y-87260000D01*
X137140000Y-87590000D01*
G36*
X137140000Y-87590000D02*
G01*
X136900000Y-87260000D01*
X137380000Y-87260000D01*
X137140000Y-87590000D01*
G37*
%TO.C,R10*%
X122772379Y-68600000D02*
X123107621Y-68600000D01*
X122772379Y-69360000D02*
X123107621Y-69360000D01*
%TO.C,R4*%
X114327621Y-116490000D02*
X113992379Y-116490000D01*
X114327621Y-117250000D02*
X113992379Y-117250000D01*
%TO.C,C9*%
X139930000Y-75773335D02*
X139930000Y-75541665D01*
X140650000Y-75773335D02*
X140650000Y-75541665D01*
%TO.C,C15*%
X109332093Y-76505722D02*
X109411329Y-76288023D01*
X110008671Y-76751977D02*
X110087907Y-76534278D01*
%TO.C,J1*%
X104652592Y-103856930D02*
X106124836Y-103006932D01*
X109322592Y-111945607D02*
X110794835Y-111095606D01*
%TO.C,R3*%
X113992379Y-113830000D02*
X114327621Y-113830000D01*
X113992379Y-114590000D02*
X114327621Y-114590000D01*
%TO.C,C11*%
X138160000Y-75663767D02*
X138160000Y-75371233D01*
X139180000Y-75663767D02*
X139180000Y-75371233D01*
%TO.C,SW2*%
X101150903Y-89118309D02*
X103242912Y-89301336D01*
X101823745Y-81427686D02*
X103915754Y-81610713D01*
X103059108Y-88763269D02*
X103106172Y-88225324D01*
X103059108Y-88763269D02*
X103288233Y-88783315D01*
X103202044Y-87129510D02*
X103498373Y-83742448D01*
X103594244Y-82646634D02*
X103641308Y-82108689D01*
X103641308Y-82108689D02*
X103870433Y-82128735D01*
X105833018Y-89527941D02*
X106341077Y-89572391D01*
X105878339Y-89009920D02*
X106386398Y-89054369D01*
X106341077Y-89572391D02*
X106386398Y-89054369D01*
X106460539Y-82355339D02*
X106968599Y-82399789D01*
X106505860Y-81837318D02*
X107013920Y-81881768D01*
X106968599Y-82399789D02*
X107013920Y-81881768D01*
%TO.C,J2*%
X143280000Y-106160000D02*
X143280000Y-107410000D01*
X143280000Y-107410000D02*
X144530000Y-107410000D01*
X143380000Y-105350000D02*
X143380000Y-105650000D01*
X143380000Y-105650000D02*
X143580000Y-105650000D01*
X143480000Y-105350000D02*
X143480000Y-105650000D01*
X143580000Y-100990000D02*
X143580000Y-107110000D01*
X143580000Y-104550000D02*
X144190000Y-104550000D01*
X143580000Y-105350000D02*
X143380000Y-105350000D01*
X143580000Y-107110000D02*
X148300000Y-107110000D01*
X144190000Y-101600000D02*
X144190000Y-103550000D01*
X144190000Y-103550000D02*
X143580000Y-103550000D01*
X144190000Y-104550000D02*
X144190000Y-106500000D01*
X144190000Y-106500000D02*
X147690000Y-106500000D01*
X144890000Y-100990000D02*
X144890000Y-101600000D01*
X144890000Y-107110000D02*
X144890000Y-106500000D01*
X146190000Y-100990000D02*
X146190000Y-101600000D01*
X146190000Y-107110000D02*
X146190000Y-106500000D01*
X147190000Y-103950000D02*
X147690000Y-103950000D01*
X147190000Y-104150000D02*
X147190000Y-103950000D01*
X147690000Y-101600000D02*
X144190000Y-101600000D01*
X147690000Y-104050000D02*
X147190000Y-104050000D01*
X147690000Y-104150000D02*
X147190000Y-104150000D01*
X147690000Y-106500000D02*
X147690000Y-101600000D01*
X148300000Y-100990000D02*
X143580000Y-100990000D01*
X148300000Y-107110000D02*
X148300000Y-100990000D01*
%TO.C,SW4*%
X100782682Y-92299108D02*
X102850779Y-91934447D01*
X102123246Y-99901824D02*
X104191343Y-99537162D01*
X102714570Y-92486486D02*
X102941076Y-92446547D01*
X102808340Y-93018282D02*
X102714570Y-92486486D01*
X103589757Y-97449917D02*
X102999353Y-94101571D01*
X103874540Y-99065001D02*
X103780770Y-98533205D01*
X103874540Y-99065001D02*
X104101046Y-99025062D01*
X105411279Y-91482961D02*
X105913531Y-91394401D01*
X105501576Y-91995061D02*
X106003828Y-91906501D01*
X106003828Y-91906501D02*
X105913531Y-91394401D01*
X106661546Y-98573577D02*
X107163797Y-98485016D01*
X106751843Y-99085677D02*
X107254095Y-98997117D01*
X107254095Y-98997117D02*
X107163797Y-98485016D01*
%TO.C,R1*%
X109190000Y-100977621D02*
X109190000Y-100642379D01*
X109950000Y-100977621D02*
X109950000Y-100642379D01*
%TO.C,C4*%
X127534165Y-107140000D02*
X127765835Y-107140000D01*
X127534165Y-107860000D02*
X127765835Y-107860000D01*
%TO.C,R2*%
X113672379Y-104380000D02*
X114007621Y-104380000D01*
X113672379Y-105140000D02*
X114007621Y-105140000D01*
%TO.C,J3*%
X147510000Y-80180000D02*
G75*
G02*
X145110000Y-80180000I-1200000J0D01*
G01*
X145110000Y-80180000D02*
G75*
G02*
X147510000Y-80180000I1200000J0D01*
G01*
%TD*%
M02*
