%TF.GenerationSoftware,KiCad,Pcbnew,9.0.1*%
%TF.CreationDate,2026-03-23T11:16:52+01:00*%
%TF.ProjectId,PCB_Casque,5043425f-4361-4737-9175-652e6b696361,rev?*%
%TF.SameCoordinates,Original*%
%TF.FileFunction,Copper,L2,Inr*%
%TF.FilePolarity,Positive*%
%FSLAX46Y46*%
G04 Gerber Fmt 4.6, Leading zero omitted, Abs format (unit mm)*
G04 Created by KiCad (PCBNEW 9.0.1) date 2026-03-23 11:16:52*
%MOMM*%
%LPD*%
G01*
G04 APERTURE LIST*
G04 Aperture macros list*
%AMRoundRect*
0 Rectangle with rounded corners*
0 $1 Rounding radius*
0 $2 $3 $4 $5 $6 $7 $8 $9 X,Y pos of 4 corners*
0 Add a 4 corners polygon primitive as box body*
4,1,4,$2,$3,$4,$5,$6,$7,$8,$9,$2,$3,0*
0 Add four circle primitives for the rounded corners*
1,1,$1+$1,$2,$3*
1,1,$1+$1,$4,$5*
1,1,$1+$1,$6,$7*
1,1,$1+$1,$8,$9*
0 Add four rect primitives between the rounded corners*
20,1,$1+$1,$2,$3,$4,$5,0*
20,1,$1+$1,$4,$5,$6,$7,0*
20,1,$1+$1,$6,$7,$8,$9,0*
20,1,$1+$1,$8,$9,$2,$3,0*%
%AMHorizOval*
0 Thick line with rounded ends*
0 $1 width*
0 $2 $3 position (X,Y) of the first rounded end (center of the circle)*
0 $4 $5 position (X,Y) of the second rounded end (center of the circle)*
0 Add line between two ends*
20,1,$1,$2,$3,$4,$5,0*
0 Add two circle primitives to create the rounded ends*
1,1,$1,$2,$3*
1,1,$1,$4,$5*%
G04 Aperture macros list end*
%TA.AperFunction,ComponentPad*%
%ADD10C,2.100000*%
%TD*%
%TA.AperFunction,ComponentPad*%
%ADD11C,1.750000*%
%TD*%
%TA.AperFunction,HeatsinkPad*%
%ADD12HorizOval,1.000000X-0.346410X-0.200000X0.346410X0.200000X0*%
%TD*%
%TA.AperFunction,HeatsinkPad*%
%ADD13HorizOval,1.000000X-0.476314X-0.275000X0.476314X0.275000X0*%
%TD*%
%TA.AperFunction,ComponentPad*%
%ADD14RoundRect,0.250000X0.625000X-0.350000X0.625000X0.350000X-0.625000X0.350000X-0.625000X-0.350000X0*%
%TD*%
%TA.AperFunction,ComponentPad*%
%ADD15O,1.750000X1.200000*%
%TD*%
%TA.AperFunction,ViaPad*%
%ADD16C,0.800000*%
%TD*%
%TA.AperFunction,Conductor*%
%ADD17C,0.250000*%
%TD*%
G04 APERTURE END LIST*
D10*
%TO.N,*%
%TO.C,SW1*%
X105972310Y-79056246D03*
X108369871Y-72469001D03*
D11*
%TO.N,/ESP23_s3_mini_1_N8/IO0*%
X104060000Y-77030000D03*
%TO.N,GND*%
X105599091Y-72801383D03*
%TD*%
D12*
%TO.N,GND*%
%TO.C,J1*%
X103810013Y-104747537D03*
D13*
X107429999Y-102657538D03*
D12*
X108130012Y-112229998D03*
D13*
X111750000Y-110140000D03*
%TD*%
D10*
%TO.N,*%
%TO.C,SW2*%
X104559379Y-89055137D03*
X105170341Y-82071812D03*
D11*
%TO.N,/ESP23_s3_mini_1_N8/IO2*%
X102187799Y-87592876D03*
%TO.N,GND*%
X102580000Y-83110000D03*
%TD*%
D14*
%TO.N,GND*%
%TO.C,J2*%
X145390000Y-105050000D03*
D15*
%TO.N,/Abaisseur/Vbat(3.7V)*%
X145390000Y-103050000D03*
%TD*%
D10*
%TO.N,*%
%TO.C,SW4*%
X105399231Y-98958626D03*
X104181958Y-92055123D03*
D11*
%TO.N,/ESP23_s3_mini_1_N8/IO1*%
X102730000Y-98160000D03*
%TO.N,GND*%
X101948583Y-93728365D03*
%TD*%
D16*
%TO.N,/Abaisseur/Vbat(3.7V)*%
X130720000Y-100380000D03*
X133150000Y-77020000D03*
X141440000Y-75640000D03*
X124150000Y-113610000D03*
X139240000Y-92170000D03*
X136050000Y-87310000D03*
X136200000Y-79730000D03*
X131570000Y-87710000D03*
X145380000Y-99420000D03*
X125800000Y-108330000D03*
X126280000Y-105010000D03*
%TO.N,GND*%
X126540000Y-74070000D03*
X141540000Y-88130000D03*
X117500000Y-117060000D03*
X135452500Y-74527500D03*
X136030000Y-82740000D03*
X113960000Y-115810000D03*
X113570000Y-110950000D03*
X128600000Y-101470000D03*
X106750000Y-101360000D03*
%TO.N,/ESP23_s3_mini_1_N8/Valim(3.3V)*%
X125970000Y-95610000D03*
X121200000Y-69560000D03*
X116350000Y-75920000D03*
X124600000Y-61380000D03*
X147430000Y-58912500D03*
X122060000Y-75910000D03*
X111510000Y-91670000D03*
X114560000Y-75900000D03*
%TO.N,/Abaisseur/V_USB(5V)*%
X115760000Y-114020000D03*
X112850000Y-107650000D03*
X119240000Y-118040000D03*
X108010000Y-105080000D03*
X119080000Y-114680000D03*
%TO.N,/ESP23_s3_mini_1_N8/IO2*%
X109820000Y-83350000D03*
X117040000Y-72610000D03*
%TO.N,/DAC ampli droit/SD_Mode_droit*%
X133151000Y-78050002D03*
X127240000Y-66890000D03*
%TO.N,Net-(U3-IO0)*%
X122780000Y-61970000D03*
X124580000Y-68220000D03*
%TO.N,/DAC ampli droit/BCLK*%
X138070000Y-85840000D03*
X134190000Y-74450000D03*
X128019056Y-67563778D03*
%TO.N,/DAC ampli droit/DIN*%
X133006166Y-76000090D03*
X130284293Y-74985707D03*
X136610000Y-86190000D03*
%TO.N,/DAC ampli droit/LRCLK*%
X128800222Y-68319778D03*
X136570000Y-74220000D03*
X139120000Y-85830000D03*
%TD*%
D17*
%TO.N,/Abaisseur/V_USB(5V)*%
X119240000Y-118040000D02*
X119650000Y-118040000D01*
X119080000Y-114680000D02*
X118840000Y-114920000D01*
X112850000Y-107650000D02*
X113210000Y-107650000D01*
%TD*%
%TA.AperFunction,Conductor*%
%TO.N,/Abaisseur/V_USB(5V)*%
G36*
X122067338Y-99580111D02*
G01*
X122117469Y-99628779D01*
X122133338Y-99696695D01*
X122079750Y-100660536D01*
X122041237Y-101353242D01*
X122036909Y-101431089D01*
X121859504Y-104621921D01*
X121856512Y-104675741D01*
X121397255Y-112935976D01*
X121393483Y-113003819D01*
X120852781Y-122728943D01*
X120844061Y-122885778D01*
X120846205Y-122968117D01*
X120846206Y-122968122D01*
X120850530Y-123008158D01*
X120866024Y-123089074D01*
X120902024Y-123171106D01*
X120910939Y-123240404D01*
X120880974Y-123303522D01*
X120838308Y-123334483D01*
X119626688Y-123866211D01*
X119557389Y-123875126D01*
X119514676Y-123859947D01*
X118704358Y-123390287D01*
X118701004Y-123388271D01*
X117645356Y-122731064D01*
X117642066Y-122728943D01*
X116607665Y-122038736D01*
X116604445Y-122036513D01*
X115592345Y-121314012D01*
X115589196Y-121311688D01*
X114600401Y-120557610D01*
X114597327Y-120555188D01*
X113632815Y-119770276D01*
X113629845Y-119767781D01*
X112690512Y-118952761D01*
X112687666Y-118950212D01*
X111774592Y-118106022D01*
X111771768Y-118103329D01*
X111522685Y-117858013D01*
X110885752Y-117230711D01*
X110883008Y-117227921D01*
X110714147Y-117050774D01*
X110638396Y-116971306D01*
X110638394Y-116971304D01*
X116599500Y-116971304D01*
X116599500Y-117148695D01*
X116634103Y-117322658D01*
X116634106Y-117322667D01*
X116701983Y-117486540D01*
X116701990Y-117486553D01*
X116800535Y-117634034D01*
X116800538Y-117634038D01*
X116925961Y-117759461D01*
X116925965Y-117759464D01*
X117073446Y-117858009D01*
X117073459Y-117858016D01*
X117196363Y-117908923D01*
X117237334Y-117925894D01*
X117237336Y-117925894D01*
X117237341Y-117925896D01*
X117411304Y-117960499D01*
X117411307Y-117960500D01*
X117411309Y-117960500D01*
X117588693Y-117960500D01*
X117588694Y-117960499D01*
X117646682Y-117948964D01*
X117762658Y-117925896D01*
X117762661Y-117925894D01*
X117762666Y-117925894D01*
X117926547Y-117858013D01*
X118074035Y-117759464D01*
X118199464Y-117634035D01*
X118298013Y-117486547D01*
X118365894Y-117322666D01*
X118400500Y-117148691D01*
X118400500Y-116971309D01*
X118400500Y-116971306D01*
X118400499Y-116971304D01*
X118365896Y-116797341D01*
X118365893Y-116797332D01*
X118298016Y-116633459D01*
X118298009Y-116633446D01*
X118199464Y-116485965D01*
X118199461Y-116485961D01*
X118074038Y-116360538D01*
X118074034Y-116360535D01*
X117926553Y-116261990D01*
X117926540Y-116261983D01*
X117762667Y-116194106D01*
X117762658Y-116194103D01*
X117588694Y-116159500D01*
X117588691Y-116159500D01*
X117411309Y-116159500D01*
X117411306Y-116159500D01*
X117237341Y-116194103D01*
X117237332Y-116194106D01*
X117073459Y-116261983D01*
X117073446Y-116261990D01*
X116925965Y-116360535D01*
X116925961Y-116360538D01*
X116800538Y-116485961D01*
X116800535Y-116485965D01*
X116701990Y-116633446D01*
X116701983Y-116633459D01*
X116634106Y-116797332D01*
X116634103Y-116797341D01*
X116599500Y-116971304D01*
X110638394Y-116971304D01*
X110025028Y-116327838D01*
X110022376Y-116324967D01*
X109550796Y-115797899D01*
X109550794Y-115797896D01*
X109482265Y-115721304D01*
X113059500Y-115721304D01*
X113059500Y-115898695D01*
X113094103Y-116072658D01*
X113094106Y-116072667D01*
X113161983Y-116236540D01*
X113161990Y-116236553D01*
X113260535Y-116384034D01*
X113260538Y-116384038D01*
X113385961Y-116509461D01*
X113385965Y-116509464D01*
X113533446Y-116608009D01*
X113533459Y-116608016D01*
X113656363Y-116658923D01*
X113697334Y-116675894D01*
X113697336Y-116675894D01*
X113697341Y-116675896D01*
X113871304Y-116710499D01*
X113871307Y-116710500D01*
X113871309Y-116710500D01*
X114048693Y-116710500D01*
X114048694Y-116710499D01*
X114106682Y-116698964D01*
X114222658Y-116675896D01*
X114222661Y-116675894D01*
X114222666Y-116675894D01*
X114386547Y-116608013D01*
X114534035Y-116509464D01*
X114659464Y-116384035D01*
X114758013Y-116236547D01*
X114825894Y-116072666D01*
X114860500Y-115898691D01*
X114860500Y-115721309D01*
X114860500Y-115721306D01*
X114860499Y-115721304D01*
X114825896Y-115547341D01*
X114825893Y-115547332D01*
X114758016Y-115383459D01*
X114758009Y-115383446D01*
X114659464Y-115235965D01*
X114659461Y-115235961D01*
X114534038Y-115110538D01*
X114534034Y-115110535D01*
X114386553Y-115011990D01*
X114386540Y-115011983D01*
X114222667Y-114944106D01*
X114222658Y-114944103D01*
X114048694Y-114909500D01*
X114048691Y-114909500D01*
X113871309Y-114909500D01*
X113871306Y-114909500D01*
X113697341Y-114944103D01*
X113697332Y-114944106D01*
X113533459Y-115011983D01*
X113533446Y-115011990D01*
X113385965Y-115110535D01*
X113385961Y-115110538D01*
X113260538Y-115235961D01*
X113260535Y-115235965D01*
X113161990Y-115383446D01*
X113161983Y-115383459D01*
X113094106Y-115547332D01*
X113094103Y-115547341D01*
X113059500Y-115721304D01*
X109482265Y-115721304D01*
X109193197Y-115398223D01*
X109190633Y-115395266D01*
X109056910Y-115235965D01*
X108391088Y-114442789D01*
X108388655Y-114439796D01*
X107619602Y-113462606D01*
X107617230Y-113459493D01*
X107487831Y-113283946D01*
X107463899Y-113218302D01*
X107479255Y-113150141D01*
X107529024Y-113101102D01*
X107597405Y-113086756D01*
X107619728Y-113090594D01*
X107672215Y-113104658D01*
X107805975Y-113113425D01*
X107938875Y-113095928D01*
X108065809Y-113052840D01*
X108874716Y-112585817D01*
X108932306Y-112535311D01*
X108975496Y-112497436D01*
X108975496Y-112497434D01*
X108975499Y-112497433D01*
X109057101Y-112391087D01*
X109116388Y-112270864D01*
X109151082Y-112141385D01*
X109159850Y-112007625D01*
X109142353Y-111874725D01*
X109099264Y-111747791D01*
X109032241Y-111631704D01*
X108943857Y-111530922D01*
X108943854Y-111530919D01*
X108943852Y-111530917D01*
X108837514Y-111449321D01*
X108837510Y-111449318D01*
X108717291Y-111390033D01*
X108717288Y-111390032D01*
X108587809Y-111355338D01*
X108454049Y-111346571D01*
X108454048Y-111346571D01*
X108454047Y-111346571D01*
X108321156Y-111364066D01*
X108321143Y-111364069D01*
X108194220Y-111407154D01*
X108194214Y-111407156D01*
X107385310Y-111874177D01*
X107385309Y-111874177D01*
X107320188Y-111931287D01*
X107284526Y-111962563D01*
X107284524Y-111962564D01*
X107284521Y-111962568D01*
X107202925Y-112068905D01*
X107202922Y-112068909D01*
X107143637Y-112189128D01*
X107143636Y-112189132D01*
X107126047Y-112254777D01*
X107108941Y-112318616D01*
X107103970Y-112394452D01*
X107094606Y-112420020D01*
X107088614Y-112446593D01*
X107082765Y-112452353D01*
X107079943Y-112460060D01*
X107058240Y-112476508D01*
X107038835Y-112495621D01*
X107030800Y-112497304D01*
X107024259Y-112502263D01*
X106997104Y-112504367D01*
X106970451Y-112509954D01*
X106962783Y-112507027D01*
X106954598Y-112507662D01*
X106930614Y-112494750D01*
X106905174Y-112485041D01*
X106896815Y-112476554D01*
X106893077Y-112474542D01*
X106880407Y-112459895D01*
X106879360Y-112458474D01*
X106877103Y-112455308D01*
X106234991Y-111524035D01*
X106171224Y-111431551D01*
X106169057Y-111428300D01*
X106127697Y-111364068D01*
X105698299Y-110697206D01*
X105572909Y-110502474D01*
X105530990Y-110437374D01*
X110590259Y-110437374D01*
X110607754Y-110570265D01*
X110607757Y-110570278D01*
X110650842Y-110697201D01*
X110650844Y-110697207D01*
X110684355Y-110755250D01*
X110717867Y-110813294D01*
X110806251Y-110914076D01*
X110806255Y-110914079D01*
X110806256Y-110914080D01*
X110912593Y-110995676D01*
X110912597Y-110995679D01*
X111032820Y-111054966D01*
X111162299Y-111089660D01*
X111296059Y-111098427D01*
X111428959Y-111080930D01*
X111555892Y-111037842D01*
X112557834Y-110459370D01*
X112625733Y-110442898D01*
X112691760Y-110465751D01*
X112734951Y-110520672D01*
X112741592Y-110590225D01*
X112734395Y-110614209D01*
X112704105Y-110687337D01*
X112704103Y-110687341D01*
X112669500Y-110861304D01*
X112669500Y-111038695D01*
X112704103Y-111212658D01*
X112704106Y-111212667D01*
X112771983Y-111376540D01*
X112771990Y-111376553D01*
X112870535Y-111524034D01*
X112870538Y-111524038D01*
X112995961Y-111649461D01*
X112995965Y-111649464D01*
X113143446Y-111748009D01*
X113143459Y-111748016D01*
X113266363Y-111798923D01*
X113307334Y-111815894D01*
X113307336Y-111815894D01*
X113307341Y-111815896D01*
X113481304Y-111850499D01*
X113481307Y-111850500D01*
X113481309Y-111850500D01*
X113658693Y-111850500D01*
X113658694Y-111850499D01*
X113716682Y-111838964D01*
X113832658Y-111815896D01*
X113832661Y-111815894D01*
X113832666Y-111815894D01*
X113996547Y-111748013D01*
X114144035Y-111649464D01*
X114269464Y-111524035D01*
X114368013Y-111376547D01*
X114435894Y-111212666D01*
X114470500Y-111038691D01*
X114470500Y-110861309D01*
X114470500Y-110861306D01*
X114470499Y-110861304D01*
X114435896Y-110687341D01*
X114435893Y-110687332D01*
X114368016Y-110523459D01*
X114368009Y-110523446D01*
X114269464Y-110375965D01*
X114269461Y-110375961D01*
X114144038Y-110250538D01*
X114144034Y-110250535D01*
X113996553Y-110151990D01*
X113996540Y-110151983D01*
X113832667Y-110084106D01*
X113832658Y-110084103D01*
X113658694Y-110049500D01*
X113658691Y-110049500D01*
X113481309Y-110049500D01*
X113481306Y-110049500D01*
X113307341Y-110084103D01*
X113307332Y-110084106D01*
X113143459Y-110151983D01*
X113143448Y-110151989D01*
X113064715Y-110204597D01*
X112998038Y-110225474D01*
X112930658Y-110206989D01*
X112883968Y-110155010D01*
X112872792Y-110086040D01*
X112876047Y-110069415D01*
X112900974Y-109976387D01*
X112909741Y-109842627D01*
X112892244Y-109709727D01*
X112849156Y-109582794D01*
X112782133Y-109466706D01*
X112693749Y-109365924D01*
X112693744Y-109365920D01*
X112693743Y-109365919D01*
X112587406Y-109284323D01*
X112587402Y-109284320D01*
X112467183Y-109225035D01*
X112467180Y-109225034D01*
X112337701Y-109190340D01*
X112203941Y-109181573D01*
X112203940Y-109181573D01*
X112203939Y-109181573D01*
X112071048Y-109199068D01*
X112071035Y-109199071D01*
X111944112Y-109242156D01*
X111944106Y-109242158D01*
X110875394Y-109859179D01*
X110875393Y-109859179D01*
X110810272Y-109916289D01*
X110774610Y-109947565D01*
X110774608Y-109947566D01*
X110774605Y-109947570D01*
X110693009Y-110053907D01*
X110693006Y-110053911D01*
X110633721Y-110174130D01*
X110599026Y-110303613D01*
X110590259Y-110437374D01*
X105530990Y-110437374D01*
X105495834Y-110382776D01*
X105493767Y-110379452D01*
X105491672Y-110375961D01*
X104853848Y-109313163D01*
X104851900Y-109309796D01*
X104837686Y-109284323D01*
X104730524Y-109092273D01*
X110151485Y-109092273D01*
X110151485Y-109210891D01*
X110182186Y-109325468D01*
X110241496Y-109428195D01*
X110325372Y-109512071D01*
X110428099Y-109571381D01*
X110542676Y-109602082D01*
X110542679Y-109602082D01*
X110661291Y-109602082D01*
X110661294Y-109602082D01*
X110775871Y-109571381D01*
X110878598Y-109512071D01*
X110962474Y-109428195D01*
X111021784Y-109325468D01*
X111052485Y-109210891D01*
X111052485Y-109092273D01*
X111021784Y-108977696D01*
X110962474Y-108874969D01*
X110878598Y-108791093D01*
X110775871Y-108731783D01*
X110661294Y-108701082D01*
X110542676Y-108701082D01*
X110428099Y-108731783D01*
X110428097Y-108731783D01*
X110428097Y-108731784D01*
X110325372Y-108791093D01*
X110325369Y-108791095D01*
X110241498Y-108874966D01*
X110241496Y-108874969D01*
X110182186Y-108977696D01*
X110151485Y-109092273D01*
X104730524Y-109092273D01*
X104245969Y-108223880D01*
X104244144Y-108220485D01*
X103672751Y-107115929D01*
X103671035Y-107112480D01*
X103134801Y-105990477D01*
X103133176Y-105986935D01*
X103021191Y-105732260D01*
X103012226Y-105662968D01*
X103042146Y-105599828D01*
X103101452Y-105562888D01*
X103171314Y-105563875D01*
X103189540Y-105571132D01*
X103222737Y-105587503D01*
X103352216Y-105622197D01*
X103485976Y-105630964D01*
X103618876Y-105613467D01*
X103745810Y-105570379D01*
X104554717Y-105103356D01*
X104655500Y-105014972D01*
X104737102Y-104908626D01*
X104796389Y-104788403D01*
X104831083Y-104658924D01*
X104839851Y-104525164D01*
X104822354Y-104392264D01*
X104779265Y-104265330D01*
X104744586Y-104205265D01*
X104712243Y-104149245D01*
X104712242Y-104149243D01*
X104657346Y-104086647D01*
X107261485Y-104086647D01*
X107261485Y-104205265D01*
X107292186Y-104319842D01*
X107351496Y-104422569D01*
X107435372Y-104506445D01*
X107538099Y-104565755D01*
X107652676Y-104596456D01*
X107652679Y-104596456D01*
X107771291Y-104596456D01*
X107771294Y-104596456D01*
X107885871Y-104565755D01*
X107988598Y-104506445D01*
X108072474Y-104422569D01*
X108131784Y-104319842D01*
X108162485Y-104205265D01*
X108162485Y-104086647D01*
X108131784Y-103972070D01*
X108072474Y-103869343D01*
X107988598Y-103785467D01*
X107885871Y-103726157D01*
X107771294Y-103695456D01*
X107652676Y-103695456D01*
X107538099Y-103726157D01*
X107538097Y-103726157D01*
X107538097Y-103726158D01*
X107435372Y-103785467D01*
X107435369Y-103785469D01*
X107351498Y-103869340D01*
X107351496Y-103869343D01*
X107292186Y-103972070D01*
X107261485Y-104086647D01*
X104657346Y-104086647D01*
X104623858Y-104048461D01*
X104623855Y-104048458D01*
X104623853Y-104048456D01*
X104517515Y-103966860D01*
X104517511Y-103966857D01*
X104397292Y-103907572D01*
X104397289Y-103907571D01*
X104267810Y-103872877D01*
X104134050Y-103864110D01*
X104134049Y-103864110D01*
X104134048Y-103864110D01*
X104001157Y-103881605D01*
X104001144Y-103881608D01*
X103874221Y-103924693D01*
X103874215Y-103924695D01*
X103065311Y-104391716D01*
X103065310Y-104391716D01*
X103030130Y-104422569D01*
X102964527Y-104480102D01*
X102964525Y-104480103D01*
X102964522Y-104480107D01*
X102882926Y-104586444D01*
X102882923Y-104586448D01*
X102823638Y-104706667D01*
X102823637Y-104706668D01*
X102820565Y-104718135D01*
X102784197Y-104777794D01*
X102721349Y-104808321D01*
X102651974Y-104800023D01*
X102598098Y-104755536D01*
X102585762Y-104732343D01*
X102580042Y-104718135D01*
X102166728Y-103691413D01*
X102165325Y-103687763D01*
X102123102Y-103572504D01*
X101737567Y-102520078D01*
X101736295Y-102516426D01*
X101728848Y-102493924D01*
X101661544Y-102290542D01*
X101659170Y-102220713D01*
X101694925Y-102160685D01*
X101750948Y-102130862D01*
X105697191Y-101205404D01*
X105766951Y-101209262D01*
X105823554Y-101250225D01*
X105849025Y-101315286D01*
X105849500Y-101326129D01*
X105849500Y-101448695D01*
X105884103Y-101622658D01*
X105884106Y-101622667D01*
X105951983Y-101786540D01*
X105951990Y-101786553D01*
X106050535Y-101934034D01*
X106050538Y-101934038D01*
X106175961Y-102059461D01*
X106175965Y-102059464D01*
X106323446Y-102158009D01*
X106323459Y-102158016D01*
X106466139Y-102217115D01*
X106520543Y-102260955D01*
X106542608Y-102327249D01*
X106525329Y-102394949D01*
X106500447Y-102424903D01*
X106454609Y-102465102D01*
X106454604Y-102465107D01*
X106373008Y-102571445D01*
X106373005Y-102571449D01*
X106313720Y-102691668D01*
X106279025Y-102821151D01*
X106270258Y-102954912D01*
X106287753Y-103087803D01*
X106287756Y-103087816D01*
X106330841Y-103214739D01*
X106330843Y-103214745D01*
X106364354Y-103272788D01*
X106397866Y-103330832D01*
X106486250Y-103431614D01*
X106592596Y-103513217D01*
X106712819Y-103572504D01*
X106842298Y-103607198D01*
X106976058Y-103615965D01*
X107108958Y-103598468D01*
X107235891Y-103555380D01*
X108304607Y-102938357D01*
X108405389Y-102849973D01*
X108486992Y-102743627D01*
X108546279Y-102623404D01*
X108580973Y-102493925D01*
X108589740Y-102360165D01*
X108572243Y-102227265D01*
X108529155Y-102100332D01*
X108462132Y-101984244D01*
X108373748Y-101883462D01*
X108373743Y-101883458D01*
X108373742Y-101883457D01*
X108267405Y-101801861D01*
X108267401Y-101801858D01*
X108147182Y-101742573D01*
X108147179Y-101742572D01*
X108017700Y-101707878D01*
X107883940Y-101699111D01*
X107883939Y-101699111D01*
X107883937Y-101699111D01*
X107764632Y-101714818D01*
X107695597Y-101704052D01*
X107643341Y-101657672D01*
X107624456Y-101590403D01*
X107626830Y-101567687D01*
X107650500Y-101448693D01*
X107650500Y-101271306D01*
X107650499Y-101271304D01*
X107615896Y-101097341D01*
X107615893Y-101097332D01*
X107612929Y-101090177D01*
X107548013Y-100933453D01*
X107548009Y-100933447D01*
X107547105Y-100931755D01*
X107546897Y-100930758D01*
X107545682Y-100927824D01*
X107546238Y-100927593D01*
X107532855Y-100863354D01*
X107557847Y-100798107D01*
X107614148Y-100756730D01*
X107628135Y-100752566D01*
X109419342Y-100332499D01*
X109440932Y-100329408D01*
X119410000Y-99790000D01*
X121998856Y-99566271D01*
X122067338Y-99580111D01*
G37*
%TD.AperFunction*%
%TD*%
%TA.AperFunction,Conductor*%
%TO.N,/Abaisseur/Vbat(3.7V)*%
G36*
X150451704Y-66129555D02*
G01*
X150497879Y-66181991D01*
X150509500Y-66234402D01*
X150509500Y-110232074D01*
X150489815Y-110299113D01*
X150437011Y-110344868D01*
X150435331Y-110345621D01*
X121522421Y-123034254D01*
X121453122Y-123043169D01*
X121390005Y-123013204D01*
X121353107Y-122953871D01*
X121348782Y-122913834D01*
X121901976Y-112964038D01*
X135019500Y-112964038D01*
X135019500Y-113215961D01*
X135058910Y-113464785D01*
X135136760Y-113704383D01*
X135251132Y-113928848D01*
X135399201Y-114132649D01*
X135399205Y-114132654D01*
X135577345Y-114310794D01*
X135577350Y-114310798D01*
X135755117Y-114439952D01*
X135781155Y-114458870D01*
X135924184Y-114531747D01*
X136005616Y-114573239D01*
X136005618Y-114573239D01*
X136005621Y-114573241D01*
X136245215Y-114651090D01*
X136494038Y-114690500D01*
X136494039Y-114690500D01*
X136745961Y-114690500D01*
X136745962Y-114690500D01*
X136994785Y-114651090D01*
X137234379Y-114573241D01*
X137458845Y-114458870D01*
X137662656Y-114310793D01*
X137840793Y-114132656D01*
X137988870Y-113928845D01*
X138103241Y-113704379D01*
X138181090Y-113464785D01*
X138220500Y-113215962D01*
X138220500Y-112964038D01*
X138181090Y-112715215D01*
X138103241Y-112475621D01*
X138103239Y-112475618D01*
X138103239Y-112475616D01*
X138061747Y-112394184D01*
X137988870Y-112251155D01*
X137969952Y-112225117D01*
X137840798Y-112047350D01*
X137840794Y-112047345D01*
X137662654Y-111869205D01*
X137662649Y-111869201D01*
X137458848Y-111721132D01*
X137458847Y-111721131D01*
X137458845Y-111721130D01*
X137388747Y-111685413D01*
X137234383Y-111606760D01*
X136994785Y-111528910D01*
X136745962Y-111489500D01*
X136494038Y-111489500D01*
X136369626Y-111509205D01*
X136245214Y-111528910D01*
X136005616Y-111606760D01*
X135781151Y-111721132D01*
X135577350Y-111869201D01*
X135577345Y-111869205D01*
X135399205Y-112047345D01*
X135399201Y-112047350D01*
X135251132Y-112251151D01*
X135136760Y-112475616D01*
X135058910Y-112715214D01*
X135019500Y-112964038D01*
X121901976Y-112964038D01*
X122364225Y-104649983D01*
X144014500Y-104649983D01*
X144014500Y-105450001D01*
X144014501Y-105450019D01*
X144025000Y-105552796D01*
X144025001Y-105552799D01*
X144080185Y-105719331D01*
X144080186Y-105719334D01*
X144172288Y-105868656D01*
X144296344Y-105992712D01*
X144445666Y-106084814D01*
X144612203Y-106139999D01*
X144714991Y-106150500D01*
X146065008Y-106150499D01*
X146167797Y-106139999D01*
X146334334Y-106084814D01*
X146483656Y-105992712D01*
X146607712Y-105868656D01*
X146699814Y-105719334D01*
X146754999Y-105552797D01*
X146765500Y-105450009D01*
X146765499Y-104649992D01*
X146754999Y-104547203D01*
X146699814Y-104380666D01*
X146607712Y-104231344D01*
X146483656Y-104107288D01*
X146483655Y-104107287D01*
X146419019Y-104067420D01*
X146372294Y-104015472D01*
X146361071Y-103946510D01*
X146388914Y-103882428D01*
X146396434Y-103874199D01*
X146504035Y-103766598D01*
X146605804Y-103626524D01*
X146684408Y-103472255D01*
X146737914Y-103307584D01*
X146739115Y-103300000D01*
X145670330Y-103300000D01*
X145690075Y-103280255D01*
X145739444Y-103194745D01*
X145765000Y-103099370D01*
X145765000Y-103000630D01*
X145739444Y-102905255D01*
X145690075Y-102819745D01*
X145670330Y-102800000D01*
X146739115Y-102800000D01*
X146739115Y-102799999D01*
X146737914Y-102792415D01*
X146684408Y-102627744D01*
X146605804Y-102473475D01*
X146504032Y-102333397D01*
X146381602Y-102210967D01*
X146241524Y-102109195D01*
X146087257Y-102030591D01*
X145922584Y-101977085D01*
X145751571Y-101950000D01*
X145640000Y-101950000D01*
X145640000Y-102769670D01*
X145620255Y-102749925D01*
X145534745Y-102700556D01*
X145439370Y-102675000D01*
X145340630Y-102675000D01*
X145245255Y-102700556D01*
X145159745Y-102749925D01*
X145140000Y-102769670D01*
X145140000Y-101950000D01*
X145028429Y-101950000D01*
X144857415Y-101977085D01*
X144692742Y-102030591D01*
X144538475Y-102109195D01*
X144398397Y-102210967D01*
X144275967Y-102333397D01*
X144174195Y-102473475D01*
X144095591Y-102627744D01*
X144042085Y-102792415D01*
X144040884Y-102799999D01*
X144040885Y-102800000D01*
X145109670Y-102800000D01*
X145089925Y-102819745D01*
X145040556Y-102905255D01*
X145015000Y-103000630D01*
X145015000Y-103099370D01*
X145040556Y-103194745D01*
X145089925Y-103280255D01*
X145109670Y-103300000D01*
X144040885Y-103300000D01*
X144042085Y-103307584D01*
X144095591Y-103472255D01*
X144174195Y-103626524D01*
X144275967Y-103766602D01*
X144383565Y-103874200D01*
X144417050Y-103935523D01*
X144412066Y-104005215D01*
X144370194Y-104061148D01*
X144360981Y-104067420D01*
X144296342Y-104107289D01*
X144172289Y-104231342D01*
X144080187Y-104380663D01*
X144080186Y-104380666D01*
X144025001Y-104547203D01*
X144025001Y-104547204D01*
X144025000Y-104547204D01*
X144014500Y-104649983D01*
X122364225Y-104649983D01*
X122545958Y-101381304D01*
X127699500Y-101381304D01*
X127699500Y-101558695D01*
X127734103Y-101732658D01*
X127734106Y-101732667D01*
X127801983Y-101896540D01*
X127801990Y-101896553D01*
X127900535Y-102044034D01*
X127900538Y-102044038D01*
X128025961Y-102169461D01*
X128025965Y-102169464D01*
X128173446Y-102268009D01*
X128173459Y-102268016D01*
X128296363Y-102318923D01*
X128337334Y-102335894D01*
X128337336Y-102335894D01*
X128337341Y-102335896D01*
X128511304Y-102370499D01*
X128511307Y-102370500D01*
X128511309Y-102370500D01*
X128688693Y-102370500D01*
X128688694Y-102370499D01*
X128746682Y-102358964D01*
X128862658Y-102335896D01*
X128862661Y-102335894D01*
X128862666Y-102335894D01*
X129026547Y-102268013D01*
X129174035Y-102169464D01*
X129299464Y-102044035D01*
X129398013Y-101896547D01*
X129465894Y-101732666D01*
X129500500Y-101558691D01*
X129500500Y-101381309D01*
X129500500Y-101381306D01*
X129500499Y-101381304D01*
X129465896Y-101207341D01*
X129465893Y-101207332D01*
X129398016Y-101043459D01*
X129398009Y-101043446D01*
X129299464Y-100895965D01*
X129299461Y-100895961D01*
X129174038Y-100770538D01*
X129174034Y-100770535D01*
X129026553Y-100671990D01*
X129026540Y-100671983D01*
X128862667Y-100604106D01*
X128862658Y-100604103D01*
X128688694Y-100569500D01*
X128688691Y-100569500D01*
X128511309Y-100569500D01*
X128511306Y-100569500D01*
X128337341Y-100604103D01*
X128337332Y-100604106D01*
X128173459Y-100671983D01*
X128173446Y-100671990D01*
X128025965Y-100770535D01*
X128025961Y-100770538D01*
X127900538Y-100895961D01*
X127900535Y-100895965D01*
X127801990Y-101043446D01*
X127801983Y-101043459D01*
X127734106Y-101207332D01*
X127734103Y-101207341D01*
X127699500Y-101381304D01*
X122545958Y-101381304D01*
X122643841Y-99620768D01*
X122667217Y-99554927D01*
X122722480Y-99512174D01*
X122760765Y-99503846D01*
X130570000Y-99070000D01*
X130900000Y-91690000D01*
X130633583Y-91684741D01*
X126459741Y-91602363D01*
X126393103Y-91581359D01*
X126348399Y-91527663D01*
X126338202Y-91480252D01*
X126286594Y-88041304D01*
X140639500Y-88041304D01*
X140639500Y-88218695D01*
X140674103Y-88392658D01*
X140674106Y-88392667D01*
X140741983Y-88556540D01*
X140741990Y-88556553D01*
X140840535Y-88704034D01*
X140840538Y-88704038D01*
X140965961Y-88829461D01*
X140965965Y-88829464D01*
X141113446Y-88928009D01*
X141113459Y-88928016D01*
X141236363Y-88978923D01*
X141277334Y-88995894D01*
X141277336Y-88995894D01*
X141277341Y-88995896D01*
X141451304Y-89030499D01*
X141451307Y-89030500D01*
X141451309Y-89030500D01*
X141628693Y-89030500D01*
X141628694Y-89030499D01*
X141686682Y-89018964D01*
X141802658Y-88995896D01*
X141802661Y-88995894D01*
X141802666Y-88995894D01*
X141966547Y-88928013D01*
X142114035Y-88829464D01*
X142239464Y-88704035D01*
X142338013Y-88556547D01*
X142405894Y-88392666D01*
X142440500Y-88218691D01*
X142440500Y-88041309D01*
X142440500Y-88041306D01*
X142440499Y-88041304D01*
X142405896Y-87867341D01*
X142405893Y-87867332D01*
X142338016Y-87703459D01*
X142338009Y-87703446D01*
X142239464Y-87555965D01*
X142239461Y-87555961D01*
X142114038Y-87430538D01*
X142114034Y-87430535D01*
X141966553Y-87331990D01*
X141966540Y-87331983D01*
X141802667Y-87264106D01*
X141802658Y-87264103D01*
X141628694Y-87229500D01*
X141628691Y-87229500D01*
X141451309Y-87229500D01*
X141451306Y-87229500D01*
X141277341Y-87264103D01*
X141277332Y-87264106D01*
X141113459Y-87331983D01*
X141113446Y-87331990D01*
X140965965Y-87430535D01*
X140965961Y-87430538D01*
X140840538Y-87555961D01*
X140840535Y-87555965D01*
X140741990Y-87703446D01*
X140741983Y-87703459D01*
X140674106Y-87867332D01*
X140674103Y-87867341D01*
X140639500Y-88041304D01*
X126286594Y-88041304D01*
X126257481Y-86101304D01*
X135709500Y-86101304D01*
X135709500Y-86278695D01*
X135744103Y-86452658D01*
X135744106Y-86452667D01*
X135811983Y-86616540D01*
X135811990Y-86616553D01*
X135910535Y-86764034D01*
X135910538Y-86764038D01*
X136035961Y-86889461D01*
X136035965Y-86889464D01*
X136183446Y-86988009D01*
X136183459Y-86988016D01*
X136306363Y-87038923D01*
X136347334Y-87055894D01*
X136347336Y-87055894D01*
X136347341Y-87055896D01*
X136521304Y-87090499D01*
X136521307Y-87090500D01*
X136521309Y-87090500D01*
X136698693Y-87090500D01*
X136698694Y-87090499D01*
X136756682Y-87078964D01*
X136872658Y-87055896D01*
X136872661Y-87055894D01*
X136872666Y-87055894D01*
X137036547Y-86988013D01*
X137184035Y-86889464D01*
X137309464Y-86764035D01*
X137401877Y-86625729D01*
X137455489Y-86580925D01*
X137524814Y-86572218D01*
X137573870Y-86591519D01*
X137643447Y-86638009D01*
X137643453Y-86638013D01*
X137643455Y-86638014D01*
X137643459Y-86638016D01*
X137766363Y-86688923D01*
X137807334Y-86705894D01*
X137807336Y-86705894D01*
X137807341Y-86705896D01*
X137981304Y-86740499D01*
X137981307Y-86740500D01*
X137981309Y-86740500D01*
X138158693Y-86740500D01*
X138158694Y-86740499D01*
X138216682Y-86728964D01*
X138332658Y-86705896D01*
X138332661Y-86705894D01*
X138332666Y-86705894D01*
X138496547Y-86638013D01*
X138533590Y-86613260D01*
X138600267Y-86592382D01*
X138667648Y-86610866D01*
X138671373Y-86613260D01*
X138690036Y-86625730D01*
X138693453Y-86628013D01*
X138857334Y-86695894D01*
X138857336Y-86695894D01*
X138857341Y-86695896D01*
X139031304Y-86730499D01*
X139031307Y-86730500D01*
X139031309Y-86730500D01*
X139208693Y-86730500D01*
X139208694Y-86730499D01*
X139266682Y-86718964D01*
X139382658Y-86695896D01*
X139382661Y-86695894D01*
X139382666Y-86695894D01*
X139546547Y-86628013D01*
X139694035Y-86529464D01*
X139819464Y-86404035D01*
X139918013Y-86256547D01*
X139985894Y-86092666D01*
X140020500Y-85918691D01*
X140020500Y-85741309D01*
X140020500Y-85741306D01*
X140020499Y-85741304D01*
X139985896Y-85567341D01*
X139985893Y-85567332D01*
X139918016Y-85403459D01*
X139918009Y-85403446D01*
X139819464Y-85255965D01*
X139819461Y-85255961D01*
X139694038Y-85130538D01*
X139694034Y-85130535D01*
X139546553Y-85031990D01*
X139546540Y-85031983D01*
X139382667Y-84964106D01*
X139382658Y-84964103D01*
X139208694Y-84929500D01*
X139208691Y-84929500D01*
X139031309Y-84929500D01*
X139031306Y-84929500D01*
X138857341Y-84964103D01*
X138857332Y-84964106D01*
X138693460Y-85031983D01*
X138693446Y-85031991D01*
X138656404Y-85056741D01*
X138589727Y-85077617D01*
X138522347Y-85059131D01*
X138518625Y-85056739D01*
X138496552Y-85041990D01*
X138496549Y-85041988D01*
X138496547Y-85041987D01*
X138496544Y-85041985D01*
X138496539Y-85041983D01*
X138332667Y-84974106D01*
X138332658Y-84974103D01*
X138158694Y-84939500D01*
X138158691Y-84939500D01*
X137981309Y-84939500D01*
X137981306Y-84939500D01*
X137807341Y-84974103D01*
X137807332Y-84974106D01*
X137643459Y-85041983D01*
X137643446Y-85041990D01*
X137495965Y-85140535D01*
X137495961Y-85140538D01*
X137370538Y-85265961D01*
X137370535Y-85265965D01*
X137278123Y-85404269D01*
X137224510Y-85449074D01*
X137155185Y-85457781D01*
X137106130Y-85438480D01*
X137036553Y-85391990D01*
X137036540Y-85391983D01*
X136872667Y-85324106D01*
X136872658Y-85324103D01*
X136698694Y-85289500D01*
X136698691Y-85289500D01*
X136521309Y-85289500D01*
X136521306Y-85289500D01*
X136347341Y-85324103D01*
X136347332Y-85324106D01*
X136183459Y-85391983D01*
X136183446Y-85391990D01*
X136035965Y-85490535D01*
X136035961Y-85490538D01*
X135910538Y-85615961D01*
X135910535Y-85615965D01*
X135811990Y-85763446D01*
X135811983Y-85763459D01*
X135744106Y-85927332D01*
X135744103Y-85927341D01*
X135709500Y-86101304D01*
X126257481Y-86101304D01*
X126230553Y-84306884D01*
X126249229Y-84239558D01*
X126249568Y-84239017D01*
X127252333Y-82651306D01*
X127252334Y-82651304D01*
X135129500Y-82651304D01*
X135129500Y-82828695D01*
X135164103Y-83002658D01*
X135164106Y-83002667D01*
X135231983Y-83166540D01*
X135231990Y-83166553D01*
X135330535Y-83314034D01*
X135330538Y-83314038D01*
X135455961Y-83439461D01*
X135455965Y-83439464D01*
X135603446Y-83538009D01*
X135603459Y-83538016D01*
X135726363Y-83588923D01*
X135767334Y-83605894D01*
X135767336Y-83605894D01*
X135767341Y-83605896D01*
X135941304Y-83640499D01*
X135941307Y-83640500D01*
X135941309Y-83640500D01*
X136118693Y-83640500D01*
X136118694Y-83640499D01*
X136176682Y-83628964D01*
X136292658Y-83605896D01*
X136292661Y-83605894D01*
X136292666Y-83605894D01*
X136456547Y-83538013D01*
X136604035Y-83439464D01*
X136729464Y-83314035D01*
X136828013Y-83166547D01*
X136895894Y-83002666D01*
X136930500Y-82828691D01*
X136930500Y-82651309D01*
X136930500Y-82651306D01*
X136930499Y-82651304D01*
X136895896Y-82477341D01*
X136895893Y-82477332D01*
X136828016Y-82313459D01*
X136828009Y-82313446D01*
X136729464Y-82165965D01*
X136729461Y-82165961D01*
X136604038Y-82040538D01*
X136604034Y-82040535D01*
X136456553Y-81941990D01*
X136456540Y-81941983D01*
X136292667Y-81874106D01*
X136292658Y-81874103D01*
X136118694Y-81839500D01*
X136118691Y-81839500D01*
X135941309Y-81839500D01*
X135941306Y-81839500D01*
X135767341Y-81874103D01*
X135767332Y-81874106D01*
X135603459Y-81941983D01*
X135603446Y-81941990D01*
X135455965Y-82040535D01*
X135455961Y-82040538D01*
X135330538Y-82165961D01*
X135330535Y-82165965D01*
X135231990Y-82313446D01*
X135231983Y-82313459D01*
X135164106Y-82477332D01*
X135164103Y-82477341D01*
X135129500Y-82651304D01*
X127252334Y-82651304D01*
X127297999Y-82579002D01*
X127558864Y-82165965D01*
X127670000Y-81990000D01*
X128185674Y-79153791D01*
X128202949Y-79109577D01*
X128931058Y-77961306D01*
X132250500Y-77961306D01*
X132250500Y-78138697D01*
X132285103Y-78312660D01*
X132285106Y-78312669D01*
X132352983Y-78476542D01*
X132352990Y-78476555D01*
X132451535Y-78624036D01*
X132451538Y-78624040D01*
X132576961Y-78749463D01*
X132576965Y-78749466D01*
X132724446Y-78848011D01*
X132724459Y-78848018D01*
X132847363Y-78898925D01*
X132888334Y-78915896D01*
X132888336Y-78915896D01*
X132888341Y-78915898D01*
X133062304Y-78950501D01*
X133062307Y-78950502D01*
X133062309Y-78950502D01*
X133239693Y-78950502D01*
X133239694Y-78950501D01*
X133297682Y-78938966D01*
X133413658Y-78915898D01*
X133413661Y-78915896D01*
X133413666Y-78915896D01*
X133577547Y-78848015D01*
X133725035Y-78749466D01*
X133850464Y-78624037D01*
X133949013Y-78476549D01*
X134016894Y-78312668D01*
X134051500Y-78138693D01*
X134051500Y-77961311D01*
X134051500Y-77961308D01*
X134051499Y-77961306D01*
X134016896Y-77787343D01*
X134016893Y-77787334D01*
X133949016Y-77623461D01*
X133949009Y-77623448D01*
X133850464Y-77475967D01*
X133850461Y-77475963D01*
X133725038Y-77350540D01*
X133725034Y-77350537D01*
X133577553Y-77251992D01*
X133577540Y-77251985D01*
X133413667Y-77184108D01*
X133413658Y-77184105D01*
X133239694Y-77149502D01*
X133239691Y-77149502D01*
X133062309Y-77149502D01*
X133062306Y-77149502D01*
X132888341Y-77184105D01*
X132888332Y-77184108D01*
X132724459Y-77251985D01*
X132724446Y-77251992D01*
X132576965Y-77350537D01*
X132576961Y-77350540D01*
X132451538Y-77475963D01*
X132451535Y-77475967D01*
X132352990Y-77623448D01*
X132352983Y-77623461D01*
X132285106Y-77787334D01*
X132285103Y-77787343D01*
X132250500Y-77961306D01*
X128931058Y-77961306D01*
X130210338Y-75943804D01*
X130262863Y-75897728D01*
X130315060Y-75886207D01*
X130372986Y-75886207D01*
X130372987Y-75886206D01*
X130430975Y-75874671D01*
X130546951Y-75851603D01*
X130546954Y-75851601D01*
X130546959Y-75851601D01*
X130710840Y-75783720D01*
X130858328Y-75685171D01*
X130983757Y-75559742D01*
X131082306Y-75412254D01*
X131150187Y-75248373D01*
X131154446Y-75226965D01*
X131184340Y-75076675D01*
X131184793Y-75074398D01*
X131184793Y-74897016D01*
X131184793Y-74897013D01*
X131184792Y-74897011D01*
X131176172Y-74853672D01*
X131182399Y-74784081D01*
X131225262Y-74728903D01*
X131288099Y-74705861D01*
X133181721Y-74557503D01*
X133250089Y-74571891D01*
X133299828Y-74620960D01*
X133313019Y-74656932D01*
X133324104Y-74712660D01*
X133324107Y-74712670D01*
X133391983Y-74876540D01*
X133391990Y-74876553D01*
X133450050Y-74963445D01*
X133470928Y-75030122D01*
X133452444Y-75097503D01*
X133400465Y-75144193D01*
X133331495Y-75155369D01*
X133299498Y-75146898D01*
X133268832Y-75134196D01*
X133268828Y-75134195D01*
X133268824Y-75134193D01*
X133094860Y-75099590D01*
X133094857Y-75099590D01*
X132917475Y-75099590D01*
X132917472Y-75099590D01*
X132743507Y-75134193D01*
X132743498Y-75134196D01*
X132579625Y-75202073D01*
X132579612Y-75202080D01*
X132432131Y-75300625D01*
X132432127Y-75300628D01*
X132306704Y-75426051D01*
X132306701Y-75426055D01*
X132208156Y-75573536D01*
X132208149Y-75573549D01*
X132140272Y-75737422D01*
X132140269Y-75737431D01*
X132105666Y-75911394D01*
X132105666Y-76088785D01*
X132140269Y-76262748D01*
X132140272Y-76262757D01*
X132208149Y-76426630D01*
X132208156Y-76426643D01*
X132306701Y-76574124D01*
X132306704Y-76574128D01*
X132432127Y-76699551D01*
X132432131Y-76699554D01*
X132579612Y-76798099D01*
X132579625Y-76798106D01*
X132702529Y-76849013D01*
X132743500Y-76865984D01*
X132743502Y-76865984D01*
X132743507Y-76865986D01*
X132917470Y-76900589D01*
X132917473Y-76900590D01*
X132917475Y-76900590D01*
X133094859Y-76900590D01*
X133094860Y-76900589D01*
X133152848Y-76889054D01*
X133268824Y-76865986D01*
X133268827Y-76865984D01*
X133268832Y-76865984D01*
X133432713Y-76798103D01*
X133580201Y-76699554D01*
X133705630Y-76574125D01*
X133804179Y-76426637D01*
X133872060Y-76262756D01*
X133906666Y-76088781D01*
X133906666Y-75911399D01*
X133906666Y-75911396D01*
X133906665Y-75911394D01*
X133872062Y-75737431D01*
X133872059Y-75737422D01*
X133804182Y-75573549D01*
X133804175Y-75573536D01*
X133746115Y-75486644D01*
X133725237Y-75419967D01*
X133743721Y-75352587D01*
X133795700Y-75305896D01*
X133864670Y-75294720D01*
X133896665Y-75303190D01*
X133927334Y-75315894D01*
X133927337Y-75315894D01*
X133927341Y-75315896D01*
X134101304Y-75350499D01*
X134101307Y-75350500D01*
X134101309Y-75350500D01*
X134278693Y-75350500D01*
X134278694Y-75350499D01*
X134351763Y-75335965D01*
X134452658Y-75315896D01*
X134452661Y-75315894D01*
X134452666Y-75315894D01*
X134609758Y-75250825D01*
X134616540Y-75248016D01*
X134616540Y-75248015D01*
X134616547Y-75248013D01*
X134616552Y-75248009D01*
X134616555Y-75248008D01*
X134701558Y-75191210D01*
X134768235Y-75170331D01*
X134835616Y-75188815D01*
X134858133Y-75206632D01*
X134878462Y-75226962D01*
X134878465Y-75226964D01*
X135025946Y-75325509D01*
X135025959Y-75325516D01*
X135091316Y-75352587D01*
X135189834Y-75393394D01*
X135189836Y-75393394D01*
X135189841Y-75393396D01*
X135363804Y-75427999D01*
X135363807Y-75428000D01*
X135363809Y-75428000D01*
X135541193Y-75428000D01*
X135541194Y-75427999D01*
X135620351Y-75412254D01*
X135715158Y-75393396D01*
X135715161Y-75393394D01*
X135715166Y-75393394D01*
X135879047Y-75325513D01*
X136026535Y-75226964D01*
X136149945Y-75103553D01*
X136211266Y-75070070D01*
X136280958Y-75075054D01*
X136285062Y-75076668D01*
X136307334Y-75085894D01*
X136438512Y-75111987D01*
X136481304Y-75120499D01*
X136481307Y-75120500D01*
X136481309Y-75120500D01*
X136658693Y-75120500D01*
X136658694Y-75120499D01*
X136743879Y-75103555D01*
X136832658Y-75085896D01*
X136832661Y-75085894D01*
X136832666Y-75085894D01*
X136972535Y-75027958D01*
X136996540Y-75018016D01*
X136996540Y-75018015D01*
X136996547Y-75018013D01*
X137144035Y-74919464D01*
X137269464Y-74794035D01*
X137368013Y-74646547D01*
X137369054Y-74644035D01*
X137430144Y-74496547D01*
X137435894Y-74482666D01*
X137469800Y-74312209D01*
X137502185Y-74250299D01*
X137562900Y-74215725D01*
X137581725Y-74212781D01*
X140170000Y-74010000D01*
X141190000Y-73780000D01*
X141424039Y-70074383D01*
X141470798Y-69334038D01*
X144709500Y-69334038D01*
X144709500Y-69585961D01*
X144748910Y-69834785D01*
X144826760Y-70074383D01*
X144857155Y-70134035D01*
X144921064Y-70259464D01*
X144941132Y-70298848D01*
X145089201Y-70502649D01*
X145089205Y-70502654D01*
X145267345Y-70680794D01*
X145267350Y-70680798D01*
X145445117Y-70809952D01*
X145471155Y-70828870D01*
X145614184Y-70901747D01*
X145695616Y-70943239D01*
X145695618Y-70943239D01*
X145695621Y-70943241D01*
X145935215Y-71021090D01*
X146184038Y-71060500D01*
X146184039Y-71060500D01*
X146435961Y-71060500D01*
X146435962Y-71060500D01*
X146684785Y-71021090D01*
X146924379Y-70943241D01*
X147148845Y-70828870D01*
X147352656Y-70680793D01*
X147530793Y-70502656D01*
X147678870Y-70298845D01*
X147793241Y-70074379D01*
X147871090Y-69834785D01*
X147910500Y-69585962D01*
X147910500Y-69334038D01*
X147871090Y-69085215D01*
X147793241Y-68845621D01*
X147793239Y-68845618D01*
X147793239Y-68845616D01*
X147716040Y-68694106D01*
X147678870Y-68621155D01*
X147650745Y-68582444D01*
X147530798Y-68417350D01*
X147530794Y-68417345D01*
X147352654Y-68239205D01*
X147352649Y-68239201D01*
X147148848Y-68091132D01*
X147148847Y-68091131D01*
X147148845Y-68091130D01*
X147078747Y-68055413D01*
X146924383Y-67976760D01*
X146684785Y-67898910D01*
X146648929Y-67893231D01*
X146435962Y-67859500D01*
X146184038Y-67859500D01*
X146059626Y-67879205D01*
X145935214Y-67898910D01*
X145695616Y-67976760D01*
X145471151Y-68091132D01*
X145267350Y-68239201D01*
X145267345Y-68239205D01*
X145089205Y-68417345D01*
X145089201Y-68417350D01*
X144941132Y-68621151D01*
X144826760Y-68845616D01*
X144748910Y-69085214D01*
X144709500Y-69334038D01*
X141470798Y-69334038D01*
X141471599Y-69321350D01*
X141563926Y-67859500D01*
X141662720Y-66295254D01*
X141686591Y-66229592D01*
X141742174Y-66187256D01*
X141785478Y-66179077D01*
X150384513Y-66110407D01*
X150451704Y-66129555D01*
G37*
%TD.AperFunction*%
%TD*%
%TA.AperFunction,Conductor*%
%TO.N,/ESP23_s3_mini_1_N8/Valim(3.3V)*%
G36*
X150452504Y-58020560D02*
G01*
X150498277Y-58073349D01*
X150509500Y-58124899D01*
X150509500Y-65480992D01*
X150489815Y-65548031D01*
X150437011Y-65593786D01*
X150384892Y-65603416D01*
X150384904Y-65604888D01*
X150380478Y-65604923D01*
X150380476Y-65604923D01*
X147929860Y-65624493D01*
X141781453Y-65673592D01*
X141781432Y-65673593D01*
X141691667Y-65682358D01*
X141691663Y-65682358D01*
X141648356Y-65690538D01*
X141561582Y-65715115D01*
X141435875Y-65785120D01*
X141380294Y-65827456D01*
X141380291Y-65827458D01*
X141279414Y-65930029D01*
X141279412Y-65930031D01*
X141211513Y-66056874D01*
X141211507Y-66056888D01*
X141187644Y-66122531D01*
X141187637Y-66122552D01*
X141158227Y-66263376D01*
X141158224Y-66263398D01*
X140966303Y-69302175D01*
X140961778Y-69373819D01*
X140715230Y-73277471D01*
X140691359Y-73343136D01*
X140635776Y-73385472D01*
X140618753Y-73390618D01*
X140102971Y-73506921D01*
X140085380Y-73509579D01*
X137542236Y-73708825D01*
X137503623Y-73713349D01*
X137484810Y-73716292D01*
X137446648Y-73723774D01*
X137446646Y-73723774D01*
X137440496Y-73726194D01*
X137370904Y-73732418D01*
X137308995Y-73700030D01*
X137292002Y-73679696D01*
X137269464Y-73645965D01*
X137269462Y-73645962D01*
X137144038Y-73520538D01*
X137144034Y-73520535D01*
X136996553Y-73421990D01*
X136996540Y-73421983D01*
X136832667Y-73354106D01*
X136832658Y-73354103D01*
X136658694Y-73319500D01*
X136658691Y-73319500D01*
X136481309Y-73319500D01*
X136481306Y-73319500D01*
X136307341Y-73354103D01*
X136307332Y-73354106D01*
X136143459Y-73421983D01*
X136143446Y-73421990D01*
X135995965Y-73520535D01*
X135995961Y-73520538D01*
X135872555Y-73643945D01*
X135811232Y-73677430D01*
X135741540Y-73672446D01*
X135737462Y-73670841D01*
X135715166Y-73661606D01*
X135715164Y-73661605D01*
X135715163Y-73661605D01*
X135715158Y-73661603D01*
X135541194Y-73627000D01*
X135541191Y-73627000D01*
X135363809Y-73627000D01*
X135363806Y-73627000D01*
X135189841Y-73661603D01*
X135189832Y-73661606D01*
X135025959Y-73729483D01*
X135025946Y-73729490D01*
X134940940Y-73786290D01*
X134874262Y-73807168D01*
X134806882Y-73788683D01*
X134784366Y-73770867D01*
X134764037Y-73750537D01*
X134764034Y-73750535D01*
X134616553Y-73651990D01*
X134616540Y-73651983D01*
X134452667Y-73584106D01*
X134452658Y-73584103D01*
X134278694Y-73549500D01*
X134278691Y-73549500D01*
X134101309Y-73549500D01*
X134101306Y-73549500D01*
X133927341Y-73584103D01*
X133927332Y-73584106D01*
X133763459Y-73651983D01*
X133763446Y-73651990D01*
X133615965Y-73750535D01*
X133615961Y-73750538D01*
X133490538Y-73875961D01*
X133490535Y-73875965D01*
X133402054Y-74008387D01*
X133348442Y-74053192D01*
X133290036Y-74061413D01*
X133289927Y-74063103D01*
X133285818Y-74062837D01*
X133263810Y-74061413D01*
X133142237Y-74053546D01*
X133142236Y-74053546D01*
X131248620Y-74201904D01*
X131181341Y-74216584D01*
X131114067Y-74231263D01*
X131114066Y-74231263D01*
X131114063Y-74231264D01*
X131051231Y-74254303D01*
X131051231Y-74254304D01*
X130982547Y-74290773D01*
X130914105Y-74304826D01*
X130855505Y-74284356D01*
X130710846Y-74187697D01*
X130710833Y-74187690D01*
X130546960Y-74119813D01*
X130546951Y-74119810D01*
X130372987Y-74085207D01*
X130372984Y-74085207D01*
X130195602Y-74085207D01*
X130195599Y-74085207D01*
X130021634Y-74119810D01*
X130021625Y-74119813D01*
X129857752Y-74187690D01*
X129857739Y-74187697D01*
X129710258Y-74286242D01*
X129710254Y-74286245D01*
X129584831Y-74411668D01*
X129584828Y-74411672D01*
X129486283Y-74559153D01*
X129486276Y-74559166D01*
X129418399Y-74723039D01*
X129418396Y-74723048D01*
X129383793Y-74897011D01*
X129383793Y-75074402D01*
X129418396Y-75248365D01*
X129418399Y-75248374D01*
X129486276Y-75412247D01*
X129486283Y-75412260D01*
X129584828Y-75559741D01*
X129584831Y-75559745D01*
X129680132Y-75655046D01*
X129694661Y-75681654D01*
X129711213Y-75707067D01*
X129711243Y-75712021D01*
X129713617Y-75716369D01*
X129711454Y-75746612D01*
X129711639Y-75776936D01*
X129708840Y-75783164D01*
X129708633Y-75786061D01*
X129697173Y-75809129D01*
X129600762Y-75961178D01*
X129600762Y-75961179D01*
X128504148Y-77690606D01*
X128300931Y-78011091D01*
X127776040Y-78838875D01*
X127776030Y-78838892D01*
X127732113Y-78925610D01*
X127732111Y-78925613D01*
X127714839Y-78969819D01*
X127714833Y-78969835D01*
X127688330Y-79063353D01*
X127688326Y-79063368D01*
X127194512Y-81779345D01*
X127177353Y-81823378D01*
X126815552Y-82396233D01*
X126623012Y-82701089D01*
X125850626Y-83924034D01*
X125822173Y-83969084D01*
X125821217Y-83970605D01*
X125821186Y-83970653D01*
X125820843Y-83971202D01*
X125819923Y-83972673D01*
X125776251Y-84072230D01*
X125762123Y-84104436D01*
X125743447Y-84171762D01*
X125737776Y-84215896D01*
X125725110Y-84314468D01*
X125752038Y-86108889D01*
X125752038Y-86108890D01*
X125752671Y-86151088D01*
X125781151Y-88048889D01*
X125781151Y-88048890D01*
X125781784Y-88091088D01*
X125832759Y-91487845D01*
X125844001Y-91586536D01*
X125844002Y-91586540D01*
X125844003Y-91586543D01*
X125854200Y-91633954D01*
X125854201Y-91633960D01*
X125854203Y-91633965D01*
X125884525Y-91728540D01*
X125959909Y-91851092D01*
X125959911Y-91851094D01*
X126004615Y-91904790D01*
X126111469Y-92001136D01*
X126241141Y-92063477D01*
X126306911Y-92084207D01*
X126307681Y-92084457D01*
X126307776Y-92084480D01*
X126307779Y-92084481D01*
X126307782Y-92084482D01*
X126449766Y-92107765D01*
X130244744Y-92182665D01*
X130311382Y-92203669D01*
X130356086Y-92257365D01*
X130366173Y-92312180D01*
X130090440Y-98478591D01*
X130067781Y-98544684D01*
X130012985Y-98588035D01*
X129973442Y-98596861D01*
X122732744Y-98999122D01*
X122732707Y-98999125D01*
X122653334Y-99009893D01*
X122615043Y-99018222D01*
X122538339Y-99041406D01*
X122413170Y-99112352D01*
X122409492Y-99114800D01*
X122409316Y-99114536D01*
X122409314Y-99114538D01*
X122409293Y-99114500D01*
X122408822Y-99113793D01*
X122348768Y-99137268D01*
X122296381Y-99130547D01*
X122167480Y-99084630D01*
X122167479Y-99084629D01*
X122167474Y-99084628D01*
X122112393Y-99073496D01*
X122098988Y-99070787D01*
X122098948Y-99070784D01*
X121955338Y-99062647D01*
X119376556Y-99285505D01*
X119372580Y-99285784D01*
X114757464Y-99535500D01*
X109413620Y-99824646D01*
X109387698Y-99827197D01*
X109369278Y-99829011D01*
X109347704Y-99832100D01*
X109303934Y-99840348D01*
X107512694Y-100260423D01*
X107483905Y-100268078D01*
X107469913Y-100272243D01*
X107441675Y-100281562D01*
X107314794Y-100349400D01*
X107265867Y-100385357D01*
X107265861Y-100385362D01*
X107258491Y-100390779D01*
X107258484Y-100390784D01*
X107169825Y-100477895D01*
X107169282Y-100478419D01*
X107138842Y-100494313D01*
X107108534Y-100510518D01*
X107107906Y-100510467D01*
X107107348Y-100510759D01*
X107073108Y-100507670D01*
X107038889Y-100504919D01*
X107037798Y-100504484D01*
X107037760Y-100504481D01*
X107037728Y-100504456D01*
X107035795Y-100503686D01*
X107012666Y-100494106D01*
X107012658Y-100494103D01*
X106838694Y-100459500D01*
X106838691Y-100459500D01*
X106661309Y-100459500D01*
X106661306Y-100459500D01*
X106487341Y-100494103D01*
X106487332Y-100494106D01*
X106323459Y-100561983D01*
X106323446Y-100561990D01*
X106175965Y-100660535D01*
X106110437Y-100726063D01*
X106049113Y-100759547D01*
X105990180Y-100758025D01*
X105977092Y-100754461D01*
X105935932Y-100732842D01*
X105794864Y-100704533D01*
X105793424Y-100704453D01*
X105786430Y-100702549D01*
X105760117Y-100686364D01*
X105732752Y-100671991D01*
X105730610Y-100668216D01*
X105726917Y-100665944D01*
X105713529Y-100638100D01*
X105698281Y-100611216D01*
X105698520Y-100606884D01*
X105696641Y-100602975D01*
X105700433Y-100572303D01*
X105702140Y-100541453D01*
X105704682Y-100537939D01*
X105705215Y-100533633D01*
X105724987Y-100509881D01*
X105743102Y-100484851D01*
X105747967Y-100482277D01*
X105749918Y-100479935D01*
X105756057Y-100477999D01*
X105780684Y-100464975D01*
X105994416Y-100395530D01*
X106211870Y-100284732D01*
X106409314Y-100141281D01*
X106581886Y-99968709D01*
X106725337Y-99771265D01*
X106836135Y-99553811D01*
X106911552Y-99321702D01*
X106949731Y-99080653D01*
X106949731Y-98836599D01*
X106911552Y-98595550D01*
X106836135Y-98363441D01*
X106725337Y-98145987D01*
X106656867Y-98051746D01*
X106581891Y-97948549D01*
X106581887Y-97948544D01*
X106409312Y-97775969D01*
X106409307Y-97775965D01*
X106211873Y-97632522D01*
X106211872Y-97632521D01*
X106211870Y-97632520D01*
X105994416Y-97521722D01*
X105762307Y-97446305D01*
X105762305Y-97446304D01*
X105762303Y-97446304D01*
X105594000Y-97419647D01*
X105521258Y-97408126D01*
X105277204Y-97408126D01*
X105221324Y-97416976D01*
X105036158Y-97446304D01*
X104804043Y-97521723D01*
X104586588Y-97632522D01*
X104389155Y-97775964D01*
X104277392Y-97887727D01*
X104216069Y-97921211D01*
X104146377Y-97916227D01*
X104090444Y-97874355D01*
X104071780Y-97838363D01*
X104004727Y-97631993D01*
X104004726Y-97631990D01*
X103948541Y-97521722D01*
X103906433Y-97439081D01*
X103779172Y-97263922D01*
X103626078Y-97110828D01*
X103450919Y-96983567D01*
X103258009Y-96885273D01*
X103258006Y-96885272D01*
X103052098Y-96818370D01*
X102945175Y-96801435D01*
X102838254Y-96784500D01*
X102621746Y-96784500D01*
X102550465Y-96795790D01*
X102407901Y-96818370D01*
X102201993Y-96885272D01*
X102201990Y-96885273D01*
X102009080Y-96983567D01*
X101968241Y-97013239D01*
X101833922Y-97110828D01*
X101833920Y-97110830D01*
X101833919Y-97110830D01*
X101680830Y-97263919D01*
X101680830Y-97263920D01*
X101680828Y-97263922D01*
X101626174Y-97339145D01*
X101553567Y-97439080D01*
X101455273Y-97631990D01*
X101455272Y-97631993D01*
X101388370Y-97837901D01*
X101354500Y-98051746D01*
X101354500Y-98268253D01*
X101388370Y-98482098D01*
X101455272Y-98688006D01*
X101455273Y-98688009D01*
X101553567Y-98880919D01*
X101680828Y-99056078D01*
X101833922Y-99209172D01*
X102009081Y-99336433D01*
X102103697Y-99384642D01*
X102201990Y-99434726D01*
X102201993Y-99434727D01*
X102304947Y-99468178D01*
X102407903Y-99501630D01*
X102621746Y-99535500D01*
X102621747Y-99535500D01*
X102838253Y-99535500D01*
X102838254Y-99535500D01*
X103052097Y-99501630D01*
X103258009Y-99434726D01*
X103450919Y-99336433D01*
X103626078Y-99209172D01*
X103663777Y-99171472D01*
X103725097Y-99137988D01*
X103794789Y-99142972D01*
X103850723Y-99184842D01*
X103873930Y-99239755D01*
X103886909Y-99321699D01*
X103886910Y-99321702D01*
X103956377Y-99535500D01*
X103962328Y-99553813D01*
X104073127Y-99771268D01*
X104216570Y-99968702D01*
X104216574Y-99968707D01*
X104389149Y-100141282D01*
X104389154Y-100141286D01*
X104553133Y-100260423D01*
X104586592Y-100284732D01*
X104804046Y-100395530D01*
X105036155Y-100470947D01*
X105277204Y-100509126D01*
X105277205Y-100509126D01*
X105380362Y-100509126D01*
X105447401Y-100528811D01*
X105493156Y-100581615D01*
X105503100Y-100650773D01*
X105474075Y-100714329D01*
X105415297Y-100752103D01*
X105408682Y-100753848D01*
X101635531Y-101638714D01*
X101635528Y-101638714D01*
X101635528Y-101638715D01*
X101587652Y-101656723D01*
X101517974Y-101661900D01*
X101456559Y-101628584D01*
X101426279Y-101579624D01*
X101345593Y-101335804D01*
X101344444Y-101332137D01*
X101147750Y-100668216D01*
X100991206Y-100139817D01*
X100990155Y-100136049D01*
X100674725Y-98933202D01*
X100673792Y-98929401D01*
X100544318Y-98363441D01*
X100396472Y-97717169D01*
X100395674Y-97713416D01*
X100156731Y-96492962D01*
X100156052Y-96489177D01*
X99978956Y-95404038D01*
X118879500Y-95404038D01*
X118879500Y-95655961D01*
X118918910Y-95904785D01*
X118996760Y-96144383D01*
X119111132Y-96368848D01*
X119259201Y-96572649D01*
X119259205Y-96572654D01*
X119437345Y-96750794D01*
X119437350Y-96750798D01*
X119530356Y-96818370D01*
X119641155Y-96898870D01*
X119784184Y-96971747D01*
X119865616Y-97013239D01*
X119865618Y-97013239D01*
X119865621Y-97013241D01*
X120105215Y-97091090D01*
X120354038Y-97130500D01*
X120354039Y-97130500D01*
X120605961Y-97130500D01*
X120605962Y-97130500D01*
X120854785Y-97091090D01*
X121094379Y-97013241D01*
X121318845Y-96898870D01*
X121522656Y-96750793D01*
X121700793Y-96572656D01*
X121848870Y-96368845D01*
X121963241Y-96144379D01*
X122041090Y-95904785D01*
X122080500Y-95655962D01*
X122080500Y-95404038D01*
X122041090Y-95155215D01*
X121963241Y-94915621D01*
X121963239Y-94915618D01*
X121963239Y-94915616D01*
X121921747Y-94834184D01*
X121848870Y-94691155D01*
X121829952Y-94665117D01*
X121700798Y-94487350D01*
X121700794Y-94487345D01*
X121522654Y-94309205D01*
X121522649Y-94309201D01*
X121318848Y-94161132D01*
X121318847Y-94161131D01*
X121318845Y-94161130D01*
X121248747Y-94125413D01*
X121094383Y-94046760D01*
X120854785Y-93968910D01*
X120605962Y-93929500D01*
X120354038Y-93929500D01*
X120229626Y-93949205D01*
X120105214Y-93968910D01*
X119865616Y-94046760D01*
X119641151Y-94161132D01*
X119437350Y-94309201D01*
X119437345Y-94309205D01*
X119259205Y-94487345D01*
X119259201Y-94487350D01*
X119111132Y-94691151D01*
X118996760Y-94915616D01*
X118918910Y-95155214D01*
X118879500Y-95404038D01*
X99978956Y-95404038D01*
X99955746Y-95261818D01*
X99955186Y-95258009D01*
X99793713Y-94024957D01*
X99793275Y-94021142D01*
X99753584Y-93620111D01*
X100573083Y-93620111D01*
X100573083Y-93836618D01*
X100606953Y-94050463D01*
X100673855Y-94256371D01*
X100673856Y-94256374D01*
X100772150Y-94449284D01*
X100899411Y-94624443D01*
X101052505Y-94777537D01*
X101227664Y-94904798D01*
X101322280Y-94953007D01*
X101420573Y-95003091D01*
X101420576Y-95003092D01*
X101523530Y-95036543D01*
X101626486Y-95069995D01*
X101840329Y-95103865D01*
X101840330Y-95103865D01*
X102056836Y-95103865D01*
X102056837Y-95103865D01*
X102270680Y-95069995D01*
X102476592Y-95003091D01*
X102669502Y-94904798D01*
X102844661Y-94777537D01*
X102997755Y-94624443D01*
X103125016Y-94449284D01*
X103223309Y-94256374D01*
X103290213Y-94050462D01*
X103324083Y-93836619D01*
X103324083Y-93620111D01*
X103317025Y-93575551D01*
X103325979Y-93506261D01*
X103370975Y-93452808D01*
X103437726Y-93432168D01*
X103495791Y-93445669D01*
X103586773Y-93492027D01*
X103818882Y-93567444D01*
X104059931Y-93605623D01*
X104059932Y-93605623D01*
X104303984Y-93605623D01*
X104303985Y-93605623D01*
X104545034Y-93567444D01*
X104777143Y-93492027D01*
X104994597Y-93381229D01*
X105192041Y-93237778D01*
X105364613Y-93065206D01*
X105508064Y-92867762D01*
X105618862Y-92650308D01*
X105694279Y-92418199D01*
X105732458Y-92177150D01*
X105732458Y-91933096D01*
X105694279Y-91692047D01*
X105618862Y-91459938D01*
X105508064Y-91242484D01*
X105489737Y-91217259D01*
X105364618Y-91045046D01*
X105364614Y-91045041D01*
X105192039Y-90872466D01*
X105192034Y-90872462D01*
X105015537Y-90744230D01*
X104972871Y-90688900D01*
X104966892Y-90619287D01*
X104999497Y-90557492D01*
X105050102Y-90525982D01*
X105154564Y-90492041D01*
X105372018Y-90381243D01*
X105569462Y-90237792D01*
X105742034Y-90065220D01*
X105885485Y-89867776D01*
X105996283Y-89650322D01*
X106071700Y-89418213D01*
X106109879Y-89177164D01*
X106109879Y-88933110D01*
X106071700Y-88692061D01*
X105996283Y-88459952D01*
X105885485Y-88242498D01*
X105867158Y-88217273D01*
X105742039Y-88045060D01*
X105742035Y-88045055D01*
X105569460Y-87872480D01*
X105569455Y-87872476D01*
X105372021Y-87729033D01*
X105372020Y-87729032D01*
X105372018Y-87729031D01*
X105154564Y-87618233D01*
X104922455Y-87542816D01*
X104922453Y-87542815D01*
X104922451Y-87542815D01*
X104754148Y-87516158D01*
X104681406Y-87504637D01*
X104437352Y-87504637D01*
X104381472Y-87513487D01*
X104196306Y-87542815D01*
X103964191Y-87618234D01*
X103743594Y-87730634D01*
X103674925Y-87743530D01*
X103610184Y-87717254D01*
X103569927Y-87660147D01*
X103563299Y-87620149D01*
X103563299Y-87484622D01*
X103529429Y-87270779D01*
X103462525Y-87064867D01*
X103462525Y-87064866D01*
X103364231Y-86871956D01*
X103236971Y-86696798D01*
X103083877Y-86543704D01*
X102908718Y-86416443D01*
X102715808Y-86318149D01*
X102715805Y-86318148D01*
X102509897Y-86251246D01*
X102402974Y-86234311D01*
X102296053Y-86217376D01*
X102079545Y-86217376D01*
X102008264Y-86228666D01*
X101865700Y-86251246D01*
X101659792Y-86318148D01*
X101659789Y-86318149D01*
X101466879Y-86416443D01*
X101366944Y-86489050D01*
X101291721Y-86543704D01*
X101291719Y-86543706D01*
X101291718Y-86543706D01*
X101138629Y-86696795D01*
X101138629Y-86696796D01*
X101138627Y-86696798D01*
X101083973Y-86772021D01*
X101011366Y-86871956D01*
X100913072Y-87064866D01*
X100913071Y-87064869D01*
X100846169Y-87270777D01*
X100846169Y-87270779D01*
X100812299Y-87484622D01*
X100812299Y-87701130D01*
X100816972Y-87730634D01*
X100846169Y-87914974D01*
X100913071Y-88120882D01*
X100913072Y-88120885D01*
X100975036Y-88242494D01*
X101011366Y-88313795D01*
X101138627Y-88488954D01*
X101291721Y-88642048D01*
X101466880Y-88769309D01*
X101546391Y-88809822D01*
X101659789Y-88867602D01*
X101659792Y-88867603D01*
X101698892Y-88880307D01*
X101865702Y-88934506D01*
X102079545Y-88968376D01*
X102079546Y-88968376D01*
X102296052Y-88968376D01*
X102296053Y-88968376D01*
X102509896Y-88934506D01*
X102715808Y-88867602D01*
X102715808Y-88867601D01*
X102715813Y-88867600D01*
X102829207Y-88809822D01*
X102897877Y-88796925D01*
X102962617Y-88823201D01*
X103002875Y-88880307D01*
X103009121Y-88930031D01*
X103008879Y-88933107D01*
X103008879Y-89177163D01*
X103047057Y-89418209D01*
X103122476Y-89650324D01*
X103233275Y-89867779D01*
X103376718Y-90065213D01*
X103376722Y-90065218D01*
X103549297Y-90237793D01*
X103549302Y-90237797D01*
X103725799Y-90366029D01*
X103768465Y-90421358D01*
X103774444Y-90490972D01*
X103741839Y-90552767D01*
X103691233Y-90584277D01*
X103665146Y-90592753D01*
X103586768Y-90618220D01*
X103369315Y-90729019D01*
X103171881Y-90872462D01*
X103171876Y-90872466D01*
X102999301Y-91045041D01*
X102999297Y-91045046D01*
X102855854Y-91242480D01*
X102745055Y-91459935D01*
X102669636Y-91692050D01*
X102631458Y-91933096D01*
X102631458Y-92177149D01*
X102654618Y-92323378D01*
X102645663Y-92392672D01*
X102600667Y-92446124D01*
X102533915Y-92466763D01*
X102481482Y-92454569D01*
X102481095Y-92455504D01*
X102476589Y-92453637D01*
X102270681Y-92386735D01*
X102163758Y-92369800D01*
X102056837Y-92352865D01*
X101840329Y-92352865D01*
X101769048Y-92364155D01*
X101626484Y-92386735D01*
X101420576Y-92453637D01*
X101420573Y-92453638D01*
X101227663Y-92551932D01*
X101127728Y-92624539D01*
X101052505Y-92679193D01*
X101052503Y-92679195D01*
X101052502Y-92679195D01*
X100899413Y-92832284D01*
X100899413Y-92832285D01*
X100899411Y-92832287D01*
X100873637Y-92867762D01*
X100772150Y-93007445D01*
X100673856Y-93200355D01*
X100673855Y-93200358D01*
X100606953Y-93406266D01*
X100573083Y-93620111D01*
X99753584Y-93620111D01*
X99670790Y-92783566D01*
X99670475Y-92779780D01*
X99587105Y-91538952D01*
X99586909Y-91535140D01*
X99542737Y-90292321D01*
X99542661Y-90288422D01*
X99540131Y-89650322D01*
X99537730Y-89044870D01*
X99537775Y-89041057D01*
X99572092Y-87797922D01*
X99572262Y-87794029D01*
X99577764Y-87701130D01*
X99645786Y-86552665D01*
X99646078Y-86548783D01*
X99646540Y-86543704D01*
X99758743Y-85310320D01*
X99759148Y-85306528D01*
X99910843Y-84072202D01*
X99911379Y-84068353D01*
X99914309Y-84049464D01*
X100076780Y-83001746D01*
X101204500Y-83001746D01*
X101204500Y-83218254D01*
X101211319Y-83261304D01*
X101238370Y-83432098D01*
X101305272Y-83638006D01*
X101305273Y-83638009D01*
X101375859Y-83776540D01*
X101403567Y-83830919D01*
X101530828Y-84006078D01*
X101683922Y-84159172D01*
X101859081Y-84286433D01*
X101953697Y-84334642D01*
X102051990Y-84384726D01*
X102051993Y-84384727D01*
X102154947Y-84418178D01*
X102257903Y-84451630D01*
X102471746Y-84485500D01*
X102471747Y-84485500D01*
X102688253Y-84485500D01*
X102688254Y-84485500D01*
X102902097Y-84451630D01*
X103108009Y-84384726D01*
X103300919Y-84286433D01*
X103476078Y-84159172D01*
X103629172Y-84006078D01*
X103756433Y-83830919D01*
X103854726Y-83638009D01*
X103921630Y-83432097D01*
X103940474Y-83313118D01*
X103970403Y-83249986D01*
X104029714Y-83213054D01*
X104099577Y-83214052D01*
X104150628Y-83244837D01*
X104160259Y-83254468D01*
X104160264Y-83254472D01*
X104240987Y-83313120D01*
X104357702Y-83397918D01*
X104575156Y-83508716D01*
X104807265Y-83584133D01*
X105048314Y-83622312D01*
X105048315Y-83622312D01*
X105292367Y-83622312D01*
X105292368Y-83622312D01*
X105533417Y-83584133D01*
X105765526Y-83508716D01*
X105982980Y-83397918D01*
X106171014Y-83261304D01*
X108919500Y-83261304D01*
X108919500Y-83438695D01*
X108954103Y-83612658D01*
X108954106Y-83612667D01*
X109021983Y-83776540D01*
X109021990Y-83776553D01*
X109120535Y-83924034D01*
X109120538Y-83924038D01*
X109245961Y-84049461D01*
X109245965Y-84049464D01*
X109393446Y-84148009D01*
X109393459Y-84148016D01*
X109516363Y-84198923D01*
X109557334Y-84215894D01*
X109557336Y-84215894D01*
X109557341Y-84215896D01*
X109731304Y-84250499D01*
X109731307Y-84250500D01*
X109731309Y-84250500D01*
X109908693Y-84250500D01*
X109908694Y-84250499D01*
X109966682Y-84238964D01*
X110082658Y-84215896D01*
X110082661Y-84215894D01*
X110082666Y-84215894D01*
X110246547Y-84148013D01*
X110394035Y-84049464D01*
X110519464Y-83924035D01*
X110618013Y-83776547D01*
X110685894Y-83612666D01*
X110706572Y-83508714D01*
X110720499Y-83438695D01*
X110720500Y-83438693D01*
X110720500Y-83261306D01*
X110720499Y-83261304D01*
X110685896Y-83087341D01*
X110685893Y-83087332D01*
X110618016Y-82923459D01*
X110618009Y-82923446D01*
X110519464Y-82775965D01*
X110519461Y-82775961D01*
X110394038Y-82650538D01*
X110394034Y-82650535D01*
X110246553Y-82551990D01*
X110246540Y-82551983D01*
X110082667Y-82484106D01*
X110082658Y-82484103D01*
X109908694Y-82449500D01*
X109908691Y-82449500D01*
X109731309Y-82449500D01*
X109731306Y-82449500D01*
X109557341Y-82484103D01*
X109557332Y-82484106D01*
X109393459Y-82551983D01*
X109393446Y-82551990D01*
X109245965Y-82650535D01*
X109245961Y-82650538D01*
X109120538Y-82775961D01*
X109120535Y-82775965D01*
X109021990Y-82923446D01*
X109021983Y-82923459D01*
X108954106Y-83087332D01*
X108954103Y-83087341D01*
X108919500Y-83261304D01*
X106171014Y-83261304D01*
X106180424Y-83254467D01*
X106352996Y-83081895D01*
X106496447Y-82884451D01*
X106607245Y-82666997D01*
X106682662Y-82434888D01*
X106720841Y-82193839D01*
X106720841Y-81949785D01*
X106682662Y-81708736D01*
X106607245Y-81476627D01*
X106496447Y-81259173D01*
X106478120Y-81233948D01*
X106353001Y-81061735D01*
X106352997Y-81061730D01*
X106180422Y-80889155D01*
X106180417Y-80889151D01*
X106088070Y-80822057D01*
X106045404Y-80766727D01*
X106039425Y-80697114D01*
X106072031Y-80635319D01*
X106132869Y-80600962D01*
X106141535Y-80599270D01*
X106295883Y-80574823D01*
X106335381Y-80568568D01*
X106335381Y-80568567D01*
X106335386Y-80568567D01*
X106567495Y-80493150D01*
X106784949Y-80382352D01*
X106982393Y-80238901D01*
X107154965Y-80066329D01*
X107298416Y-79868885D01*
X107409214Y-79651431D01*
X107484631Y-79419322D01*
X107522810Y-79178273D01*
X107522810Y-78934219D01*
X107484631Y-78693170D01*
X107409214Y-78461061D01*
X107298416Y-78243607D01*
X107271407Y-78206432D01*
X107154970Y-78046169D01*
X107154966Y-78046164D01*
X106982391Y-77873589D01*
X106982386Y-77873585D01*
X106784952Y-77730142D01*
X106784951Y-77730141D01*
X106784949Y-77730140D01*
X106567495Y-77619342D01*
X106335386Y-77543925D01*
X106335384Y-77543924D01*
X106335382Y-77543924D01*
X106167079Y-77517267D01*
X106094337Y-77505746D01*
X105850283Y-77505746D01*
X105794403Y-77514596D01*
X105609237Y-77543924D01*
X105609232Y-77543925D01*
X105538892Y-77566780D01*
X105469051Y-77568775D01*
X105409219Y-77532694D01*
X105378391Y-77469993D01*
X105382644Y-77410531D01*
X105385349Y-77402203D01*
X105401630Y-77352097D01*
X105435500Y-77138254D01*
X105435500Y-76921746D01*
X105401630Y-76707903D01*
X105334726Y-76501991D01*
X105334726Y-76501990D01*
X105236432Y-76309080D01*
X105109172Y-76133922D01*
X104956078Y-75980828D01*
X104780919Y-75853567D01*
X104588009Y-75755273D01*
X104588006Y-75755272D01*
X104382098Y-75688370D01*
X104275175Y-75671435D01*
X104168254Y-75654500D01*
X103951746Y-75654500D01*
X103880465Y-75665790D01*
X103737901Y-75688370D01*
X103531993Y-75755272D01*
X103531990Y-75755273D01*
X103339080Y-75853567D01*
X103239145Y-75926174D01*
X103163922Y-75980828D01*
X103163920Y-75980830D01*
X103163919Y-75980830D01*
X103010830Y-76133919D01*
X103010830Y-76133920D01*
X103010828Y-76133922D01*
X102956174Y-76209145D01*
X102883567Y-76309080D01*
X102785273Y-76501990D01*
X102785272Y-76501993D01*
X102718370Y-76707901D01*
X102684500Y-76921746D01*
X102684500Y-77138253D01*
X102718370Y-77352098D01*
X102785272Y-77558006D01*
X102785273Y-77558009D01*
X102883567Y-77750919D01*
X103010828Y-77926078D01*
X103163922Y-78079172D01*
X103339081Y-78206433D01*
X103412031Y-78243603D01*
X103531990Y-78304726D01*
X103531993Y-78304727D01*
X103634947Y-78338178D01*
X103737903Y-78371630D01*
X103951746Y-78405500D01*
X103951747Y-78405500D01*
X104168253Y-78405500D01*
X104168254Y-78405500D01*
X104374500Y-78372833D01*
X104443792Y-78381787D01*
X104497244Y-78426783D01*
X104517884Y-78493535D01*
X104511828Y-78533623D01*
X104459989Y-78693168D01*
X104459988Y-78693173D01*
X104421810Y-78934219D01*
X104421810Y-79178272D01*
X104459988Y-79419318D01*
X104535407Y-79651433D01*
X104646206Y-79868888D01*
X104789649Y-80066322D01*
X104789653Y-80066327D01*
X104962228Y-80238902D01*
X104962233Y-80238906D01*
X105054580Y-80306000D01*
X105097246Y-80361330D01*
X105103225Y-80430943D01*
X105070620Y-80492738D01*
X105009781Y-80527095D01*
X105001093Y-80528791D01*
X104807268Y-80559490D01*
X104575153Y-80634909D01*
X104357698Y-80745708D01*
X104160264Y-80889151D01*
X104160259Y-80889155D01*
X103987684Y-81061730D01*
X103987680Y-81061735D01*
X103844237Y-81259169D01*
X103733438Y-81476624D01*
X103658019Y-81708739D01*
X103620887Y-81943181D01*
X103590958Y-82006316D01*
X103531646Y-82043247D01*
X103461784Y-82042249D01*
X103425529Y-82024101D01*
X103300922Y-81933569D01*
X103300921Y-81933568D01*
X103300919Y-81933567D01*
X103239115Y-81902076D01*
X103108009Y-81835273D01*
X103108006Y-81835272D01*
X102902098Y-81768370D01*
X102795175Y-81751435D01*
X102688254Y-81734500D01*
X102471746Y-81734500D01*
X102400465Y-81745790D01*
X102257901Y-81768370D01*
X102051993Y-81835272D01*
X102051990Y-81835273D01*
X101859080Y-81933567D01*
X101759145Y-82006174D01*
X101683922Y-82060828D01*
X101683920Y-82060830D01*
X101683919Y-82060830D01*
X101530830Y-82213919D01*
X101530830Y-82213920D01*
X101530828Y-82213922D01*
X101476174Y-82289145D01*
X101403567Y-82389080D01*
X101305273Y-82581990D01*
X101305272Y-82581993D01*
X101238370Y-82787901D01*
X101216900Y-82923459D01*
X101204500Y-83001746D01*
X100076780Y-83001746D01*
X100101936Y-82839523D01*
X100102593Y-82835685D01*
X100111555Y-82787903D01*
X100331843Y-81613421D01*
X100332610Y-81609657D01*
X100600330Y-80395180D01*
X100601206Y-80391486D01*
X100907117Y-79186063D01*
X100908105Y-79182412D01*
X101251907Y-77987232D01*
X101253015Y-77983593D01*
X101634373Y-76799821D01*
X101635574Y-76796286D01*
X102054104Y-75625123D01*
X102055425Y-75621603D01*
X102510687Y-74464273D01*
X102512129Y-74460770D01*
X103003668Y-73318429D01*
X103005260Y-73314884D01*
X103007800Y-73309461D01*
X103296381Y-72693129D01*
X104223591Y-72693129D01*
X104223591Y-72909636D01*
X104257461Y-73123481D01*
X104324363Y-73329389D01*
X104324364Y-73329392D01*
X104421758Y-73520535D01*
X104422658Y-73522302D01*
X104549919Y-73697461D01*
X104703013Y-73850555D01*
X104878172Y-73977816D01*
X104938171Y-74008387D01*
X105071081Y-74076109D01*
X105071084Y-74076110D01*
X105174038Y-74109561D01*
X105276994Y-74143013D01*
X105490837Y-74176883D01*
X105490838Y-74176883D01*
X105707344Y-74176883D01*
X105707345Y-74176883D01*
X105921188Y-74143013D01*
X106127100Y-74076109D01*
X106320010Y-73977816D01*
X106495169Y-73850555D01*
X106648263Y-73697461D01*
X106775524Y-73522302D01*
X106866309Y-73344126D01*
X106914283Y-73293332D01*
X106982104Y-73276537D01*
X107048238Y-73299074D01*
X107077111Y-73327538D01*
X107187210Y-73479077D01*
X107187214Y-73479082D01*
X107359789Y-73651657D01*
X107359794Y-73651661D01*
X107495884Y-73750535D01*
X107557232Y-73795107D01*
X107774686Y-73905905D01*
X108006795Y-73981322D01*
X108247844Y-74019501D01*
X108247845Y-74019501D01*
X108491897Y-74019501D01*
X108491898Y-74019501D01*
X108732947Y-73981322D01*
X108733002Y-73981304D01*
X125639500Y-73981304D01*
X125639500Y-74158695D01*
X125674103Y-74332658D01*
X125674106Y-74332667D01*
X125741983Y-74496540D01*
X125741990Y-74496553D01*
X125840535Y-74644034D01*
X125840538Y-74644038D01*
X125965961Y-74769461D01*
X125965965Y-74769464D01*
X126113446Y-74868009D01*
X126113459Y-74868016D01*
X126183461Y-74897011D01*
X126277334Y-74935894D01*
X126277336Y-74935894D01*
X126277341Y-74935896D01*
X126451304Y-74970499D01*
X126451307Y-74970500D01*
X126451309Y-74970500D01*
X126628693Y-74970500D01*
X126628694Y-74970499D01*
X126686682Y-74958964D01*
X126802658Y-74935896D01*
X126802661Y-74935894D01*
X126802666Y-74935894D01*
X126966547Y-74868013D01*
X127114035Y-74769464D01*
X127239464Y-74644035D01*
X127338013Y-74496547D01*
X127405894Y-74332666D01*
X127408635Y-74318889D01*
X127440499Y-74158695D01*
X127440500Y-74158693D01*
X127440500Y-73981306D01*
X127440499Y-73981304D01*
X127405896Y-73807341D01*
X127405893Y-73807332D01*
X127398168Y-73788683D01*
X127388923Y-73766363D01*
X127338016Y-73643459D01*
X127338009Y-73643446D01*
X127239464Y-73495965D01*
X127239461Y-73495961D01*
X127114038Y-73370538D01*
X127114034Y-73370535D01*
X126966553Y-73271990D01*
X126966540Y-73271983D01*
X126802667Y-73204106D01*
X126802658Y-73204103D01*
X126628694Y-73169500D01*
X126628691Y-73169500D01*
X126451309Y-73169500D01*
X126451306Y-73169500D01*
X126277341Y-73204103D01*
X126277332Y-73204106D01*
X126113459Y-73271983D01*
X126113446Y-73271990D01*
X125965965Y-73370535D01*
X125965961Y-73370538D01*
X125840538Y-73495961D01*
X125840535Y-73495965D01*
X125741990Y-73643446D01*
X125741983Y-73643459D01*
X125674106Y-73807332D01*
X125674103Y-73807341D01*
X125639500Y-73981304D01*
X108733002Y-73981304D01*
X108965056Y-73905905D01*
X109182510Y-73795107D01*
X109379954Y-73651656D01*
X109552526Y-73479084D01*
X109695977Y-73281640D01*
X109806775Y-73064186D01*
X109882192Y-72832077D01*
X109920371Y-72591028D01*
X109920371Y-72521304D01*
X116139500Y-72521304D01*
X116139500Y-72698695D01*
X116174103Y-72872658D01*
X116174106Y-72872667D01*
X116241983Y-73036540D01*
X116241990Y-73036553D01*
X116340535Y-73184034D01*
X116340538Y-73184038D01*
X116465961Y-73309461D01*
X116465965Y-73309464D01*
X116613446Y-73408009D01*
X116613459Y-73408016D01*
X116736363Y-73458923D01*
X116777334Y-73475894D01*
X116777336Y-73475894D01*
X116777341Y-73475896D01*
X116951304Y-73510499D01*
X116951307Y-73510500D01*
X116951309Y-73510500D01*
X117128693Y-73510500D01*
X117128694Y-73510499D01*
X117201783Y-73495961D01*
X117302658Y-73475896D01*
X117302661Y-73475894D01*
X117302666Y-73475894D01*
X117466547Y-73408013D01*
X117614035Y-73309464D01*
X117739464Y-73184035D01*
X117838013Y-73036547D01*
X117905894Y-72872666D01*
X117940500Y-72698691D01*
X117940500Y-72521309D01*
X117940500Y-72521306D01*
X117940499Y-72521304D01*
X117905896Y-72347341D01*
X117905893Y-72347332D01*
X117838016Y-72183459D01*
X117838009Y-72183446D01*
X117739464Y-72035965D01*
X117739461Y-72035961D01*
X117614038Y-71910538D01*
X117614034Y-71910535D01*
X117466553Y-71811990D01*
X117466540Y-71811983D01*
X117302667Y-71744106D01*
X117302658Y-71744103D01*
X117128694Y-71709500D01*
X117128691Y-71709500D01*
X116951309Y-71709500D01*
X116951306Y-71709500D01*
X116777341Y-71744103D01*
X116777332Y-71744106D01*
X116613459Y-71811983D01*
X116613446Y-71811990D01*
X116465965Y-71910535D01*
X116465961Y-71910538D01*
X116340538Y-72035961D01*
X116340535Y-72035965D01*
X116241990Y-72183446D01*
X116241983Y-72183459D01*
X116174106Y-72347332D01*
X116174103Y-72347341D01*
X116139500Y-72521304D01*
X109920371Y-72521304D01*
X109920371Y-72346974D01*
X109882192Y-72105925D01*
X109806775Y-71873816D01*
X109695977Y-71656362D01*
X109601741Y-71526657D01*
X109552531Y-71458924D01*
X109552527Y-71458919D01*
X109379952Y-71286344D01*
X109379947Y-71286340D01*
X109182513Y-71142897D01*
X109182512Y-71142896D01*
X109182510Y-71142895D01*
X108965056Y-71032097D01*
X108732947Y-70956680D01*
X108732945Y-70956679D01*
X108732943Y-70956679D01*
X108564640Y-70930022D01*
X108491898Y-70918501D01*
X108247844Y-70918501D01*
X108191964Y-70927351D01*
X108006798Y-70956679D01*
X107774683Y-71032098D01*
X107557228Y-71142897D01*
X107359794Y-71286340D01*
X107359789Y-71286344D01*
X107187214Y-71458919D01*
X107187210Y-71458924D01*
X107043767Y-71656358D01*
X106932968Y-71873812D01*
X106913122Y-71934892D01*
X106873683Y-71992567D01*
X106809324Y-72019765D01*
X106740478Y-72007850D01*
X106694873Y-71969458D01*
X106652065Y-71910538D01*
X106648263Y-71905305D01*
X106495169Y-71752211D01*
X106320010Y-71624950D01*
X106127100Y-71526656D01*
X106127097Y-71526655D01*
X105921189Y-71459753D01*
X105814266Y-71442818D01*
X105707345Y-71425883D01*
X105490837Y-71425883D01*
X105419556Y-71437173D01*
X105276992Y-71459753D01*
X105071084Y-71526655D01*
X105071081Y-71526656D01*
X104878171Y-71624950D01*
X104834937Y-71656362D01*
X104703013Y-71752211D01*
X104703011Y-71752213D01*
X104703010Y-71752213D01*
X104549921Y-71905302D01*
X104549921Y-71905303D01*
X104549919Y-71905305D01*
X104546117Y-71910538D01*
X104422658Y-72080463D01*
X104324364Y-72273373D01*
X104324363Y-72273376D01*
X104257461Y-72479284D01*
X104223591Y-72693129D01*
X103296381Y-72693129D01*
X103532588Y-72188652D01*
X103534296Y-72185151D01*
X103535155Y-72183459D01*
X104096871Y-71076182D01*
X104098692Y-71072729D01*
X104162245Y-70956680D01*
X104696016Y-69982002D01*
X104697940Y-69978618D01*
X105329371Y-68907311D01*
X105331369Y-68904041D01*
X105820317Y-68131304D01*
X123679500Y-68131304D01*
X123679500Y-68308695D01*
X123714103Y-68482658D01*
X123714106Y-68482667D01*
X123781983Y-68646540D01*
X123781990Y-68646553D01*
X123880535Y-68794034D01*
X123880538Y-68794038D01*
X124005961Y-68919461D01*
X124005965Y-68919464D01*
X124153446Y-69018009D01*
X124153459Y-69018016D01*
X124276363Y-69068923D01*
X124317334Y-69085894D01*
X124317336Y-69085894D01*
X124317341Y-69085896D01*
X124491304Y-69120499D01*
X124491307Y-69120500D01*
X124491309Y-69120500D01*
X124668693Y-69120500D01*
X124668694Y-69120499D01*
X124726682Y-69108964D01*
X124842658Y-69085896D01*
X124842661Y-69085894D01*
X124842666Y-69085894D01*
X125006547Y-69018013D01*
X125154035Y-68919464D01*
X125279464Y-68794035D01*
X125378013Y-68646547D01*
X125445894Y-68482666D01*
X125447131Y-68476450D01*
X125480499Y-68308695D01*
X125480500Y-68308693D01*
X125480500Y-68131306D01*
X125480499Y-68131304D01*
X125445896Y-67957341D01*
X125445893Y-67957332D01*
X125378016Y-67793459D01*
X125378009Y-67793446D01*
X125279464Y-67645965D01*
X125279461Y-67645961D01*
X125154038Y-67520538D01*
X125154034Y-67520535D01*
X125006553Y-67421990D01*
X125006540Y-67421983D01*
X124842667Y-67354106D01*
X124842658Y-67354103D01*
X124668694Y-67319500D01*
X124668691Y-67319500D01*
X124491309Y-67319500D01*
X124491306Y-67319500D01*
X124317341Y-67354103D01*
X124317332Y-67354106D01*
X124153459Y-67421983D01*
X124153446Y-67421990D01*
X124005965Y-67520535D01*
X124005961Y-67520538D01*
X123880538Y-67645961D01*
X123880535Y-67645965D01*
X123781990Y-67793446D01*
X123781983Y-67793459D01*
X123714106Y-67957332D01*
X123714103Y-67957341D01*
X123679500Y-68131304D01*
X105820317Y-68131304D01*
X105996325Y-67853140D01*
X105998414Y-67849951D01*
X106696233Y-66820514D01*
X106698420Y-66817396D01*
X106710086Y-66801304D01*
X126339500Y-66801304D01*
X126339500Y-66978695D01*
X126374103Y-67152658D01*
X126374106Y-67152667D01*
X126441983Y-67316540D01*
X126441990Y-67316553D01*
X126540535Y-67464034D01*
X126540538Y-67464038D01*
X126665961Y-67589461D01*
X126665965Y-67589464D01*
X126813446Y-67688009D01*
X126813459Y-67688016D01*
X126911781Y-67728741D01*
X126977334Y-67755894D01*
X127072097Y-67774743D01*
X127134007Y-67807127D01*
X127162466Y-67848908D01*
X127221039Y-67990318D01*
X127221046Y-67990331D01*
X127319591Y-68137812D01*
X127319594Y-68137816D01*
X127445017Y-68263239D01*
X127445021Y-68263242D01*
X127592502Y-68361787D01*
X127592515Y-68361794D01*
X127690837Y-68402519D01*
X127756390Y-68429672D01*
X127828756Y-68444066D01*
X127890666Y-68476450D01*
X127925240Y-68537166D01*
X127926181Y-68541490D01*
X127934326Y-68582439D01*
X127934328Y-68582445D01*
X128002205Y-68746318D01*
X128002212Y-68746331D01*
X128100757Y-68893812D01*
X128100760Y-68893816D01*
X128226183Y-69019239D01*
X128226187Y-69019242D01*
X128373668Y-69117787D01*
X128373681Y-69117794D01*
X128496585Y-69168701D01*
X128537556Y-69185672D01*
X128537558Y-69185672D01*
X128537563Y-69185674D01*
X128711526Y-69220277D01*
X128711529Y-69220278D01*
X128711531Y-69220278D01*
X128888915Y-69220278D01*
X128888916Y-69220277D01*
X128946904Y-69208742D01*
X129062880Y-69185674D01*
X129062883Y-69185672D01*
X129062888Y-69185672D01*
X129226769Y-69117791D01*
X129374257Y-69019242D01*
X129499686Y-68893813D01*
X129598235Y-68746325D01*
X129666116Y-68582444D01*
X129674263Y-68541490D01*
X129700721Y-68408473D01*
X129700722Y-68408471D01*
X129700722Y-68231084D01*
X129700721Y-68231082D01*
X129666118Y-68057119D01*
X129666115Y-68057110D01*
X129598238Y-67893237D01*
X129598231Y-67893224D01*
X129499686Y-67745743D01*
X129499683Y-67745739D01*
X129374260Y-67620316D01*
X129374256Y-67620313D01*
X129226775Y-67521768D01*
X129226762Y-67521761D01*
X129062889Y-67453884D01*
X129062880Y-67453881D01*
X128990521Y-67439489D01*
X128928610Y-67407104D01*
X128894036Y-67346389D01*
X128893106Y-67342116D01*
X128884950Y-67301112D01*
X128823463Y-67152667D01*
X128817072Y-67137237D01*
X128817065Y-67137224D01*
X128718520Y-66989743D01*
X128718517Y-66989739D01*
X128593094Y-66864316D01*
X128593090Y-66864313D01*
X128445609Y-66765768D01*
X128445596Y-66765761D01*
X128281723Y-66697884D01*
X128281714Y-66697881D01*
X128186959Y-66679034D01*
X128125048Y-66646649D01*
X128096589Y-66604869D01*
X128038016Y-66463459D01*
X128038009Y-66463446D01*
X127939464Y-66315965D01*
X127939461Y-66315961D01*
X127814038Y-66190538D01*
X127814034Y-66190535D01*
X127666553Y-66091990D01*
X127666540Y-66091983D01*
X127502667Y-66024106D01*
X127502658Y-66024103D01*
X127328694Y-65989500D01*
X127328691Y-65989500D01*
X127151309Y-65989500D01*
X127151306Y-65989500D01*
X126977341Y-66024103D01*
X126977332Y-66024106D01*
X126813459Y-66091983D01*
X126813446Y-66091990D01*
X126665965Y-66190535D01*
X126665961Y-66190538D01*
X126540538Y-66315961D01*
X126540535Y-66315965D01*
X126441990Y-66463446D01*
X126441983Y-66463459D01*
X126374106Y-66627332D01*
X126374103Y-66627341D01*
X126339500Y-66801304D01*
X106710086Y-66801304D01*
X107428350Y-65810531D01*
X107430645Y-65807468D01*
X108191956Y-64824175D01*
X108194396Y-64821125D01*
X108348647Y-64634383D01*
X108960179Y-63894038D01*
X112319500Y-63894038D01*
X112319500Y-64145961D01*
X112358910Y-64394785D01*
X112436760Y-64634383D01*
X112551132Y-64858848D01*
X112699201Y-65062649D01*
X112699205Y-65062654D01*
X112877345Y-65240794D01*
X112877350Y-65240798D01*
X113055117Y-65369952D01*
X113081155Y-65388870D01*
X113224184Y-65461747D01*
X113305616Y-65503239D01*
X113305618Y-65503239D01*
X113305621Y-65503241D01*
X113545215Y-65581090D01*
X113794038Y-65620500D01*
X113794039Y-65620500D01*
X114045961Y-65620500D01*
X114045962Y-65620500D01*
X114294785Y-65581090D01*
X114534379Y-65503241D01*
X114758845Y-65388870D01*
X114962656Y-65240793D01*
X115140793Y-65062656D01*
X115288870Y-64858845D01*
X115403241Y-64634379D01*
X115481090Y-64394785D01*
X115520500Y-64145962D01*
X115520500Y-63894038D01*
X115481090Y-63645215D01*
X115403241Y-63405621D01*
X115403239Y-63405618D01*
X115403239Y-63405616D01*
X115361747Y-63324184D01*
X115288870Y-63181155D01*
X115269952Y-63155117D01*
X115140798Y-62977350D01*
X115140794Y-62977345D01*
X114962654Y-62799205D01*
X114962649Y-62799201D01*
X114758848Y-62651132D01*
X114758847Y-62651131D01*
X114758845Y-62651130D01*
X114688747Y-62615413D01*
X114534383Y-62536760D01*
X114294785Y-62458910D01*
X114045962Y-62419500D01*
X113794038Y-62419500D01*
X113669626Y-62439205D01*
X113545214Y-62458910D01*
X113305616Y-62536760D01*
X113081151Y-62651132D01*
X112877350Y-62799201D01*
X112877345Y-62799205D01*
X112699205Y-62977345D01*
X112699201Y-62977350D01*
X112551132Y-63181151D01*
X112436760Y-63405616D01*
X112358910Y-63645214D01*
X112319500Y-63894038D01*
X108960179Y-63894038D01*
X108986378Y-63862321D01*
X108988827Y-63859451D01*
X109810699Y-62926085D01*
X109813262Y-62923265D01*
X110664192Y-62016287D01*
X110666845Y-62013548D01*
X110799007Y-61881304D01*
X121879500Y-61881304D01*
X121879500Y-62058695D01*
X121914103Y-62232658D01*
X121914106Y-62232667D01*
X121981983Y-62396540D01*
X121981990Y-62396553D01*
X122080535Y-62544034D01*
X122080538Y-62544038D01*
X122205961Y-62669461D01*
X122205965Y-62669464D01*
X122353446Y-62768009D01*
X122353459Y-62768016D01*
X122476363Y-62818923D01*
X122517334Y-62835894D01*
X122517336Y-62835894D01*
X122517341Y-62835896D01*
X122691304Y-62870499D01*
X122691307Y-62870500D01*
X122691309Y-62870500D01*
X122868693Y-62870500D01*
X122868694Y-62870499D01*
X122926682Y-62858964D01*
X123042658Y-62835896D01*
X123042661Y-62835894D01*
X123042666Y-62835894D01*
X123206547Y-62768013D01*
X123354035Y-62669464D01*
X123479464Y-62544035D01*
X123578013Y-62396547D01*
X123645894Y-62232666D01*
X123680500Y-62058691D01*
X123680500Y-61881309D01*
X123680500Y-61881306D01*
X123680499Y-61881304D01*
X123645896Y-61707341D01*
X123645893Y-61707332D01*
X123578016Y-61543459D01*
X123578009Y-61543446D01*
X123479464Y-61395965D01*
X123479461Y-61395961D01*
X123354038Y-61270538D01*
X123354034Y-61270535D01*
X123206553Y-61171990D01*
X123206540Y-61171983D01*
X123042667Y-61104106D01*
X123042658Y-61104103D01*
X122868694Y-61069500D01*
X122868691Y-61069500D01*
X122691309Y-61069500D01*
X122691306Y-61069500D01*
X122517341Y-61104103D01*
X122517332Y-61104106D01*
X122353459Y-61171983D01*
X122353446Y-61171990D01*
X122205965Y-61270535D01*
X122205961Y-61270538D01*
X122080538Y-61395961D01*
X122080535Y-61395965D01*
X121981990Y-61543446D01*
X121981983Y-61543459D01*
X121914106Y-61707332D01*
X121914103Y-61707341D01*
X121879500Y-61881304D01*
X110799007Y-61881304D01*
X111545915Y-61133932D01*
X111548668Y-61131263D01*
X112455111Y-60279775D01*
X112457924Y-60277216D01*
X113390749Y-59454789D01*
X113393646Y-59452314D01*
X114351989Y-58659711D01*
X114354955Y-58657336D01*
X115152540Y-58039015D01*
X115217581Y-58013500D01*
X115228456Y-58013017D01*
X150385461Y-58000900D01*
X150452504Y-58020560D01*
G37*
%TD.AperFunction*%
%TD*%
M02*
