M48
; DRILL file {KiCad 9.0.1} date 2026-03-23T11:17:41+0100
; FORMAT={-:-/ absolute / metric / decimal}
; #@! TF.CreationDate,2026-03-23T11:17:41+01:00
; #@! TF.GenerationSoftware,Kicad,Pcbnew,9.0.1
; #@! TF.FileFunction,Plated,1,4,PTH
FMAT,2
METRIC
; #@! TA.AperFunction,Plated,PTH,ViaDrill
T1C0.400
; #@! TA.AperFunction,Plated,PTH,ComponentDrill
T2C0.600
; #@! TA.AperFunction,Plated,PTH,ComponentDrill
T3C0.750
; #@! TA.AperFunction,Plated,PTH,ComponentDrill
T4C0.990
; #@! TA.AperFunction,Plated,PTH,ComponentDrill
T5C1.300
%
G90
G05
T1
X106.75Y-101.36
X108.01Y-105.08
X109.82Y-83.35
X111.51Y-91.67
X112.85Y-107.65
X113.57Y-110.95
X113.96Y-115.81
X114.56Y-75.9
X115.76Y-114.02
X116.35Y-75.92
X117.04Y-72.61
X117.5Y-117.06
X119.08Y-114.68
X119.24Y-118.04
X121.2Y-69.56
X122.06Y-75.91
X122.78Y-61.97
X124.15Y-113.61
X124.58Y-68.22
X124.6Y-61.38
X125.8Y-108.33
X125.97Y-95.61
X126.28Y-105.01
X126.54Y-74.07
X127.24Y-66.89
X128.019Y-67.564
X128.6Y-101.47
X128.8Y-68.32
X130.284Y-74.986
X130.72Y-100.38
X131.57Y-87.71
X133.006Y-76.0
X133.15Y-77.02
X133.151Y-78.05
X134.19Y-74.45
X135.452Y-74.528
X136.03Y-82.74
X136.05Y-87.31
X136.2Y-79.73
X136.57Y-74.22
X136.61Y-86.19
X138.07Y-85.84
X139.12Y-85.83
X139.24Y-92.17
X141.44Y-75.64
X141.54Y-88.13
X145.38Y-99.42
X147.43Y-58.912
T3
X145.39Y-103.05
X145.39Y-105.05
T4
X101.949Y-93.728
X102.188Y-87.593
X102.58Y-83.11
X102.73Y-98.16
X104.06Y-77.03
X105.599Y-72.801
T5
X104.182Y-92.055
X104.559Y-89.055
X105.17Y-82.072
X105.399Y-98.959
X105.972Y-79.056
X108.37Y-72.469
T2
X104.156Y-104.548G85X103.464Y-104.948
G05
X107.906Y-102.383G85X106.954Y-102.933
G05
X108.476Y-112.03G85X107.784Y-112.43
G05
X112.226Y-109.865G85X111.274Y-110.415
G05
M30
